<?xml version="1.0" encoding="UTF-8"?>
<svg width="1440px" height="725px" viewBox="0 0 1440 725" version="1.1" xmlns="http://www.w3.org/2000/svg" xmlns:xlink="http://www.w3.org/1999/xlink">
    <!-- Generator: Sketch 43.2 (39069) - http://www.bohemiancoding.com/sketch -->
    <title>iPad Portrait</title>
    <desc>Created with Sketch.</desc>
    <defs>
        <path d="M821.897155,163.547424 C821.897155,164.547924 821.085155,165.359924 820.084655,165.359924 L819.229155,165.359924 C819.766561,163.853737 820.084655,162.17083 820.084655,160.375549 C820.084655,158.931893 819.872592,157.564362 819.51553,156.297424 L820.084655,156.297424 C821.085155,156.297424 821.897155,157.109424 821.897155,158.109924 L821.897155,163.547424 L821.897155,163.547424 Z M817.250811,165.359924 L816.459655,165.359924 C815.459155,165.359924 814.647155,164.547924 814.647155,163.547424 L814.647155,158.109924 C814.647155,157.109424 815.459155,156.297424 816.459655,156.297424 L817.599717,156.297424 C818.021123,157.553487 818.272155,158.92283 818.272155,160.375549 C818.272155,162.188049 817.889717,163.876393 817.250811,165.359924 L817.250811,165.359924 Z M798.904686,156.297424 C798.546717,157.564362 798.334655,158.931893 798.334655,160.375549 C798.334655,162.17083 798.653655,163.853737 799.190155,165.359924 L798.334655,165.359924 C797.334155,165.359924 796.522155,164.547924 796.522155,163.547424 L796.522155,158.109924 C796.522155,157.109424 797.334155,156.297424 798.334655,156.297424 L798.904686,156.297424 L798.904686,156.297424 Z M800.819592,156.297424 L801.959655,156.297424 C802.960155,156.297424 803.772155,157.109424 803.772155,158.109924 L803.772155,163.547424 C803.772155,164.547924 802.960155,165.359924 801.959655,165.359924 L801.168498,165.359924 C800.529592,163.876393 800.147155,162.188049 800.147155,160.375549 C800.147155,158.92283 800.398186,157.553487 800.819592,156.297424 L800.819592,156.297424 Z M821.840967,154.95708 C821.866342,154.650768 821.897155,154.345362 821.897155,154.031799 C821.897155,147.274799 816.21678,141.797424 809.209655,141.797424 C802.20253,141.797424 796.522155,147.274799 796.522155,154.031799 C796.522155,154.345362 796.552967,154.650768 796.579248,154.95708 C795.469092,155.576955 794.709655,156.748737 794.709655,158.109924 L794.709655,163.547424 C794.709655,165.54933 796.332748,167.172424 798.334655,167.172424 C798.334655,167.172424 801.96328,167.177862 801.959655,167.172424 C803.885436,167.08633 805.584655,165.494049 805.584655,163.547424 L805.584655,158.109924 C805.584655,156.108018 803.961561,154.484924 801.959655,154.484924 L798.334655,154.484924 C798.334655,148.44658 803.203936,143.609924 809.209655,143.609924 C815.21628,143.609924 820.084655,148.020643 820.084655,154.484924 L816.459655,154.484924 C814.457748,154.484924 812.834655,156.108018 812.834655,158.109924 L812.834655,163.547424 C812.834655,165.494049 814.533873,167.08633 816.459655,167.172424 C816.45603,167.177862 818.272155,167.172424 818.272155,167.172424 L818.272155,169.891174 C818.272155,170.39233 818.677248,170.797424 819.178405,170.797424 C819.679561,170.797424 820.084655,170.39233 820.084655,169.891174 L820.084655,167.172424 C822.086561,167.172424 823.709655,165.54933 823.709655,163.547424 L823.709655,158.109924 C823.709655,156.748737 822.950217,155.576955 821.840967,154.95708 L821.840967,154.95708 Z" id="path-1"></path>
        <filter x="-24.1%" y="-17.2%" width="148.3%" height="148.3%" filterUnits="objectBoundingBox" id="filter-2">
            <feOffset dx="0" dy="2" in="SourceAlpha" result="shadowOffsetOuter1"></feOffset>
            <feGaussianBlur stdDeviation="2" in="shadowOffsetOuter1" result="shadowBlurOuter1"></feGaussianBlur>
            <feColorMatrix values="0 0 0 0 0.0504813104   0 0 0 0 0.160016704   0 0 0 0 0.926764456  0 0 0 1 0" type="matrix" in="shadowBlurOuter1"></feColorMatrix>
        </filter>
        <path d="M542.02175,228.515769 C542.02175,229.309269 541.355468,229.706019 540.58425,229.953269 C540.58425,229.953269 536.672093,231.042175 532.678,232.092988 L532.678,214.140769 L540.58425,211.984519 C541.37775,211.984519 542.02175,212.628519 542.02175,213.422019 L542.02175,228.515769 L542.02175,228.515769 Z M531.2405,232.108082 C527.314687,231.052957 523.33425,229.953269 523.33425,229.953269 C522.51775,229.729019 521.89675,229.309269 521.89675,228.515769 L521.89675,213.422019 C521.89675,212.628519 522.54075,211.984519 523.33425,211.984519 L531.2405,214.140769 L531.2405,232.108082 L531.2405,232.108082 Z M540.58425,210.547019 C540.58425,210.547019 536.423406,211.692707 532.642062,212.703269 C532.168406,212.721238 531.691156,212.703269 531.216781,212.703269 C527.614406,211.737269 523.33425,210.547019 523.33425,210.547019 C521.746531,210.547019 520.45925,211.8343 520.45925,213.422019 L520.45925,228.515769 C520.45925,230.103488 521.814093,230.896988 523.33425,231.390769 C523.33425,231.390769 527.210468,232.468894 531.216781,233.547019 L532.67225,233.547019 C536.711625,232.468894 540.58425,231.390769 540.58425,231.390769 C542.059843,231.009113 543.45925,230.103488 543.45925,228.515769 L543.45925,213.422019 C543.45925,211.8343 542.171968,210.547019 540.58425,210.547019 L540.58425,210.547019 Z" id="path-3"></path>
        <filter x="-30.4%" y="-21.7%" width="160.9%" height="160.9%" filterUnits="objectBoundingBox" id="filter-4">
            <feOffset dx="0" dy="2" in="SourceAlpha" result="shadowOffsetOuter1"></feOffset>
            <feGaussianBlur stdDeviation="2" in="shadowOffsetOuter1" result="shadowBlurOuter1"></feGaussianBlur>
            <feColorMatrix values="0 0 0 0 0.254248565   0 0 0 0 0.334011526   0 0 0 0 0.892352253  0 0 0 1 0" type="matrix" in="shadowBlurOuter1"></feColorMatrix>
        </filter>
        <path d="M320.216825,135.319516 C317.31795,135.319516 314.966825,132.968391 314.966825,130.069516 C314.966825,127.170641 317.31795,124.819516 320.216825,124.819516 C323.1157,124.819516 325.466825,127.170641 325.466825,130.069516 C325.466825,132.968391 323.1157,135.319516 320.216825,135.319516 L320.216825,135.319516 Z M320.216825,123.069516 C316.351075,123.069516 313.216825,126.203766 313.216825,130.069516 C313.216825,133.935266 316.351075,137.069516 320.216825,137.069516 C324.082575,137.069516 327.216825,133.935266 327.216825,130.069516 C327.216825,126.203766 324.082575,123.069516 320.216825,123.069516 L320.216825,123.069516 Z M332.466825,137.069516 C332.466825,138.035516 331.682825,138.819516 330.716825,138.819516 L309.716825,138.819516 C308.750825,138.819516 307.966825,138.035516 307.966825,137.069516 L307.966825,123.069516 C307.966825,122.103516 308.750825,121.319516 309.716825,121.319516 L313.216825,121.319516 L314.091825,119.569516 C314.71045,118.551891 314.875825,117.819516 315.841825,117.819516 L324.591825,117.819516 C325.557825,117.819516 325.7232,118.551891 326.341825,119.569516 L327.216825,121.319516 L330.716825,121.319516 C331.682825,121.319516 332.466825,122.103516 332.466825,123.069516 L332.466825,137.069516 L332.466825,137.069516 Z M330.716825,119.569516 L328.091825,119.569516 L327.216825,117.819516 C326.70145,116.801891 326.432825,116.069516 325.466825,116.069516 L314.966825,116.069516 C314.000825,116.069516 313.680575,116.904266 313.216825,117.819516 L312.341825,119.569516 L309.716825,119.569516 C307.78395,119.569516 306.216825,121.136641 306.216825,123.069516 L306.216825,137.069516 C306.216825,139.002391 307.78395,140.569516 309.716825,140.569516 L330.716825,140.569516 C332.6497,140.569516 334.216825,139.002391 334.216825,137.069516 L334.216825,123.069516 C334.216825,121.136641 332.6497,119.569516 330.716825,119.569516 L330.716825,119.569516 Z" id="path-5"></path>
        <filter x="-25.0%" y="-20.4%" width="150.0%" height="157.1%" filterUnits="objectBoundingBox" id="filter-6">
            <feOffset dx="0" dy="2" in="SourceAlpha" result="shadowOffsetOuter1"></feOffset>
            <feGaussianBlur stdDeviation="2" in="shadowOffsetOuter1" result="shadowBlurOuter1"></feGaussianBlur>
            <feColorMatrix values="0 0 0 0 0.254248565   0 0 0 0 0.334011526   0 0 0 0 0.892352253  0 0 0 1 0" type="matrix" in="shadowBlurOuter1"></feColorMatrix>
        </filter>
        <path d="M309.33513,362.420789 C306.948631,364.802098 303.361096,365.199675 300.534459,363.679955 L288.233451,375.958126 C287.400927,376.788574 286.051449,376.788574 285.217887,375.958126 C284.386401,375.12664 284.386401,373.781315 285.217887,372.949829 L297.520972,360.671658 C296.000214,357.852288 296.398829,354.274096 298.78429,351.892786 C300.214737,350.465454 302.081168,349.786563 303.954866,349.763726 C301.991895,351.84815 302.017847,355.120114 304.05971,357.157826 C306.100536,359.194499 309.378728,359.22045 311.467305,357.261632 C311.444467,359.131177 310.765576,360.993456 309.33513,362.420789 L309.33513,362.420789 Z M312.734776,353.170638 C312.209517,353.760256 311.337547,354.510773 310.087723,355.653677 C308.764197,356.974089 306.890499,356.974089 305.566973,355.653677 C304.242409,354.331189 304.242409,352.462681 305.566973,351.141231 C306.786693,349.923587 308.097763,348.481722 308.077002,348.475494 C304.532027,346.842626 300.198128,347.473766 297.277028,350.388638 C294.614404,353.045033 293.855583,356.871321 294.975649,360.204531 L283.711663,371.446718 C282.046615,373.107614 282.046615,375.801379 283.711663,377.462275 C285.37671,379.12317 288.075666,379.12317 289.740714,377.462275 L301.003662,366.221125 C304.346215,367.341192 308.179769,366.581332 310.842393,363.924937 C313.759341,361.01318 314.365568,356.705232 312.734776,353.170638 L312.734776,353.170638 Z" id="path-7"></path>
        <filter x="-22.5%" y="-16.1%" width="144.9%" height="145.0%" filterUnits="objectBoundingBox" id="filter-8">
            <feOffset dx="0" dy="2" in="SourceAlpha" result="shadowOffsetOuter1"></feOffset>
            <feGaussianBlur stdDeviation="2" in="shadowOffsetOuter1" result="shadowBlurOuter1"></feGaussianBlur>
            <feColorMatrix values="0 0 0 0 0.254248565   0 0 0 0 0.334011526   0 0 0 0 0.892352253  0 0 0 1 0" type="matrix" in="shadowBlurOuter1"></feColorMatrix>
        </filter>
        <path d="M176.787231,549.625 L170.412231,544.3125 L170.412231,541.125 L176.787231,536.875 L176.787231,549.625 L176.787231,549.625 Z M165.099731,534.76275 C162.158731,534.76275 159.775543,532.3785 159.775543,529.4375 C159.775543,526.4965 162.158731,524.113313 165.099731,524.113313 C168.040731,524.113313 170.423918,526.4965 170.423918,529.4375 C170.423918,532.3785 168.040731,534.76275 165.099731,534.76275 L165.099731,534.76275 Z M168.287231,547.5 C168.287231,548.673 167.335231,549.625 166.162231,549.625 L149.162231,549.625 C147.989231,549.625 147.037231,548.673 147.037231,547.5 L147.037231,539 C147.037231,537.827 147.989231,536.875 149.162231,536.875 L166.162231,536.875 C167.335231,536.875 168.287231,537.827 168.287231,539 L168.287231,547.5 L168.287231,547.5 Z M147.037231,530.5 C147.037231,528.152937 148.940168,526.25 151.287231,526.25 C153.634293,526.25 155.537231,528.152937 155.537231,530.5 C155.537231,532.847062 153.634293,534.75 151.287231,534.75 C148.940168,534.75 147.037231,532.847062 147.037231,530.5 L147.037231,530.5 Z M176.787231,534.75 L170.412231,539 C170.412231,537.710125 169.825731,536.569 168.918356,535.790187 C171.077356,534.487562 172.537231,532.142625 172.537231,529.4375 C172.537231,525.329875 169.207356,522 165.099731,522 C160.992106,522 157.662231,525.329875 157.662231,529.4375 C157.662231,531.522125 158.524981,533.399562 159.905168,534.75 L156.007918,534.75 C157.024731,533.620563 157.662231,532.1405 157.662231,530.5 C157.662231,526.979938 154.807293,524.125 151.287231,524.125 C147.767168,524.125 144.912231,526.979938 144.912231,530.5 C144.912231,532.422062 145.779231,534.123125 147.124356,535.292937 C145.812168,536.015438 144.912231,537.395625 144.912231,539 L144.912231,547.5 C144.912231,549.847062 146.815168,551.75 149.162231,551.75 L166.162231,551.75 C168.509293,551.75 170.412231,549.847062 170.412231,547.5 L170.412231,546.4375 L176.787231,551.75 C177.960231,551.75 178.912231,550.798 178.912231,549.625 L178.912231,536.875 C178.912231,535.702 177.960231,534.75 176.787231,534.75 L176.787231,534.75 Z" id="path-9"></path>
        <filter x="-20.6%" y="-16.8%" width="141.2%" height="147.1%" filterUnits="objectBoundingBox" id="filter-10">
            <feOffset dx="0" dy="2" in="SourceAlpha" result="shadowOffsetOuter1"></feOffset>
            <feGaussianBlur stdDeviation="2" in="shadowOffsetOuter1" result="shadowBlurOuter1"></feGaussianBlur>
            <feColorMatrix values="0 0 0 0 0.254248565   0 0 0 0 0.334011526   0 0 0 0 0.892352253  0 0 0 1 0" type="matrix" in="shadowBlurOuter1"></feColorMatrix>
        </filter>
        <path d="M125.754674,281.888359 C124.439716,281.888359 123.374133,280.821984 123.374133,279.507025 C123.374133,278.192067 124.439716,277.125692 125.754674,277.125692 C127.069633,277.125692 128.135216,278.192067 128.135216,279.507025 C128.135216,280.821984 127.069633,281.888359 125.754674,281.888359 L125.754674,281.888359 Z M125.754674,275.548692 C123.568883,275.548692 121.796341,277.320442 121.796341,279.507025 C121.796341,281.693609 123.568883,283.465359 125.754674,283.465359 C127.940466,283.465359 129.713008,281.693609 129.713008,279.507025 C129.713008,277.320442 127.940466,275.548692 125.754674,275.548692 L125.754674,275.548692 Z M133.671341,294.548692 C133.671341,295.422692 132.962008,296.132025 132.088008,296.132025 L119.421341,296.132025 C118.547341,296.132025 117.838008,295.422692 117.838008,294.548692 L117.838008,275.548692 C117.838008,274.674692 118.547341,273.965359 119.421341,273.965359 L132.088008,273.965359 C132.962008,273.965359 133.671341,274.674692 133.671341,275.548692 L133.671341,294.548692 L133.671341,294.548692 Z M132.088008,272.382025 L119.421341,272.382025 C117.672549,272.382025 116.254674,273.7999 116.254674,275.548692 L116.254674,294.548692 C116.254674,296.297484 117.672549,297.715359 119.421341,297.715359 L132.088008,297.715359 C133.836799,297.715359 135.254674,296.297484 135.254674,294.548692 L135.254674,275.548692 C135.254674,273.7999 133.836799,272.382025 132.088008,272.382025 L132.088008,272.382025 Z M125.754674,294.548692 C123.568883,294.548692 121.796341,292.776942 121.796341,290.590359 C121.796341,288.403775 123.568883,286.632025 125.754674,286.632025 C127.940466,286.632025 129.713008,288.403775 129.713008,290.590359 C129.713008,292.776942 127.940466,294.548692 125.754674,294.548692 L125.754674,294.548692 Z M131.296341,290.590359 C131.296341,287.529775 128.815258,285.048692 125.754674,285.048692 C122.694091,285.048692 120.213008,287.529775 120.213008,290.590359 C120.213008,293.650942 122.694091,296.132025 125.754674,296.132025 C128.815258,296.132025 131.296341,293.650942 131.296341,290.590359 L131.296341,290.590359 Z" id="path-11"></path>
        <filter x="-36.8%" y="-19.7%" width="173.7%" height="155.3%" filterUnits="objectBoundingBox" id="filter-12">
            <feOffset dx="0" dy="2" in="SourceAlpha" result="shadowOffsetOuter1"></feOffset>
            <feGaussianBlur stdDeviation="2" in="shadowOffsetOuter1" result="shadowBlurOuter1"></feGaussianBlur>
            <feColorMatrix values="0 0 0 0 0.254248565   0 0 0 0 0.334011526   0 0 0 0 0.892352253  0 0 0 1 0" type="matrix" in="shadowBlurOuter1"></feColorMatrix>
        </filter>
        <path d="M703.537231,324.25 C703.537231,317.96775 708.629981,312.875 714.912231,312.875 C721.194481,312.875 726.287231,317.96775 726.287231,324.25 L703.537231,324.25 L703.537231,324.25 Z M715.724731,311.25 L715.724731,309.625 L717.349731,309.625 C717.799043,309.625 718.162231,309.261813 718.162231,308.8125 C718.162231,308.364 717.799043,308 717.349731,308 L712.474731,308 C712.025418,308 711.662231,308.364 711.662231,308.8125 C711.662231,309.261813 712.025418,309.625 712.474731,309.625 L714.099731,309.625 C714.099731,309.625 714.094043,311.316625 714.099731,311.25 C707.300731,311.671688 701.912231,317.344562 701.912231,324.25 L701.912231,325.0625 C701.912231,325.511813 702.275418,325.875 702.724731,325.875 L727.099731,325.875 C727.549043,325.875 727.912231,325.511813 727.912231,325.0625 L727.912231,324.25 C727.912231,317.344562 722.523731,311.671688 715.724731,311.25 L715.724731,311.25 Z M727.099731,327.5 L702.724731,327.5 C702.275418,327.5 701.912231,327.864 701.912231,328.3125 C701.912231,328.761813 702.275418,329.125 702.724731,329.125 L727.099731,329.125 C727.549043,329.125 727.912231,328.761813 727.912231,328.3125 C727.912231,327.864 727.549043,327.5 727.099731,327.5 L727.099731,327.5 Z" id="path-13"></path>
        <filter x="-26.9%" y="-23.7%" width="153.8%" height="166.3%" filterUnits="objectBoundingBox" id="filter-14">
            <feOffset dx="0" dy="2" in="SourceAlpha" result="shadowOffsetOuter1"></feOffset>
            <feGaussianBlur stdDeviation="2" in="shadowOffsetOuter1" result="shadowBlurOuter1"></feGaussianBlur>
            <feColorMatrix values="0 0 0 0 0.0504813104   0 0 0 0 0.160016704   0 0 0 0 0.926764456  0 0 0 1 0" type="matrix" in="shadowBlurOuter1"></feColorMatrix>
        </filter>
        <path d="M448.219923,363.456308 L448.219923,359.269231 C448.219923,358.823385 447.858884,358.461538 447.412231,358.461538 C446.965577,358.461538 446.604538,358.823385 446.604538,359.269231 L446.604538,363.456308 C445.666,363.789885 444.989154,364.676731 444.989154,365.730769 C444.989154,367.069115 446.073884,368.153846 447.412231,368.153846 C448.750577,368.153846 449.835307,367.069115 449.835307,365.730769 C449.835307,364.676731 449.158461,363.789885 448.219923,363.456308 L448.219923,363.456308 Z M447.412231,374.615385 C442.5055,374.615385 438.527615,370.6375 438.527615,365.730769 C438.527615,360.824038 442.5055,356.846154 447.412231,356.846154 C452.318961,356.846154 456.296846,360.824038 456.296846,365.730769 C456.296846,370.6375 452.318961,374.615385 447.412231,374.615385 L447.412231,374.615385 Z M448.211846,355.271154 C448.212654,355.256615 448.219923,355.245308 448.219923,355.230769 L448.219923,353.615385 L451.450692,353.615385 C451.897346,353.615385 452.258384,353.254346 452.258384,352.807692 C452.258384,352.361038 451.897346,352 451.450692,352 L443.373769,352 C442.927115,352 442.566077,352.361038 442.566077,352.807692 C442.566077,353.254346 442.927115,353.615385 443.373769,353.615385 L446.604538,353.615385 L446.604538,355.230769 C446.604538,355.245308 446.611807,355.256615 446.612615,355.271154 C441.188961,355.681462 436.912231,360.201308 436.912231,365.730769 C436.912231,371.53 441.613,376.230769 447.412231,376.230769 C453.211461,376.230769 457.912231,371.53 457.912231,365.730769 C457.912231,360.201308 453.6355,355.681462 448.211846,355.271154 L448.211846,355.271154 Z" id="path-15"></path>
        <filter x="-33.3%" y="-20.6%" width="166.7%" height="157.8%" filterUnits="objectBoundingBox" id="filter-16">
            <feOffset dx="0" dy="2" in="SourceAlpha" result="shadowOffsetOuter1"></feOffset>
            <feGaussianBlur stdDeviation="2" in="shadowOffsetOuter1" result="shadowBlurOuter1"></feGaussianBlur>
            <feColorMatrix values="0 0 0 0 0.254248565   0 0 0 0 0.334011526   0 0 0 0 0.892352253  0 0 0 1 0" type="matrix" in="shadowBlurOuter1"></feColorMatrix>
        </filter>
        <path d="M964.411874,332.246451 C961.617566,332.246451 959.351249,329.973527 959.351249,327.171072 C959.351249,324.368617 961.617566,322.095693 964.411874,322.095693 C967.206182,322.095693 969.472499,324.368617 969.472499,327.171072 C969.472499,329.973527 967.206182,332.246451 964.411874,332.246451 L964.411874,332.246451 Z M964.411874,320.4039 C960.685567,320.4039 957.664374,323.433901 957.664374,327.171072 C957.664374,330.908243 960.685567,333.938244 964.411874,333.938244 C968.138181,333.938244 971.159374,330.908243 971.159374,327.171072 C971.159374,323.433901 968.138181,320.4039 964.411874,320.4039 L964.411874,320.4039 Z M976.219999,333.938244 C976.219999,334.872114 975.464279,335.630037 974.533124,335.630037 L954.290624,335.630037 C953.359469,335.630037 952.603749,334.872114 952.603749,333.938244 L952.603749,320.4039 C952.603749,319.47003 953.359469,318.712107 954.290624,318.712107 L957.664374,318.712107 L958.507812,317.020314 C959.104122,316.036536 959.263532,315.328521 960.194687,315.328521 L968.629061,315.328521 C969.560216,315.328521 969.719626,316.036536 970.315936,317.020314 L971.159374,318.712107 L974.533124,318.712107 C975.464279,318.712107 976.219999,319.47003 976.219999,320.4039 L976.219999,333.938244 L976.219999,333.938244 Z M974.533124,317.020314 L972.002811,317.020314 L971.159374,315.328521 C970.662589,314.344743 970.403654,313.636728 969.472499,313.636728 L959.351249,313.636728 C958.420094,313.636728 958.111396,314.443713 957.664374,315.328521 L956.820937,317.020314 L954.290624,317.020314 C952.427471,317.020314 950.916874,318.535315 950.916874,320.4039 L950.916874,333.938244 C950.916874,335.806829 952.427471,337.32183 954.290624,337.32183 L974.533124,337.32183 C976.396277,337.32183 977.906874,335.806829 977.906874,333.938244 L977.906874,320.4039 C977.906874,318.535315 976.396277,317.020314 974.533124,317.020314 L974.533124,317.020314 Z" id="path-17"></path>
        <filter x="-25.9%" y="-21.1%" width="151.9%" height="159.1%" filterUnits="objectBoundingBox" id="filter-18">
            <feOffset dx="0" dy="2" in="SourceAlpha" result="shadowOffsetOuter1"></feOffset>
            <feGaussianBlur stdDeviation="2" in="shadowOffsetOuter1" result="shadowBlurOuter1"></feGaussianBlur>
            <feColorMatrix values="0 0 0 0 0.0504813104   0 0 0 0 0.160016704   0 0 0 0 0.926764456  0 0 0 1 0" type="matrix" in="shadowBlurOuter1"></feColorMatrix>
        </filter>
        <path d="M1250.9867,467.81174 C1248.75338,470.040206 1245.39611,470.412264 1242.7509,468.990088 L1231.23943,480.480186 C1230.46034,481.257332 1229.19748,481.257332 1228.41742,480.480186 C1227.63931,479.702069 1227.63931,478.443093 1228.41742,477.664976 L1239.93084,466.174877 C1238.50769,463.536468 1238.88072,460.187942 1241.11307,457.959477 C1242.4517,456.623757 1244.19834,455.988441 1245.95177,455.967069 C1244.11479,457.917705 1244.13908,460.979659 1246.04989,462.88658 C1247.95972,464.79253 1251.0275,464.816815 1252.98202,462.983723 C1252.96065,464.733272 1252.32534,466.476021 1250.9867,467.81174 L1250.9867,467.81174 Z M1254.16814,459.155309 C1253.6766,459.707083 1252.8606,460.409428 1251.69099,461.478975 C1250.45242,462.714636 1248.69898,462.714636 1247.4604,461.478975 C1246.22086,460.24137 1246.22086,458.492793 1247.4604,457.25616 C1248.60184,456.11667 1249.82876,454.767351 1249.80933,454.761522 C1246.49189,453.23346 1242.43616,453.82409 1239.70255,456.551871 C1237.21083,459.037766 1236.50071,462.618465 1237.54888,465.737733 L1227.00787,476.258342 C1225.4497,477.812633 1225.4497,480.3335 1227.00787,481.887791 C1228.56605,483.442082 1231.09177,483.442082 1232.64995,481.887791 L1243.18999,471.368153 C1246.318,472.416328 1249.9055,471.70524 1252.39722,469.219345 C1255.12695,466.494479 1255.69426,462.463036 1254.16814,459.155309 L1254.16814,459.155309 Z" id="path-19"></path>
        <filter x="-24.0%" y="-17.2%" width="148.0%" height="148.1%" filterUnits="objectBoundingBox" id="filter-20">
            <feOffset dx="0" dy="2" in="SourceAlpha" result="shadowOffsetOuter1"></feOffset>
            <feGaussianBlur stdDeviation="2" in="shadowOffsetOuter1" result="shadowBlurOuter1"></feGaussianBlur>
            <feColorMatrix values="0 0 0 0 0.0504813104   0 0 0 0 0.160016704   0 0 0 0 0.926764456  0 0 0 1 0" type="matrix" in="shadowBlurOuter1"></feColorMatrix>
        </filter>
        <path d="M1074.58467,145.321125 C1074.58467,146.302329 1073.7814,147.098668 1072.79167,147.098668 L1062.03367,147.098668 C1061.04393,147.098668 1060.24067,146.302329 1060.24067,145.321125 L1060.24067,127.545694 C1060.24067,126.56449 1061.04393,125.768151 1062.03367,125.768151 L1072.79167,125.768151 C1073.7814,125.768151 1074.58467,126.56449 1074.58467,127.545694 L1074.58467,145.321125 L1074.58467,145.321125 Z M1072.79167,123.990607 L1068.30917,123.990607 L1068.30917,120.435521 L1064.72317,120.435521 C1064.2283,120.435521 1063.82667,120.833691 1063.82667,121.324293 C1063.82667,121.815783 1064.2283,122.213064 1064.72317,122.213064 L1066.51617,122.213064 L1066.51617,123.990607 L1062.03367,123.990607 C1060.0533,123.990607 1058.44767,125.582397 1058.44767,127.545694 L1058.44767,145.321125 C1058.44767,147.284421 1060.0533,148.876211 1062.03367,148.876211 L1072.79167,148.876211 C1074.77204,148.876211 1076.37767,147.284421 1076.37767,145.321125 L1076.37767,127.545694 C1076.37767,125.582397 1074.77204,123.990607 1072.79167,123.990607 L1072.79167,123.990607 Z M1067.41267,127.545694 C1066.9178,127.545694 1066.51617,127.942975 1066.51617,128.434465 L1066.51617,131.989551 C1066.51617,132.481042 1066.9178,132.878323 1067.41267,132.878323 C1067.90754,132.878323 1068.30917,132.481042 1068.30917,131.989551 L1068.30917,128.434465 C1068.30917,127.942975 1067.90754,127.545694 1067.41267,127.545694 L1067.41267,127.545694 Z" id="path-21"></path>
        <filter x="-39.0%" y="-17.6%" width="178.1%" height="149.2%" filterUnits="objectBoundingBox" id="filter-22">
            <feOffset dx="0" dy="2" in="SourceAlpha" result="shadowOffsetOuter1"></feOffset>
            <feGaussianBlur stdDeviation="2" in="shadowOffsetOuter1" result="shadowBlurOuter1"></feGaussianBlur>
            <feColorMatrix values="0 0 0 0 0.0504813104   0 0 0 0 0.160016704   0 0 0 0 0.926764456  0 0 0 1 0" type="matrix" in="shadowBlurOuter1"></feColorMatrix>
        </filter>
        <path d="M1267.21811,205.43588 L1254.92652,217.571506 L1253.57316,216.235589 L1265.86573,204.099963 C1266.23967,203.730866 1266.84514,203.730866 1267.21811,204.099963 C1267.59205,204.46906 1267.59205,205.066783 1267.21811,205.43588 L1267.21811,205.43588 Z M1251.54458,220.911782 C1251.41961,220.78875 1250.19123,219.575865 1250.19123,219.575865 L1252.22078,217.571506 L1253.57316,218.907422 L1251.54458,220.911782 L1251.54458,220.911782 Z M1249.51504,225.586037 C1248.56178,226.470513 1244.30215,228.441934 1241.79404,226.530576 C1241.79404,226.530576 1242.66689,225.849539 1243.32758,224.482622 C1244.90569,220.290808 1248.83884,220.911782 1248.83884,220.911782 L1250.19123,222.24673 C1250.20479,222.260292 1251.20164,224.022462 1249.51504,225.586037 L1249.51504,225.586037 Z M1268.57147,202.764046 C1267.45061,201.657725 1265.63322,201.657725 1264.51237,202.764046 L1247.87105,219.195143 C1245.83376,219.148643 1243.01177,219.870367 1241.79404,223.859711 C1240.86306,225.969665 1238.41211,225.863102 1238.41211,225.863102 C1243.50099,231.508052 1249.49857,228.309215 1250.86742,226.921954 C1252.07159,225.703257 1252.24499,224.21137 1252.11615,223.017861 L1268.57147,206.771796 C1269.69232,205.664506 1269.69232,203.870367 1268.57147,202.764046 L1268.57147,202.764046 Z" id="path-23"></path>
        <filter x="-22.6%" y="-18.4%" width="145.2%" height="151.6%" filterUnits="objectBoundingBox" id="filter-24">
            <feOffset dx="0" dy="2" in="SourceAlpha" result="shadowOffsetOuter1"></feOffset>
            <feGaussianBlur stdDeviation="2" in="shadowOffsetOuter1" result="shadowBlurOuter1"></feGaussianBlur>
            <feColorMatrix values="0 0 0 0 0.0504813104   0 0 0 0 0.160016704   0 0 0 0 0.926764456  0 0 0 1 0" type="matrix" in="shadowBlurOuter1"></feColorMatrix>
        </filter>
        <path d="M1136.6395,356.681818 C1136.6395,354.045364 1138.77673,351.909091 1141.41223,351.909091 C1144.04773,351.909091 1146.18496,354.045364 1146.18496,356.681818 L1146.18496,366.227273 C1146.18496,368.863727 1144.04773,371 1141.41223,371 C1138.77673,371 1136.6395,368.863727 1136.6395,366.227273 L1136.6395,356.681818 L1136.6395,356.681818 Z M1141.41223,372.909091 C1145.1025,372.909091 1148.09405,369.917545 1148.09405,366.227273 L1148.09405,356.681818 C1148.09405,352.991545 1145.1025,350 1141.41223,350 C1137.72196,350 1134.73041,352.991545 1134.73041,356.681818 L1134.73041,366.227273 C1134.73041,369.917545 1137.72196,372.909091 1141.41223,372.909091 L1141.41223,372.909091 Z M1151.91223,368.136364 L1150.00314,368.136364 C1149.13355,371.961227 1145.49959,374.818182 1141.41223,374.818182 C1137.32487,374.818182 1133.69091,371.961227 1132.82132,368.136364 L1130.91223,368.136364 C1131.75509,372.717227 1135.74509,376.259545 1140.45769,376.684318 L1140.45769,378.636364 L1139.50314,378.636364 C1138.97623,378.636364 1138.54859,379.064 1138.54859,379.590909 C1138.54859,380.118773 1138.97623,380.545455 1139.50314,380.545455 L1143.32132,380.545455 C1143.84823,380.545455 1144.27587,380.118773 1144.27587,379.590909 C1144.27587,379.064 1143.84823,378.636364 1143.32132,378.636364 L1142.36678,378.636364 L1142.36678,376.684318 C1147.07937,376.259545 1151.06937,372.717227 1151.91223,368.136364 L1151.91223,368.136364 Z" id="path-25"></path>
        <filter x="-33.3%" y="-16.4%" width="166.7%" height="145.8%" filterUnits="objectBoundingBox" id="filter-26">
            <feOffset dx="0" dy="2" in="SourceAlpha" result="shadowOffsetOuter1"></feOffset>
            <feGaussianBlur stdDeviation="2" in="shadowOffsetOuter1" result="shadowBlurOuter1"></feGaussianBlur>
            <feColorMatrix values="0 0 0 0 0.0504813104   0 0 0 0 0.160016704   0 0 0 0 0.926764456  0 0 0 1 0" type="matrix" in="shadowBlurOuter1"></feColorMatrix>
        </filter>
    </defs>
    <g id="Page-1" stroke="none" stroke-width="1" fill="none" fill-rule="evenodd">
        <g id="iPad-Portrait">
            <g id="Fill-135" transform="translate(809.209655, 156.297424) rotate(27.000000) translate(-809.209655, -156.297424) ">
                <use fill="black" fill-opacity="1" filter="url(#filter-2)" xlink:href="#path-1"></use>
                <use fill="#FFFFFF" fill-rule="evenodd" xlink:href="#path-1"></use>
            </g>
            <g id="Fill-216" transform="translate(531.959250, 222.047019) rotate(-21.000000) translate(-531.959250, -222.047019) ">
                <use fill="black" fill-opacity="1" filter="url(#filter-4)" xlink:href="#path-3"></use>
                <use fill="#FFFFFF" fill-rule="evenodd" xlink:href="#path-3"></use>
            </g>
            <g id="Fill-149" transform="translate(320.216825, 128.319516) rotate(8.000000) translate(-320.216825, -128.319516) ">
                <use fill="black" fill-opacity="1" filter="url(#filter-6)" xlink:href="#path-5"></use>
                <use fill="#FFFFFF" fill-rule="evenodd" xlink:href="#path-5"></use>
            </g>
            <g id="Fill-173" transform="translate(298.042877, 363.150555) rotate(299.000000) translate(-298.042877, -363.150555) ">
                <use fill="black" fill-opacity="1" filter="url(#filter-8)" xlink:href="#path-7"></use>
                <use fill="#FFFFFF" fill-rule="evenodd" xlink:href="#path-7"></use>
            </g>
            <g id="Fill-140" transform="translate(161.912231, 536.875000) rotate(-15.000000) translate(-161.912231, -536.875000) ">
                <use fill="black" fill-opacity="1" filter="url(#filter-10)" xlink:href="#path-9"></use>
                <use fill="#FFFFFF" fill-rule="evenodd" xlink:href="#path-9"></use>
            </g>
            <g id="Fill-132" transform="translate(125.754674, 285.048692) rotate(-31.000000) translate(-125.754674, -285.048692) ">
                <use fill="black" fill-opacity="1" filter="url(#filter-12)" xlink:href="#path-11"></use>
                <use fill="#FFFFFF" fill-rule="evenodd" xlink:href="#path-11"></use>
            </g>
            <g id="Fill-155" transform="translate(714.912231, 318.562500) rotate(26.000000) translate(-714.912231, -318.562500) ">
                <use fill="black" fill-opacity="1" filter="url(#filter-14)" xlink:href="#path-13"></use>
                <use fill="#FFFFFF" fill-rule="evenodd" xlink:href="#path-13"></use>
            </g>
            <g id="Fill-164" transform="translate(447.412231, 364.115385) rotate(-26.000000) translate(-447.412231, -364.115385) ">
                <use fill="black" fill-opacity="1" filter="url(#filter-16)" xlink:href="#path-15"></use>
                <use fill="#FFFFFF" fill-rule="evenodd" xlink:href="#path-15"></use>
            </g>
            <g id="Fill-149-Copy" transform="translate(964.411874, 325.479279) rotate(17.000000) translate(-964.411874, -325.479279) ">
                <use fill="black" fill-opacity="1" filter="url(#filter-18)" xlink:href="#path-17"></use>
                <use fill="#FFFFFF" fill-rule="evenodd" xlink:href="#path-17"></use>
            </g>
            <g id="Fill-173" transform="translate(1240.419242, 468.494667) rotate(21.000000) translate(-1240.419242, -468.494667) ">
                <use fill="black" fill-opacity="1" filter="url(#filter-20)" xlink:href="#path-19"></use>
                <use fill="#FFFFFF" fill-rule="evenodd" xlink:href="#path-19"></use>
            </g>
            <g id="Fill-142" transform="translate(1067.412668, 134.655866) rotate(24.000000) translate(-1067.412668, -134.655866) ">
                <use fill="black" fill-opacity="1" filter="url(#filter-22)" xlink:href="#path-21"></use>
                <use fill="#FFFFFF" fill-rule="evenodd" xlink:href="#path-21"></use>
            </g>
            <g id="Fill-212">
                <use fill="black" fill-opacity="1" filter="url(#filter-24)" xlink:href="#path-23"></use>
                <use fill="#FFFFFF" fill-rule="evenodd" xlink:href="#path-23"></use>
            </g>
            <g id="Fill-182" transform="translate(1141.412231, 365.272727) rotate(27.000000) translate(-1141.412231, -365.272727) ">
                <use fill="black" fill-opacity="1" filter="url(#filter-26)" xlink:href="#path-25"></use>
                <use fill="#FFFFFF" fill-rule="evenodd" xlink:href="#path-25"></use>
            </g>
        </g>
    </g>
</svg>