<?xml version="1.0" encoding="UTF-8"?>
<svg width="159px" height="159px" viewBox="0 0 159 159" version="1.1" xmlns="http://www.w3.org/2000/svg" xmlns:xlink="http://www.w3.org/1999/xlink">
    <!-- Generator: Sketch 43.2 (39069) - http://www.bohemiancoding.com/sketch -->
    <title>Page 1</title>
    <desc>Created with Sketch.</desc>
    <defs></defs>
    <g id="Page-1" stroke="none" stroke-width="1" fill="none" fill-rule="evenodd">
        <g id="Desktop-HD-Copy-6" transform="translate(-466.000000, -1889.000000)">
            <g id="Page-1" transform="translate(466.000000, 1889.000000)">
                <g id="Group-9">
                    <path d="M159,79.5 C159,123.406 123.407,159 79.5,159 C35.593,159 0,123.406 0,79.5 C0,35.594 35.593,0 79.5,0 C123.407,0 159,35.594 159,79.5" id="Fill-1" fill="#F0F1F9"></path>
                    <path d="M41.8438,54.8437 C41.8438,62.1097 35.9538,67.9997 28.6878,67.9997 C21.4218,67.9997 15.5318,62.1097 15.5318,54.8437 C15.5318,47.5777 21.4218,41.6877 28.6878,41.6877 C35.9538,41.6877 41.8438,47.5777 41.8438,54.8437" id="Fill-3" fill="#A5D3FF"></path>
                    <path d="M37.8486,45.3437 C40.4166,47.9597 41.9996,51.5447 41.9996,55.4997 C41.9996,63.5077 35.5086,69.9997 27.4996,69.9997 C19.4916,69.9997 12.9996,63.5077 12.9996,55.4997 C12.9996,47.4917 19.4916,40.9997 27.4996,40.9997 C28.5006,40.9997 29.4786,41.1017 30.4226,41.2947" id="Stroke-5" stroke="#333366" stroke-width="1.184" stroke-linecap="round"></path>
                    <path d="M35.6626,43.3359 C35.6626,44.0729 35.0646,44.6719 34.3276,44.6719 C33.5896,44.6719 32.9916,44.0729 32.9916,43.3359 C32.9916,42.5979 33.5896,41.9999 34.3276,41.9999 C35.0646,41.9999 35.6626,42.5979 35.6626,43.3359" id="Fill-7" fill="#333366"></path>
                </g>
                <text id="$" font-family="ProximaNova-Bold, Proxima Nova" font-size="21" font-weight="bold" fill="#333366">
                    <tspan x="22.7466" y="62.2929574">$</tspan>
                </text>
                <g id="Group-54" transform="translate(28.000000, 40.000000)">
                    <path d="M96.8672,27.8213 C89.1602,30.6753 85.0832,26.3453 85.0832,26.3453 C85.0832,26.3453 91.5402,8.9543 102.1352,3.9373 C111.0902,-0.3017 116.0112,4.7633 116.0112,4.7633 C116.0112,4.7633 105.9872,24.4443 96.8672,27.8213" id="Fill-10" fill="#A5D3FF"></path>
                    <path d="M95.9634,28.1006 C86.9974,30.6986 81.8034,25.5396 81.8034,25.5396 C81.8034,25.5396 88.1574,6.5846 100.3984,1.7916 C110.7434,-2.2584 117.0004,3.7876 117.0004,3.7876 C117.0004,3.7876 106.5724,25.0286 95.9634,28.1006 Z" id="Stroke-12" stroke="#333366" stroke-width="1.323"></path>
                    <path d="M89.3394,28.7695 C89.3394,28.7695 95.6934,9.8145 107.9344,5.0215" id="Stroke-14" stroke="#333366" stroke-width="1.323" stroke-linecap="round"></path>
                    <path d="M91.2397,23.9492 C91.2397,23.9492 89.7957,16.4672 93.2037,12.6592" id="Stroke-16" stroke="#333366" stroke-width="1.323" stroke-linecap="round"></path>
                    <path d="M106.8662,11.2783 C106.8662,11.2783 101.6122,16.7983 96.5332,16.2323" id="Stroke-18" stroke="#333366" stroke-width="1.323" stroke-linecap="round"></path>
                    <path d="M65.7031,50 L74.8451,50 C74.8451,50 76.3541,57.2 69.9441,64.46 C65.7791,69.178 53.7191,67.791 45.9431,67.864 C42.1141,67.899 39.0001,64.385 39.0001,60.048 L39.0001,50 L59.7361,50" id="Fill-20" fill="#1E90FF"></path>
                    <path d="M34.1118,64.4854 C31.8688,67.6474 29.2798,66.9304 29.2798,66.9304 C29.2798,66.9304 28.1688,57.6024 30.3758,53.3474 C32.5648,49.1284 35.8458,50.0954 35.8458,50.0954 C35.8458,50.0954 36.7658,60.7434 34.1118,64.4854" id="Fill-22" fill="#1E90FF"></path>
                    <path d="M27,68 L27,84.787 C27,95.398 37.745,104 51,104 C64.255,104 75,95.398 75,84.787 L74.715,60" id="Stroke-24" stroke="#333366" stroke-width="1.886" stroke-linecap="round"></path>
                    <path d="M33.3926,65.0107 C30.2956,68.5057 26.7206,67.7137 26.7206,67.7137 C26.7206,67.7137 24.3396,57.9997 28.2336,52.7007 C31.5256,48.2217 35.7876,49.1057 35.7876,49.1057 C35.7876,49.1057 37.0566,60.8747 33.3926,65.0107 Z" id="Stroke-26" stroke="#333366" stroke-width="1.998"></path>
                    <path d="M66.436,49.0557 L76.856,49.0557 C76.856,49.0557 78.414,55.9997 71.27,64.5357 C66.806,69.8707 52.777,68.1037 43.914,68.1807 C39.549,68.2187 36,64.4557 36,59.8127 L36,49.0557 L59,49.0557" id="Stroke-28" stroke="#333366" stroke-width="1.939" stroke-linecap="round"></path>
                    <path d="M63.6626,49.3359 C63.6626,50.0729 63.0646,50.6719 62.3276,50.6719 C61.5896,50.6719 60.9916,50.0729 60.9916,49.3359 C60.9916,48.5979 61.5896,47.9999 62.3276,47.9999 C63.0646,47.9999 63.6626,48.5979 63.6626,49.3359" id="Fill-30" fill="#333366"></path>
                    <path d="M43.1563,82.8437 C43.1563,84.5867 41.7433,85.9997 40.0003,85.9997 C38.2573,85.9997 36.8443,84.5867 36.8443,82.8437 C36.8443,81.1007 38.2573,79.6877 40.0003,79.6877 C41.7433,79.6877 43.1563,81.1007 43.1563,82.8437" id="Fill-32" fill="#333366"></path>
                    <path d="M43.1563,82.8437 C43.1563,84.5867 41.7433,85.9997 40.0003,85.9997 C38.2573,85.9997 36.8443,84.5867 36.8443,82.8437 C36.8443,81.1007 38.2573,79.6877 40.0003,79.6877 C41.7433,79.6877 43.1563,81.1007 43.1563,82.8437 Z" id="Stroke-34" stroke="#FFFFFF" stroke-width="0.478" stroke-linecap="round"></path>
                    <path d="M44.9067,93.5 C45.8687,95.247 48.4537,96.5 51.4997,96.5 C54.5467,96.5 57.1317,95.247 58.0937,93.5" id="Stroke-36" stroke="#333366" stroke-width="2" stroke-linecap="round"></path>
                    <path d="M26,73.0254 C23.763,73.2034 22,75.1414 22,77.5124 C22,79.8834 23.763,81.8224 26,82.0004" id="Stroke-38" stroke="#333366" stroke-width="2.309" stroke-linecap="round"></path>
                    <path d="M76,82 C78.237,81.822 80,79.884 80,77.513 C80,75.142 78.237,73.203 76,73.025" id="Stroke-40" stroke="#333366" stroke-width="2.309" stroke-linecap="round"></path>
                    <path d="M20.6626,108.3359 C20.6626,109.0729 20.0646,109.6719 19.3276,109.6719 C18.5896,109.6719 17.9916,109.0729 17.9916,108.3359 C17.9916,107.5979 18.5896,106.9999 19.3276,106.9999 C20.0646,106.9999 20.6626,107.5979 20.6626,108.3359" id="Fill-42" fill="#FFECBC"></path>
                    <path d="M24.6626,41.3359 C24.6626,42.0729 24.0646,42.6719 23.3276,42.6719 C22.5896,42.6719 21.9916,42.0729 21.9916,41.3359 C21.9916,40.5979 22.5896,39.9999 23.3276,39.9999 C24.0646,39.9999 24.6626,40.5979 24.6626,41.3359" id="Fill-44" fill="#5F609E"></path>
                    <path d="M3.6626,71.3359 C3.6626,72.0729 3.0646,72.6719 2.3276,72.6719 C1.5896,72.6719 0.9916,72.0729 0.9916,71.3359 C0.9916,70.5979 1.5896,69.9999 2.3276,69.9999 C3.0646,69.9999 3.6626,70.5979 3.6626,71.3359" id="Fill-46" fill="#6AD7E5"></path>
                    <path d="M86.6626,94.3359 C86.6626,95.0729 86.0646,95.6719 85.3276,95.6719 C84.5896,95.6719 83.9916,95.0729 83.9916,94.3359 C83.9916,93.5979 84.5896,92.9999 85.3276,92.9999 C86.0646,92.9999 86.6626,93.5979 86.6626,94.3359" id="Fill-48" fill="#6AD7E5"></path>
                    <path d="M86.6626,54.3359 C86.6626,55.0729 86.0646,55.6719 85.3276,55.6719 C84.5896,55.6719 83.9916,55.0729 83.9916,54.3359 C83.9916,53.5979 84.5896,52.9999 85.3276,52.9999 C86.0646,52.9999 86.6626,53.5979 86.6626,54.3359" id="Fill-50" fill="#FFECBC"></path>
                    <polyline id="Stroke-52" stroke="#333366" stroke-width="2" stroke-linecap="round" stroke-linejoin="round" points="61.6382 79.0928 57.6742 82.9678 63.0132 84.4628"></polyline>
                </g>
            </g>
        </g>
    </g>
</svg>