<?xml version="1.0" encoding="UTF-8"?>
<svg width="164px" height="174px" viewBox="0 0 164 174" version="1.1" xmlns="http://www.w3.org/2000/svg" xmlns:xlink="http://www.w3.org/1999/xlink">
    <!-- Generator: Sketch 43.2 (39069) - http://www.bohemiancoding.com/sketch -->
    <title>Page 1</title>
    <desc>Created with Sketch.</desc>
    <defs></defs>
    <g id="Page-1" stroke="none" stroke-width="1" fill="none" fill-rule="evenodd">
        <g id="Desktop-HD-Copy-6" transform="translate(-693.000000, -3544.000000)">
            <g id="Page-1" transform="translate(693.000000, 3544.000000)">
                <path d="M67,33.5 C67,52.002 52.001,67 33.5,67 C14.999,67 0,52.002 0,33.5 C0,14.998 14.999,0 33.5,0 C52.001,0 67,14.998 67,33.5" id="Fill-1" fill="#F0F1F9"></path>
                <path d="M57.7031,12 L66.8451,12 C66.8451,12 68.3541,19.2 61.9441,26.46 C57.7791,31.178 45.7191,29.791 37.9431,29.864 C34.1141,29.899 31.0001,26.385 31.0001,22.048 L31.0001,12 L51.7361,12" id="Fill-3" fill="#1E90FF"></path>
                <path d="M26.1118,26.4854 C23.8688,29.6474 21.2798,28.9304 21.2798,28.9304 C21.2798,28.9304 20.1688,19.6024 22.3758,15.3474 C24.5648,11.1284 27.8458,12.0954 27.8458,12.0954 C27.8458,12.0954 28.7658,22.7434 26.1118,26.4854" id="Fill-5" fill="#1E90FF"></path>
                <path d="M19,30 L19,46.787 C19,57.398 29.745,66 43,66 C56.255,66 67,57.398 67,46.787 L66.715,22" id="Stroke-7" stroke="#333366" stroke-width="1.886" stroke-linecap="round"></path>
                <path d="M25.3926,27.0107 C22.2956,30.5057 18.7206,29.7137 18.7206,29.7137 C18.7206,29.7137 16.3396,19.9997 20.2336,14.7007 C23.5256,10.2217 27.7876,11.1057 27.7876,11.1057 C27.7876,11.1057 29.0566,22.8747 25.3926,27.0107 Z" id="Stroke-9" stroke="#333366" stroke-width="1.998"></path>
                <path d="M58.436,11.0557 L68.856,11.0557 C68.856,11.0557 70.414,17.9997 63.27,26.5357 C58.806,31.8707 44.777,30.1037 35.914,30.1807 C31.549,30.2187 28,26.4557 28,21.8127 L28,11.0557 L51,11.0557" id="Stroke-11" stroke="#333366" stroke-width="1.939" stroke-linecap="round"></path>
                <path d="M55.6626,11.3359 C55.6626,12.0729 55.0646,12.6719 54.3276,12.6719 C53.5896,12.6719 52.9916,12.0729 52.9916,11.3359 C52.9916,10.5979 53.5896,9.9999 54.3276,9.9999 C55.0646,9.9999 55.6626,10.5979 55.6626,11.3359" id="Fill-13" fill="#333366"></path>
                <path d="M35.1563,44.8438 C35.1563,46.5868 33.7433,47.9998 32.0003,47.9998 C30.2573,47.9998 28.8443,46.5868 28.8443,44.8438 C28.8443,43.1008 30.2573,41.6878 32.0003,41.6878 C33.7433,41.6878 35.1563,43.1008 35.1563,44.8438" id="Fill-15" fill="#333366"></path>
                <path d="M35.1563,44.8438 C35.1563,46.5868 33.7433,47.9998 32.0003,47.9998 C30.2573,47.9998 28.8443,46.5868 28.8443,44.8438 C28.8443,43.1008 30.2573,41.6878 32.0003,41.6878 C33.7433,41.6878 35.1563,43.1008 35.1563,44.8438 Z" id="Stroke-17" stroke="#FFFFFF" stroke-width="0.478" stroke-linecap="round"></path>
                <path d="M36.9067,55.5 C37.8687,57.247 40.4537,58.5 43.4997,58.5 C46.5467,58.5 49.1317,57.247 50.0937,55.5" id="Stroke-19" stroke="#333366" stroke-width="2" stroke-linecap="round"></path>
                <path d="M57.2339,44.9219 C57.2339,46.6649 55.8209,48.0779 54.0779,48.0779 C52.3349,48.0779 50.9219,46.6649 50.9219,44.9219 C50.9219,43.1789 52.3349,41.7659 54.0779,41.7659 C55.8209,41.7659 57.2339,43.1789 57.2339,44.9219" id="Fill-21" fill="#333366"></path>
                <path d="M57.2339,44.9219 C57.2339,46.6649 55.8209,48.0779 54.0779,48.0779 C52.3349,48.0779 50.9219,46.6649 50.9219,44.9219 C50.9219,43.1789 52.3349,41.7659 54.0779,41.7659 C55.8209,41.7659 57.2339,43.1789 57.2339,44.9219 Z" id="Stroke-23" stroke="#FFFFFF" stroke-width="0.478" stroke-linecap="round"></path>
                <path d="M18,35.0254 C15.763,35.2034 14,37.1414 14,39.5124 C14,41.8834 15.763,43.8224 18,44.0004" id="Stroke-25" stroke="#333366" stroke-width="2.309" stroke-linecap="round"></path>
                <path d="M68,44 C70.237,43.822 72,41.884 72,39.513 C72,37.142 70.237,35.203 68,35.025" id="Stroke-27" stroke="#333366" stroke-width="2.309" stroke-linecap="round"></path>
                <path d="M164,140 C164,158.502 149.001,173.5 130.5,173.5 C111.999,173.5 97,158.502 97,140 C97,121.498 111.999,106.5 130.5,106.5 C149.001,106.5 164,121.498 164,140" id="Fill-29" fill="#F0F1F9"></path>
                <path d="M131.7031,114.5 L140.8451,114.5 C140.8451,114.5 142.3541,121.7 135.9441,128.96 C131.7791,133.678 119.7191,132.291 111.9431,132.364 C108.1141,132.399 105.0001,128.885 105.0001,124.548 L105.0001,114.5 L125.7361,114.5" id="Fill-31" fill="#1E90FF"></path>
                <path d="M100.1118,128.9854 C97.8688,132.1474 95.2798,131.4304 95.2798,131.4304 C95.2798,131.4304 94.1688,122.1024 96.3758,117.8474 C98.5648,113.6284 101.8458,114.5954 101.8458,114.5954 C101.8458,114.5954 102.7658,125.2434 100.1118,128.9854" id="Fill-33" fill="#1E90FF"></path>
                <path d="M93,132.5 L93,149.287 C93,159.898 103.745,168.5 117,168.5 C130.255,168.5 141,159.898 141,149.287 L140.715,124.5" id="Stroke-35" stroke="#333366" stroke-width="1.886" stroke-linecap="round"></path>
                <path d="M99.3926,129.5107 C96.2956,133.0057 92.7206,132.2137 92.7206,132.2137 C92.7206,132.2137 90.3396,122.4997 94.2336,117.2007 C97.5256,112.7217 101.7876,113.6057 101.7876,113.6057 C101.7876,113.6057 103.0566,125.3747 99.3926,129.5107 Z" id="Stroke-37" stroke="#333366" stroke-width="1.998"></path>
                <path d="M132.436,113.5557 L142.856,113.5557 C142.856,113.5557 144.414,120.4997 137.27,129.0357 C132.806,134.3707 118.777,132.6037 109.914,132.6807 C105.549,132.7187 102,128.9557 102,124.3127 L102,113.5557 L125,113.5557" id="Stroke-39" stroke="#333366" stroke-width="1.939" stroke-linecap="round"></path>
                <path d="M129.6626,113.8359 C129.6626,114.5729 129.0646,115.1719 128.3276,115.1719 C127.5896,115.1719 126.9916,114.5729 126.9916,113.8359 C126.9916,113.0979 127.5896,112.4999 128.3276,112.4999 C129.0646,112.4999 129.6626,113.0979 129.6626,113.8359" id="Fill-41" fill="#333366"></path>
                <path d="M109.1563,147.3437 C109.1563,149.0867 107.7433,150.4997 106.0003,150.4997 C104.2573,150.4997 102.8443,149.0867 102.8443,147.3437 C102.8443,145.6007 104.2573,144.1877 106.0003,144.1877 C107.7433,144.1877 109.1563,145.6007 109.1563,147.3437" id="Fill-43" fill="#333366"></path>
                <path d="M109.1563,147.3437 C109.1563,149.0867 107.7433,150.4997 106.0003,150.4997 C104.2573,150.4997 102.8443,149.0867 102.8443,147.3437 C102.8443,145.6007 104.2573,144.1877 106.0003,144.1877 C107.7433,144.1877 109.1563,145.6007 109.1563,147.3437 Z" id="Stroke-45" stroke="#FFFFFF" stroke-width="0.478" stroke-linecap="round"></path>
                <path d="M110.9067,158 C111.8687,159.747 114.4537,161 117.4997,161 C120.5467,161 123.1317,159.747 124.0937,158" id="Stroke-47" stroke="#333366" stroke-width="2" stroke-linecap="round"></path>
                <path d="M92,137.5254 C89.763,137.7034 88,139.6414 88,142.0124 C88,144.3834 89.763,146.3224 92,146.5004" id="Stroke-49" stroke="#333366" stroke-width="2.309" stroke-linecap="round"></path>
                <path d="M142,146.5 C144.237,146.322 146,144.384 146,142.013 C146,139.642 144.237,137.703 142,137.525" id="Stroke-51" stroke="#333366" stroke-width="2.309" stroke-linecap="round"></path>
                <polyline id="Stroke-53" stroke="#333366" stroke-width="2" stroke-linecap="round" stroke-linejoin="round" points="127.6382 143.5928 123.6742 147.4678 129.0132 148.9628"></polyline>
                <path d="M138.7778,77.4932 C140.5478,81.3872 141.9988,85.4912 143.0948,89.7642" id="Stroke-55" stroke="#333366" stroke-width="3" stroke-linecap="round"></path>
                <path d="M92.8662,40.2881 C112.9562,43.7001 129.8822,57.9201 138.7782,77.4931" id="Stroke-57" stroke="#333366" stroke-width="3" stroke-linecap="round"></path>
                <path d="M83.5,39.5 C86.684,39.5 89.812,39.769 92.866,40.288" id="Stroke-59" stroke="#333366" stroke-width="3" stroke-linecap="round"></path>
                <path d="M23.8164,89.7705 C22.0474,85.8775 20.5954,81.7735 19.5004,77.4995" id="Stroke-61" stroke="#A5D3FF" stroke-width="3" stroke-linecap="round"></path>
                <path d="M79.0947,127.7646 C58.4157,127.7646 40.1017,116.4156 28.8377,98.9726" id="Stroke-63" stroke="#A5D3FF" stroke-width="3" stroke-linecap="round"></path>
                <path d="M28,94 C28,95.104 27.104,96 26,96 C24.896,96 24,95.104 24,94 C24,92.896 24.896,92 26,92 C27.104,92 28,92.896 28,94" id="Fill-65" fill="#A5D3FF"></path>
            </g>
        </g>
    </g>
</svg>