<?xml version="1.0" encoding="UTF-8"?>
<svg width="1397px" height="1698px" viewBox="0 0 1397 1698" version="1.1" xmlns="http://www.w3.org/2000/svg" xmlns:xlink="http://www.w3.org/1999/xlink" style="background: #FFFFFF;">
    <!-- Generator: Sketch 43.2 (39069) - http://www.bohemiancoding.com/sketch -->
    <title>Desktop HD Copy 7</title>
    <desc>Created with Sketch.</desc>
    <defs>
        <polygon id="path-1" points="0 159.65986 610.893263 159.65986 610.893263 0 0 0"></polygon>
        <path d="M4.63311594,0.532792969 C5.17637681,0.382675781 5.73195652,0.308847656 6.28507246,0.308847656 C8.18217391,0.308847656 10.0472464,1.18125 11.2397101,2.84361328 C12.644058,4.80128906 12.7265942,7.30160156 11.6708696,9.29865234 L17.6134783,17.579707 C18.4930435,18.8040234 18.2121739,20.5094531 16.988913,21.3904687 C15.7656522,22.2690234 14.0619565,21.992168 13.1836232,20.7666211 L7.23978261,12.4843359 C5.015,12.8448633 2.67318841,11.97 1.26884058,10.0123242 C-0.272246377,7.86392578 -0.22173913,5.0596875 1.17891304,2.98880859 C1.18507246,2.97773438 1.96115942,3.95472656 2.60543478,4.85050781 C3.30391304,5.82503906 4.48528986,6.01945313 5.45971014,5.31808594 C6.43289855,4.61917969 6.62630435,3.43546875 5.92905797,2.46216797 C5.33528986,1.55408203 4.95094203,0.9253125 4.63311594,0.532792969 Z M6.25550725,6.42796875 C5.65434783,6.85986328 4.96326087,7.06658203 4.27710145,7.06658203 C3.24971014,7.06658203 2.23586957,6.60023438 1.56695652,5.72660156 C1.38586957,6.91277344 1.6223913,8.16416016 2.37630435,9.21498047 C3.63528986,10.9696289 5.85884058,11.5934766 7.79905797,10.9228711 L14.2898551,19.9705078 C14.7296377,20.5820508 15.5821014,20.7210937 16.1931159,20.2830469 C16.8053623,19.8425391 16.9457971,18.9885938 16.5060145,18.3770508 L10.0152174,9.33064453 C11.2692754,7.70273437 11.3912319,5.394375 10.1310145,3.63849609 C9.37710145,2.58767578 8.26963768,1.96505859 7.08949275,1.75710937 C8.11195652,3.28042969 7.75471014,5.34761719 6.25550725,6.42796875 Z" id="path-3"></path>
        <path d="M6.55485507,1.73373047 C6.95028986,1.05697266 7.66355072,0.677988281 8.39652174,0.677988281 C8.76115942,0.677988281 9.13072464,0.771503906 9.46826087,0.967148438 C9.46826087,0.967148438 11.7632609,3.32595703 13.7084058,5.28732422 C14.0126812,5.46451172 14.3107971,5.65400391 14.6212319,5.81888672 C17.4176087,6.58300781 20.5084058,7.4025 20.5084058,7.4025 C21.525942,7.99558594 21.8684058,9.29865234 21.2746377,10.3137891 L15.6387681,19.963125 C15.045,20.9782617 13.8118841,21.0336328 12.7253623,20.7284766 C12.7253623,20.7284766 9.84275362,19.9729687 6.85543478,19.154707 L5.92289855,18.6120703 C3.76217391,16.4279883 1.68398551,14.293125 1.68398551,14.293125 C0.89557971,13.4108789 0.323985507,12.3982031 0.917753623,11.3830664 L6.55485507,1.73373047 Z M2.22108696,13.3739648 C2.22108696,13.3739648 4.35717391,15.5629687 6.47601449,17.700293 L13.186087,6.21509766 L8.9323913,1.88753906 C8.42485507,1.59099609 7.77072464,1.76326172 7.47507246,2.27021484 L1.83797101,11.9195508 C1.53985507,12.4265039 1.78130435,12.9260742 2.22108696,13.3739648 Z M13.2612319,19.8093164 C13.4558696,19.8523828 13.6480435,19.8806836 13.8303623,19.8806836 C14.1974638,19.8806836 14.5202174,19.76625 14.7185507,19.4278711 L20.3544203,9.77730469 C20.6525362,9.27035156 20.4800725,8.61820312 19.9725362,8.32166016 L14.1063043,6.75035156 L7.4023913,18.2281641 C10.3502899,19.0464258 13.2612319,19.8093164 13.2612319,19.8093164 Z" id="path-5"></path>
        <path d="M6.55485507,1.73373047 C6.95028986,1.05574219 7.66355072,0.677988281 8.39652174,0.677988281 C8.76115942,0.677988281 9.13072464,0.771503906 9.46826087,0.967148438 C9.46826087,0.967148438 11.7632609,3.32595703 13.7084058,5.28732422 C14.0126812,5.46451172 14.3107971,5.65400391 14.6212319,5.81888672 C17.4176087,6.58300781 20.5084058,7.4025 20.5084058,7.4025 C21.525942,7.99558594 21.8684058,9.29865234 21.2746377,10.3137891 L15.6387681,19.963125 C15.045,20.9782617 13.8118841,21.0336328 12.7253623,20.7284766 C12.7253623,20.7284766 9.84275362,19.9729687 6.85543478,19.154707 L5.92289855,18.6120703 C3.76217391,16.4279883 1.68398551,14.293125 1.68398551,14.293125 C0.89557971,13.4108789 0.323985507,12.3982031 0.917753623,11.3830664 L6.55485507,1.73373047 Z M2.22108696,13.3739648 C2.22108696,13.3739648 4.35717391,15.5629687 6.47601449,17.700293 L13.186087,6.21509766 L8.9323913,1.88753906 C8.42485507,1.59099609 7.77072464,1.76326172 7.47507246,2.27021484 L1.83797101,11.9195508 C1.53985507,12.4265039 1.78130435,12.9260742 2.22108696,13.3739648 Z M13.2612319,19.8093164 C13.4546377,19.8523828 13.6480435,19.8806836 13.8303623,19.8806836 C14.1974638,19.8806836 14.5202174,19.76625 14.7185507,19.4278711 L20.3544203,9.77730469 C20.6525362,9.27035156 20.4800725,8.61820312 19.9725362,8.32166016 L14.1063043,6.75035156 L7.4023913,18.2281641 C10.3502899,19.0464258 13.2612319,19.8093164 13.2612319,19.8093164 Z" id="path-7"></path>
        <path d="M14.6101449,1.15541016 C14.9193478,0.851484375 15.3246377,0.69890625 15.7299275,0.69890625 C16.1339855,0.69890625 16.5405072,0.851484375 16.8497101,1.15541016 C17.4681159,1.76695312 17.4681159,2.75625 16.8497101,3.36533203 L7.77195652,12.3169922 C7.84217391,12.975293 7.74731884,13.7972461 7.08333333,14.469082 C6.32818841,15.2332031 3.01934783,16.9964648 0.211884058,13.8858398 C0.211884058,13.8858398 1.56449275,13.9436719 2.07695652,12.7796484 C2.74956522,10.5832617 4.30543478,10.1858203 5.43014493,10.2104297 L14.6101449,1.15541016 Z M8.57514493,8.58005859 L9.32166667,9.31587891 L16.1019565,2.62951172 C16.308913,2.42525391 16.308913,2.09548828 16.1019565,1.89369141 C15.8974638,1.68943359 15.5636232,1.68943359 15.3578986,1.89369141 L8.57514493,8.58005859 Z M6.71007246,10.4208398 C6.71007246,10.4208398 7.38637681,11.0889844 7.4565942,11.1554297 L8.57514493,10.0516992 L7.82985507,9.31587891 L6.71007246,10.4208398 Z M2.07695652,14.2525195 C2.50072464,14.5749023 3.01565217,14.6967187 3.5392029,14.6967187 C4.72797101,14.6967187 5.97094203,14.0704102 6.33681159,13.7332617 C7.26688406,12.8707031 6.71746377,11.8998633 6.71007246,11.8937109 L5.96355072,11.1554297 C5.96355072,11.1554297 3.7942029,10.8145898 2.92326087,13.1241797 C2.55985507,13.8772266 2.07695652,14.2525195 2.07695652,14.2525195 Z" id="path-9"></path>
        <path d="M14.6101449,1.15541016 C14.9193478,0.851484375 15.3246377,0.69890625 15.7299275,0.69890625 C16.1352174,0.69890625 16.5405072,0.851484375 16.8497101,1.15541016 C17.4681159,1.76695312 17.4681159,2.75625 16.8497101,3.36533203 L7.77195652,12.3169922 C7.84217391,12.975293 7.74731884,13.7972461 7.08333333,14.469082 C6.32818841,15.2332031 3.01934783,16.9964648 0.211884058,13.8858398 C0.211884058,13.8858398 1.56449275,13.9436719 2.07695652,12.7796484 C2.74956522,10.5832617 4.30543478,10.1858203 5.43014493,10.2104297 L14.6101449,1.15541016 Z M8.57514493,8.58005859 L9.32166667,9.31587891 L16.1019565,2.62951172 C16.308913,2.42525391 16.308913,2.09548828 16.1019565,1.89369141 C15.8974638,1.68943359 15.5636232,1.68943359 15.3578986,1.89369141 L8.57514493,8.58005859 Z M6.71007246,10.4208398 C6.71007246,10.4208398 7.38637681,11.0889844 7.4565942,11.1554297 L8.57514493,10.0516992 L7.82985507,9.31587891 L6.71007246,10.4208398 Z M2.07695652,14.2525195 C2.50072464,14.5749023 3.01442029,14.6979492 3.5392029,14.6979492 C4.72797101,14.6979492 5.97217391,14.0704102 6.33681159,13.7332617 C7.26688406,12.8707031 6.71746377,11.8998633 6.71007246,11.8937109 L5.96355072,11.1554297 C5.96355072,11.1554297 3.7942029,10.8145898 2.92326087,13.1241797 C2.55985507,13.8772266 2.07695652,14.2525195 2.07695652,14.2525195 Z" id="path-11"></path>
        <path d="M3.84594203,2.45847656 C5.37101449,1.18863281 7.21514493,0.566015625 9.02847826,0.566015625 C11.2212319,0.566015625 13.3696377,1.47779297 14.8528261,3.25458984 C14.9784783,3.40347656 15.0868841,3.5634375 15.1965217,3.7209375 C15.98,3.57328125 16.8152174,3.83291016 17.3597101,4.48751953 L19.5413768,7.09857422 C20.3433333,8.06080078 20.2139855,9.489375 19.2518841,10.2928711 L20.3421014,11.5983984 C20.5416667,11.8383398 20.5096377,12.1964063 20.2694203,12.3969727 C20.027971,12.5963086 19.6707246,12.5643164 19.4699275,12.324375 L18.3797101,11.0176172 C18.3797101,11.0176172 17.5087681,11.7485156 17.5075362,11.7435937 C16.5478986,12.4744922 15.0918116,12.3895898 14.3107971,11.4544336 L12.1303623,8.84214844 C11.3271739,7.87992187 11.4577536,6.45134766 12.4198551,5.64908203 L14.1642029,4.19712891 C11.571087,1.09265625 7.46152174,0.922851562 4.57275362,3.32964844 C1.68398551,5.73521484 1.2823913,10.0086328 3.70427536,12.9088477 L5.4473913,11.4568945 C6.40949275,10.6558594 7.84094203,10.7850586 8.64413043,11.7460547 L10.8245652,14.3583398 C11.6043478,15.2934961 11.4269565,16.7380664 10.5350725,17.5526367 C10.5387681,17.5538672 8.79072464,19.0045898 8.79072464,19.0045898 C7.82862319,19.805625 6.39717391,19.6764258 5.59521739,18.7141992 L3.41355072,16.1031445 C2.86782609,15.4485352 2.76434783,14.5822852 3.04891304,13.839082 C2.9134058,13.7025 2.77543478,13.5683789 2.64978261,13.4170312 C-0.0578985507,10.1710547 0.475507246,5.26517578 3.84594203,2.45847656 Z M16.5257246,7.02720703 C17.2463768,7.88853516 17.7686957,8.82492188 18.1123913,9.76253906 L18.5238406,9.42046875 C19.0055072,9.02056641 19.0707971,8.30443359 18.6692029,7.82332031 L16.4887681,5.21226562 C16.0871739,4.73238281 15.3714493,4.66716797 14.8897826,5.06707031 L14.6163043,5.2959375 C15.2963043,5.76228516 15.9467391,6.33445312 16.5257246,7.02720703 Z M15.182971,10.728457 C15.4071739,10.9979297 15.7299275,11.1357422 16.0551449,11.1357422 C16.3113768,11.1357422 16.5700725,11.0496094 16.7819565,10.8736523 L17.1613768,10.5574219 C16.8731159,9.5878125 16.3815942,8.623125 15.6535507,7.75318359 C15.0721014,7.05550781 14.4019565,6.496875 13.696087,6.06375 L13.1466667,6.52025391 C12.6662319,6.92015625 12.600942,7.63628906 13.0025362,8.11740234 L15.182971,10.728457 Z M6.93673913,15.0129492 C7.66478261,15.8841211 8.52586957,16.5411914 9.4276087,16.9989258 L9.80826087,16.6814648 C10.2886957,16.2815625 10.3539855,15.5641992 9.9523913,15.0843164 L7.77195652,12.4732617 C7.37036232,11.9921484 6.65463768,11.9281641 6.17297101,12.3280664 L5.62601449,12.7845703 C5.9265942,13.5573047 6.35528986,14.3152734 6.93673913,15.0129492 Z M6.46615942,17.9894531 C6.69036232,18.2576953 7.01311594,18.3967383 7.33710145,18.3967383 C7.59456522,18.3967383 7.85326087,18.309375 8.06514493,18.133418 L8.4765942,17.7901172 C7.61427536,17.2819336 6.78644928,16.6027148 6.0657971,15.7401562 C5.48681159,15.0449414 5.04086957,14.3029688 4.70456522,13.5523828 L4.43108696,13.78125 C3.94942029,14.1799219 3.88413043,14.8960547 4.28572464,15.3759375 L6.46615942,17.9894531 Z" id="path-13"></path>
        <path d="M3.84594203,2.45847656 C5.37101449,1.18863281 7.21514493,0.566015625 9.02847826,0.566015625 C11.2212319,0.566015625 13.3696377,1.4765625 14.8528261,3.25458984 C14.9784783,3.40347656 15.0868841,3.5634375 15.1965217,3.7209375 C15.98,3.57328125 16.8152174,3.83291016 17.3597101,4.48751953 L19.5413768,7.09857422 C20.3433333,8.06080078 20.2139855,9.489375 19.2518841,10.2928711 L20.3421014,11.5983984 C20.5416667,11.8383398 20.5096377,12.1964063 20.2694203,12.3969727 C20.027971,12.5963086 19.6707246,12.5643164 19.4699275,12.324375 L18.3797101,11.0176172 C18.3797101,11.0176172 17.5087681,11.7485156 17.5075362,11.7435937 C16.5478986,12.4744922 15.0918116,12.3895898 14.3107971,11.4544336 L12.1303623,8.84214844 C11.3271739,7.87992187 11.4577536,6.45134766 12.4198551,5.64908203 L14.1642029,4.19712891 C11.571087,1.09265625 7.46152174,0.922851562 4.57275362,3.32964844 C1.68398551,5.73521484 1.2823913,10.0086328 3.70427536,12.9088477 L5.4473913,11.4568945 C6.40949275,10.6558594 7.84094203,10.7850586 8.64413043,11.7460547 L10.8245652,14.3583398 C11.6043478,15.2934961 11.4269565,16.7380664 10.5350725,17.5526367 C10.5387681,17.5538672 8.79072464,19.0045898 8.79072464,19.0045898 C7.82862319,19.805625 6.39717391,19.6764258 5.59521739,18.7141992 L3.41355072,16.1031445 C2.86782609,15.4485352 2.76434783,14.5822852 3.04891304,13.839082 C2.9134058,13.7025 2.77543478,13.5683789 2.64978261,13.4170312 C-0.0578985507,10.1710547 0.475507246,5.26517578 3.84594203,2.45847656 Z M16.5257246,7.02720703 C17.2463768,7.88853516 17.7686957,8.82492188 18.1123913,9.76253906 L18.5238406,9.42046875 C19.0055072,9.02056641 19.0707971,8.30443359 18.6692029,7.82332031 L16.4887681,5.21226562 C16.0871739,4.73238281 15.3714493,4.66716797 14.8897826,5.06707031 L14.6163043,5.2959375 C15.2963043,5.76228516 15.9467391,6.33445312 16.5257246,7.02720703 Z M15.182971,10.728457 C15.4071739,10.9979297 15.7299275,11.1357422 16.0551449,11.1357422 C16.3113768,11.1357422 16.5688406,11.0496094 16.7819565,10.8736523 L17.1613768,10.5574219 C16.8731159,9.5878125 16.3815942,8.623125 15.6535507,7.75318359 C15.0721014,7.05550781 14.4019565,6.496875 13.696087,6.06375 L13.1466667,6.52025391 C12.6662319,6.92015625 12.600942,7.63628906 13.0025362,8.11740234 L15.182971,10.728457 Z M6.93673913,15.0129492 C7.66478261,15.8841211 8.52586957,16.5411914 9.4276087,16.9989258 L9.80826087,16.6814648 C10.2886957,16.2815625 10.3539855,15.5641992 9.9523913,15.0843164 L7.77195652,12.4732617 C7.37036232,11.9921484 6.65463768,11.9281641 6.17297101,12.3280664 L5.62601449,12.7845703 C5.9265942,13.5573047 6.35528986,14.3152734 6.93673913,15.0129492 Z M6.46615942,17.9894531 C6.69036232,18.2576953 7.01311594,18.3955078 7.33833333,18.3955078 C7.59456522,18.3955078 7.85326087,18.309375 8.06514493,18.133418 L8.4765942,17.7901172 C7.61427536,17.2819336 6.78644928,16.6027148 6.0657971,15.7401562 C5.48681159,15.0449414 5.04086957,14.3029688 4.70456522,13.5523828 L4.43108696,13.78125 C3.94942029,14.1799219 3.88413043,14.8960547 4.28572464,15.3759375 L6.46615942,17.9894531 Z" id="path-15"></path>
    </defs>
    <g id="Page-1" stroke="none" stroke-width="1" fill="none" fill-rule="evenodd">
        <g id="Desktop-HD-Copy-7">
            <path d="M956,195 L162.468247,639.140907" id="Line" stroke="#DEDEDE" stroke-width="3" stroke-linecap="round" stroke-dasharray="10,15"></path>
            <path d="M998,1094 L213.194417,1533.25686" id="Line-Copy" stroke="#DEDEDE" stroke-width="3" stroke-linecap="round" stroke-dasharray="10,15"></path>
            <path d="M984.834633,629.5 L184.5,1085.99442" id="Line" stroke="#DEDEDE" stroke-width="3" stroke-linecap="round" stroke-dasharray="10,15" transform="translate(584.667316, 857.747209) scale(-1, 1) translate(-584.667316, -857.747209) "></path>
            <g id="Page-1" transform="translate(722.000000, 53.000000)">
                <path d="M110.566902,83.3568671 C110.566902,109.615906 89.3181787,130.904448 63.1082562,130.904448 C36.8983337,130.904448 15.6496106,109.615906 15.6496106,83.3568671 C15.6496106,57.0978288 36.8983337,35.8092867 63.1082562,35.8092867 C89.3181787,35.8092867 110.566902,57.0978288 110.566902,83.3568671 Z" id="Fill-1" fill="#F0F1F9"></path>
                <path d="M90.1379956,59.3009231 L100.347674,59.3009231 C100.347674,59.3009231 102.032908,67.3568671 94.8742949,75.4799441 C90.2228715,80.7588252 76.7544044,79.2080559 68.0702584,79.2886154 C63.7940759,79.3277762 60.3163971,75.396028 60.3163971,70.5434406 L60.3163971,59.3009231 L83.4741197,59.3009231" id="Fill-3" fill="#1E90FF"></path>
                <path d="M54.8572007,75.5076923 C52.3522445,79.0455944 49.4608796,78.2433566 49.4608796,78.2433566 C49.4608796,78.2433566 48.2201277,67.8075524 50.6848796,63.0467133 C53.1295292,58.325035 56.7937117,59.4081119 56.7937117,59.4081119 C56.7937117,59.4081119 57.8211569,71.3208392 54.8572007,75.5076923" id="Fill-5" fill="#1E90FF"></path>
                <path d="M46.9148255,79.4407832 L46.9148255,98.2234406 C46.9148255,110.095888 58.9147161,119.720503 73.7177453,119.720503 C88.5207745,119.720503 100.520665,110.095888 100.520665,98.2234406 L100.20238,70.4897343" id="Stroke-7" stroke="#333366" stroke-width="1.886" stroke-linecap="round"></path>
                <path d="M54.0538949,76.0961119 C50.5952015,80.0066014 46.6026832,79.1204476 46.6026832,79.1204476 C46.6026832,79.1204476 43.9436102,68.2516364 48.2923839,62.3226853 C51.9688511,57.3112168 56.7286029,58.3003077 56.7286029,58.3003077 C56.7286029,58.3003077 58.1458073,71.4684196 54.0538949,76.0961119 Z" id="Stroke-9" stroke="#333366" stroke-width="1.998"></path>
                <path d="M90.9564898,58.2438042 L102.593424,58.2438042 C102.593424,58.2438042 104.33338,66.0144336 96.3550445,75.5652028 C91.3697015,81.5344336 75.7022781,79.5562517 65.8041832,79.6424056 C60.9294022,79.686042 56.9659204,75.4756923 56.9659204,70.2807273 L56.9659204,58.2438042 L82.6520518,58.2438042" id="Stroke-11" stroke="#333366" stroke-width="1.939" stroke-linecap="round"></path>
                <path d="M87.8591891,58.5578741 C87.8591891,59.3824895 87.1913496,60.0515804 86.3682766,60.0515804 C85.5440869,60.0515804 84.8762474,59.3824895 84.8762474,58.5578741 C84.8762474,57.7321399 85.5440869,57.063049 86.3682766,57.063049 C87.1913496,57.063049 87.8591891,57.7321399 87.8591891,58.5578741" id="Fill-13" fill="#333366"></path>
                <path d="M64.957881,96.0491189 C64.957881,97.9993287 63.3798591,99.5803077 61.4332971,99.5803077 C59.486735,99.5803077 57.9087131,97.9993287 57.9087131,96.0491189 C57.9087131,94.0989091 59.486735,92.5179301 61.4332971,92.5179301 C63.3798591,92.5179301 64.957881,94.0989091 64.957881,96.0491189" id="Fill-15" fill="#333366"></path>
                <path d="M64.957881,96.0491189 C64.957881,97.9993287 63.3798591,99.5803077 61.4332971,99.5803077 C59.486735,99.5803077 57.9087131,97.9993287 57.9087131,96.0491189 C57.9087131,94.0989091 59.486735,92.5179301 61.4332971,92.5179301 C63.3798591,92.5179301 64.957881,94.0989091 64.957881,96.0491189 Z" id="Stroke-17" stroke="#FFFFFF" stroke-width="0.478" stroke-linecap="round"></path>
                <path d="M66.912819,107.972252 C67.9871693,109.926937 70.8740672,111.328895 74.2758044,111.328895 C77.6786584,111.328895 80.5655562,109.926937 81.6399066,107.972252" id="Stroke-19" stroke="#333366" stroke-width="2" stroke-linecap="round"></path>
                <path d="M89.6139985,96.1366154 C89.6139985,98.0868252 88.0359766,99.6678042 86.0894146,99.6678042 C84.1428526,99.6678042 82.5648307,98.0868252 82.5648307,96.1366154 C82.5648307,94.1864056 84.1428526,92.6054266 86.0894146,92.6054266 C88.0359766,92.6054266 89.6139985,94.1864056 89.6139985,96.1366154" id="Fill-21" fill="#333366"></path>
                <path d="M89.6139985,96.1366154 C89.6139985,98.0868252 88.0359766,99.6678042 86.0894146,99.6678042 C84.1428526,99.6678042 82.5648307,98.0868252 82.5648307,96.1366154 C82.5648307,94.1864056 84.1428526,92.6054266 86.0894146,92.6054266 C88.0359766,92.6054266 89.6139985,94.1864056 89.6139985,96.1366154 Z" id="Stroke-23" stroke="#FFFFFF" stroke-width="0.478" stroke-linecap="round"></path>
                <path d="M45.7980372,85.0636084 C43.2997818,85.2616503 41.3308839,87.4311608 41.3308839,90.084028 C41.3308839,92.7368951 43.2997818,94.9064056 45.7980372,95.1055664" id="Stroke-25" stroke="#333366" stroke-width="2.309" stroke-linecap="round"></path>
                <path d="M101.637453,95.1051189 C104.135709,94.905958 106.104607,92.7375664 106.104607,90.0846993 C106.104607,87.4318322 104.135709,85.2623217 101.637453,85.0631608" id="Stroke-27" stroke="#333366" stroke-width="2.309" stroke-linecap="round"></path>
                <path d="M435.180357,22.7536783 C435.180357,23.5782937 434.512518,24.2473846 433.689445,24.2473846 C432.865255,24.2473846 432.197415,23.5782937 432.197415,22.7536783 C432.197415,21.9279441 432.865255,21.2588531 433.689445,21.2588531 C434.512518,21.2588531 435.180357,21.9279441 435.180357,22.7536783" id="Fill-29" fill="#FFECBC"></path>
                <path d="M21.9686781,110.026406 C21.9686781,110.851021 21.3008387,111.520112 20.4777657,111.520112 C19.6535759,111.520112 18.9857365,110.851021 18.9857365,110.026406 C18.9857365,109.200671 19.6535759,108.53158 20.4777657,108.53158 C21.3008387,108.53158 21.9686781,109.200671 21.9686781,110.026406" id="Fill-31" fill="#FFECBC"></path>
                <path d="M436.297145,140.236196 C436.297145,141.060811 435.629306,141.731021 434.806233,141.731021 C433.982043,141.731021 433.314204,141.060811 433.314204,140.236196 C433.314204,139.410462 433.982043,138.741371 434.806233,138.741371 C435.629306,138.741371 436.297145,139.410462 436.297145,140.236196" id="Fill-33" fill="#FFECBC"></path>
                <path d="M15.2679482,68.6278042 C15.2679482,69.4524196 14.6001088,70.1215105 13.7770358,70.1215105 C12.952846,70.1215105 12.2850066,69.4524196 12.2850066,68.6278042 C12.2850066,67.8020699 12.952846,67.132979 13.7770358,67.132979 C14.6001088,67.132979 15.2679482,67.8020699 15.2679482,68.6278042" id="Fill-35" fill="#5F609E"></path>
                <path d="M2.98327664,91.0054266 C2.98327664,91.830042 2.31543723,92.4991329 1.49236423,92.4991329 C0.668174453,92.4991329 0.000335036496,91.830042 0.000335036496,91.0054266 C0.000335036496,90.1796923 0.668174453,89.5106014 1.49236423,89.5106014 C2.31543723,89.5106014 2.98327664,90.1796923 2.98327664,91.0054266" id="Fill-37" fill="#6AD7E5"></path>
                <path d="M407.462899,38.064 C407.462899,44.0142098 402.647308,48.8388252 396.709345,48.8388252 C390.769147,48.8388252 385.954673,44.0142098 385.954673,38.064 C385.954673,32.1137902 390.769147,27.2902937 396.709345,27.2902937 C402.647308,27.2902937 407.462899,32.1137902 407.462899,38.064" id="Fill-39" fill="#F0F1F9"></path>
                <path d="M403.379698,30.2837483 C405.478143,32.4264056 406.773618,35.3623497 406.773618,38.6015105 C406.773618,45.1592727 401.466639,50.4761958 394.921143,50.4761958 C388.37453,50.4761958 383.068669,45.1592727 383.068669,38.6015105 C383.068669,32.0437483 388.37453,26.7268252 394.921143,26.7268252 C395.738632,26.7268252 396.538253,26.8096224 397.308836,26.9685035" id="Stroke-41" stroke="#333366" stroke-width="1.464" stroke-linecap="round"></path>
                <path d="M401.593283,28.6398881 C401.593283,29.2440839 401.10413,29.7341538 400.501064,29.7341538 C399.897999,29.7341538 399.408845,29.2440839 399.408845,28.6398881 C399.408845,28.0356923 399.897999,27.5456224 400.501064,27.5456224 C401.10413,27.5456224 401.593283,28.0356923 401.593283,28.6398881" id="Fill-43" fill="#333366"></path>
                <path d="M391.242219,36.4260699 C391.242219,37.3312448 390.510723,38.0641119 389.607241,38.0641119 C388.704876,38.0641119 387.972263,37.3312448 387.972263,36.4260699 C387.972263,35.522014 388.704876,34.788028 389.607241,34.788028 C390.510723,34.788028 391.242219,35.522014 391.242219,36.4260699" id="Fill-45" fill="#333366"></path>
                <path d="M391.242219,42.6963916 C391.778277,44.1263217 393.221168,45.1534545 394.92092,45.1534545 C396.620672,45.1534545 398.062445,44.1263217 398.598504,42.6963916" id="Stroke-47" stroke="#333366" stroke-width="1.209" stroke-linecap="round"></path>
                <path d="M401.178843,36.4900699 C401.178843,37.4299301 400.41831,38.1918881 399.480208,38.1918881 C398.542106,38.1918881 397.781573,37.4299301 397.781573,36.4900699 C397.781573,35.5502098 398.542106,34.7882517 399.480208,34.7882517 C400.41831,34.7882517 401.178843,35.5502098 401.178843,36.4900699" id="Fill-49" fill="#333366"></path>
                <path d="M470.003045,45.8961678 C470.003045,51.8463776 465.187454,56.670993 459.249491,56.670993 C453.309293,56.670993 448.494819,51.8463776 448.494819,45.8961678 C448.494819,39.945958 453.309293,35.1224615 459.249491,35.1224615 C465.187454,35.1224615 470.003045,39.945958 470.003045,45.8961678" id="Fill-51" fill="#78BCFF"></path>
                <path d="M465.919844,38.1159161 C468.018289,40.2585734 469.313764,43.1945175 469.313764,46.4336783 C469.313764,52.9914406 464.006785,58.3083636 457.461289,58.3083636 C450.914676,58.3083636 445.608815,52.9914406 445.608815,46.4336783 C445.608815,39.8759161 450.914676,34.558993 457.461289,34.558993 C458.278778,34.558993 459.078399,34.6417902 459.848982,34.8006713" id="Stroke-53" stroke="#333366" stroke-width="1.464" stroke-linecap="round"></path>
                <path d="M464.133429,36.4720559 C464.133429,37.0762517 463.644276,37.5663217 463.04121,37.5663217 C462.438145,37.5663217 461.948991,37.0762517 461.948991,36.4720559 C461.948991,35.8678601 462.438145,35.3777902 463.04121,35.3777902 C463.644276,35.3777902 464.133429,35.8678601 464.133429,36.4720559" id="Fill-55" fill="#333366"></path>
                <path d="M453.782365,44.2582378 C453.782365,45.1634126 453.050869,45.8962797 452.147387,45.8962797 C451.245022,45.8962797 450.512409,45.1634126 450.512409,44.2582378 C450.512409,43.3541818 451.245022,42.6201958 452.147387,42.6201958 C453.050869,42.6201958 453.782365,43.3541818 453.782365,44.2582378" id="Fill-57" fill="#333366"></path>
                <path d="M453.782365,50.5285594 C454.318423,51.9584895 455.761314,52.9856224 457.461066,52.9856224 C459.160818,52.9856224 460.602591,51.9584895 461.13865,50.5285594" id="Stroke-59" stroke="#333366" stroke-width="1.209" stroke-linecap="round"></path>
                <path d="M463.718989,44.3222378 C463.718989,45.2620979 462.958456,46.0240559 462.020354,46.0240559 C461.082252,46.0240559 460.321719,45.2620979 460.321719,44.3222378 C460.321719,43.3823776 461.082252,42.6204196 462.020354,42.6204196 C462.958456,42.6204196 463.718989,43.3823776 463.718989,44.3222378" id="Fill-61" fill="#333366"></path>
                <path d="M435.122507,50.5803636 C435.122507,54.2245594 432.174186,57.1784056 428.536807,57.1784056 C424.89831,57.1784056 421.949989,54.2245594 421.949989,50.5803636 C421.949989,46.9361678 424.89831,43.9812028 428.536807,43.9812028 C432.174186,43.9812028 435.122507,46.9361678 435.122507,50.5803636" id="Fill-63" fill="#F0F1F9"></path>
                <path d="M432.622242,45.8152727 C433.907665,47.1266014 434.700585,48.9257622 434.700585,50.9095385 C434.700585,54.9263217 431.450731,58.1822657 427.441461,58.1822657 C423.432191,58.1822657 420.182336,54.9263217 420.182336,50.9095385 C420.182336,46.8927552 423.432191,43.6368112 427.441461,43.6368112 C427.942899,43.6368112 428.432052,43.6871608 428.904453,43.7845035" id="Stroke-65" stroke="#333366" stroke-width="0.897" stroke-linecap="round"></path>
                <path d="M431.527901,44.8079441 C431.527901,45.1782937 431.228601,45.4781538 430.858945,45.4781538 C430.489288,45.4781538 430.189988,45.1782937 430.189988,44.8079441 C430.189988,44.4375944 430.489288,44.1377343 430.858945,44.1377343 C431.228601,44.1377343 431.527901,44.4375944 431.527901,44.8079441" id="Fill-67" fill="#333366"></path>
                <path d="M425.188117,49.5768392 C425.188117,50.1306853 424.740285,50.5804755 424.187474,50.5804755 C423.633547,50.5804755 423.185715,50.1306853 423.185715,49.5768392 C423.185715,49.022993 423.633547,48.5743217 424.187474,48.5743217 C424.740285,48.5743217 425.188117,49.022993 425.188117,49.5768392" id="Fill-69" fill="#333366"></path>
                <path d="M425.188117,53.416951 C425.516453,54.293035 426.399832,54.9218462 427.441796,54.9218462 C428.482642,54.9218462 429.364905,54.293035 429.694358,53.416951" id="Stroke-71" stroke="#333366" stroke-width="0.741" stroke-linecap="round"></path>
                <path d="M431.274278,49.6161119 C431.274278,50.1923357 430.808577,50.6589091 430.233431,50.6589091 C429.659402,50.6589091 429.193701,50.1923357 429.193701,49.6161119 C429.193701,49.0398881 429.659402,48.5733147 430.233431,48.5733147 C430.808577,48.5733147 431.274278,49.0398881 431.274278,49.6161119" id="Fill-73" fill="#333366"></path>
                <path d="M503.31148,51.5976503 C503.31148,56.362965 499.45521,60.2264615 494.698809,60.2264615 C489.942407,60.2264615 486.086137,56.362965 486.086137,51.5976503 C486.086137,46.8323357 489.942407,42.9688392 494.698809,42.9688392 C499.45521,42.9688392 503.31148,46.8323357 503.31148,51.5976503" id="Fill-75" fill="#F0F1F9"></path>
                <path d="M500.041859,45.3668252 C501.722626,47.0820699 502.760122,49.433958 502.760122,52.0286434 C502.760122,57.2806713 498.509626,61.5391329 493.267421,61.5391329 C488.0241,61.5391329 483.77472,57.2806713 483.77472,52.0286434 C483.77472,46.7754965 488.0241,42.5181538 493.267421,42.5181538 C493.921859,42.5181538 494.561779,42.5841678 495.179363,42.7106014" id="Stroke-77" stroke="#333366" stroke-width="1.172" stroke-linecap="round"></path>
                <path d="M498.61036,44.0495664 C498.61036,44.534042 498.218367,44.9256503 497.735915,44.9256503 C497.253462,44.9256503 496.861469,44.534042 496.861469,44.0495664 C496.861469,43.5662098 497.253462,43.1734825 497.735915,43.1734825 C498.218367,43.1734825 498.61036,43.5662098 498.61036,44.0495664" id="Fill-79" fill="#333366"></path>
                <path d="M490.320664,50.285986 C490.320664,51.0099021 489.73435,51.5973147 489.011788,51.5973147 C488.288109,51.5973147 487.701795,51.0099021 487.701795,50.285986 C487.701795,49.5620699 488.288109,48.9746573 489.011788,48.9746573 C489.73435,48.9746573 490.320664,49.5620699 490.320664,50.285986" id="Fill-81" fill="#333366"></path>
                <path d="M490.320664,55.3077483 C490.750627,56.4534825 491.905386,57.2747413 493.266751,57.2747413 C494.628116,57.2747413 495.782875,56.4534825 496.212839,55.3077483" id="Stroke-83" stroke="#333366" stroke-width="0.969" stroke-linecap="round"></path>
                <path d="M498.278897,50.3373427 C498.278897,51.0903497 497.670247,51.7001399 496.918649,51.7001399 C496.16705,51.7001399 495.557284,51.0903497 495.557284,50.3373427 C495.557284,49.5843357 496.16705,48.9745455 496.918649,48.9745455 C497.670247,48.9745455 498.278897,49.5843357 498.278897,50.3373427" id="Fill-85" fill="#333366"></path>
                <path d="M531.600957,56.105958 C531.600957,60.5076364 528.039519,64.0757483 523.647191,64.0757483 C519.253745,64.0757483 515.692307,60.5076364 515.692307,56.105958 C515.692307,51.7053986 519.253745,48.1372867 523.647191,48.1372867 C528.039519,48.1372867 531.600957,51.7053986 531.600957,56.105958" id="Fill-87" fill="#F0F1F9"></path>
                <path d="M528.58105,50.3514406 C530.133385,51.9368951 531.09159,54.1075245 531.09159,56.5041678 C531.09159,61.3545175 527.166079,65.2862657 522.323685,65.2862657 C517.482407,65.2862657 513.558013,61.3545175 513.558013,56.5041678 C513.558013,51.6526993 517.482407,47.720951 522.323685,47.720951 C522.928984,47.720951 523.520882,47.7824895 524.090444,47.8988531" id="Stroke-89" stroke="#333366" stroke-width="1.083" stroke-linecap="round"></path>
                <path d="M527.259219,49.1353287 C527.259219,49.5817622 526.89738,49.9442797 526.451781,49.9442797 C526.006182,49.9442797 525.644343,49.5817622 525.644343,49.1353287 C525.644343,48.6888951 526.006182,48.3263776 526.451781,48.3263776 C526.89738,48.3263776 527.259219,48.6888951 527.259219,49.1353287" id="Fill-91" fill="#333366"></path>
                <path d="M519.603635,54.8947692 C519.603635,55.5638601 519.061993,56.1065175 518.394153,56.1065175 C517.726314,56.1065175 517.184672,55.5638601 517.184672,54.8947692 C517.184672,54.2256783 517.726314,53.683021 518.394153,53.683021 C519.061993,53.683021 519.603635,54.2256783 519.603635,54.8947692" id="Fill-93" fill="#333366"></path>
                <path d="M519.603635,59.5325315 C520.000095,60.5898741 521.067745,61.3495944 522.324131,61.3495944 C523.581635,61.3495944 524.648168,60.5898741 525.044628,59.5325315" id="Stroke-95" stroke="#333366" stroke-width="0.895" stroke-linecap="round"></path>
                <path d="M526.953219,54.9423217 C526.953219,55.6371469 526.390358,56.2010629 525.696832,56.2010629 C525.00219,56.2010629 524.440445,55.6371469 524.440445,54.9423217 C524.440445,54.2463776 525.00219,53.6835804 525.696832,53.6835804 C526.390358,53.6835804 526.953219,54.2463776 526.953219,54.9423217" id="Fill-97" fill="#333366"></path>
                <path d="M610.892928,96.224 C610.892928,106.110434 547.1433,114.126098 468.502417,114.126098 C389.861534,114.126098 326.111906,106.110434 326.111906,96.224 C326.111906,86.3375664 389.861534,78.3219021 468.502417,78.3219021 C547.1433,78.3219021 610.892928,86.3375664 610.892928,96.224" id="Fill-99" fill="#F0F1F9"></path>
                <path d="M234.420681,18.345958 C234.420681,24.152951 229.722353,28.8600839 223.926221,28.8600839 C218.131207,28.8600839 213.432878,24.152951 213.432878,18.345958 C213.432878,12.5400839 218.131207,7.83295105 223.926221,7.83295105 C229.722353,7.83295105 234.420681,12.5400839 234.420681,18.345958" id="Fill-101" fill="#A5D3FF"></path>
                <path d="M229.903942,7.72475524 C232.729417,10.0151049 234.535264,13.5183217 234.535264,17.4433566 C234.535264,24.3446154 228.950205,29.939021 222.062972,29.939021 C215.173504,29.939021 209.589563,24.3446154 209.589563,17.4433566 C209.589563,10.5420979 215.173504,4.94657343 222.062972,4.94657343" id="Stroke-103" stroke="#333366" stroke-width="2" stroke-linecap="round"></path>
                <path d="M212.523924,26.2638322 L202.251705,35.0850909" id="Stroke-105" stroke="#333366" stroke-width="2"></path>
                <path d="M192.445745,44.6915804 L192.274877,44.5058462 C191.541147,43.7092028 191.591402,42.4549371 192.386555,41.7198322 L199.738373,34.9226294 C200.533526,34.1864056 201.785446,34.2378741 202.520293,35.0345175 L202.690045,35.2202517 C203.424891,36.0168951 203.374636,37.2711608 202.579482,38.0062657 L195.227665,44.8034685 C194.432512,45.5396923 193.180592,45.4882238 192.445745,44.6915804 Z" id="Stroke-107" stroke="#333366" stroke-width="2"></path>
                <path d="M227.462085,5.92839161 C227.462085,6.75412587 226.794245,7.4220979 225.971172,7.4220979 C225.146982,7.4220979 224.479143,6.75412587 224.479143,5.92839161 C224.479143,5.10377622 225.146982,4.43468531 225.971172,4.43468531 C226.794245,4.43468531 227.462085,5.10377622 227.462085,5.92839161" id="Fill-109" fill="#333366"></path>
                <path d="M394.235993,53.7065175 L394.235993,55.3848392" id="Stroke-111" stroke="#E6E6E6" stroke-width="2" stroke-linecap="round"></path>
                <path d="M394.235993,63.7971469 L394.235993,83.625958" id="Stroke-113" stroke="#E6E6E6" stroke-width="2" stroke-linecap="round" stroke-dasharray="3.222,7.519"></path>
                <path d="M394.235993,87.8323916 L394.235993,89.5107133" id="Stroke-115" stroke="#E6E6E6" stroke-width="2" stroke-linecap="round"></path>
                <path d="M427.739643,61.5386853 L427.739643,63.217007" id="Stroke-117" stroke="#E6E6E6" stroke-width="2" stroke-linecap="round"></path>
                <path d="M427.739643,70.1275524 L427.739643,76.5443357" id="Stroke-119" stroke="#E6E6E6" stroke-width="2" stroke-linecap="round" stroke-dasharray="2.647,6.176"></path>
                <path d="M427.739643,80.0002238 L427.739643,81.6785455" id="Stroke-121" stroke="#E6E6E6" stroke-width="2" stroke-linecap="round"></path>
                <path d="M457.892928,61.5386853 L457.892928,63.217007" id="Stroke-123" stroke="#333366" stroke-width="2" stroke-linecap="round"></path>
                <path d="M457.892928,70.4143217 L457.892928,97.6601958" id="Stroke-125" stroke="#333366" stroke-width="2" stroke-linecap="round" stroke-dasharray="2.757,6.432"></path>
                <path d="M457.892928,101.258965 L457.892928,102.937287" id="Stroke-127" stroke="#333366" stroke-width="2" stroke-linecap="round"></path>
                <path d="M522.66665,68.251972 L522.66665,69.9302937" id="Stroke-129" stroke="#E6E6E6" stroke-width="2" stroke-linecap="round"></path>
                <path d="M522.66665,74.5375105 L522.66665,78.8161119" id="Stroke-131" stroke="#E6E6E6" stroke-width="2" stroke-linecap="round" stroke-dasharray="1.765,4.118"></path>
                <path d="M522.66665,81.1191049 L522.66665,82.7974266" id="Stroke-133" stroke="#E6E6E6" stroke-width="2" stroke-linecap="round"></path>
                <path d="M493.630154,66.0142098 L493.630154,67.6925315" id="Stroke-135" stroke="#E6E6E6" stroke-width="2" stroke-linecap="round"></path>
                <path d="M493.630154,74.9444476 L493.630154,92.0387133" id="Stroke-137" stroke="#E6E6E6" stroke-width="2" stroke-linecap="round" stroke-dasharray="2.778,6.481"></path>
                <path d="M493.630154,95.6645594 L493.630154,97.3428811" id="Stroke-139" stroke="#E6E6E6" stroke-width="2" stroke-linecap="round"></path>
                <mask id="mask-2" fill="white">
                    <use xlink:href="#path-1"></use>
                </mask>
                <g id="Clip-142"></g>
                <polygon id="Fill-141" fill="#A5D3FF" mask="url(#mask-2)" points="204.912788 157.733147 235.652387 157.733147 235.652387 129.45007 204.912788 129.45007"></polygon>
                <path d="M226.921112,129.605706 C226.921112,130.478434 226.215302,131.186685 225.344207,131.186685 C224.473112,131.186685 223.767302,130.478434 223.767302,129.605706 C223.767302,128.732979 224.473112,128.025846 225.344207,128.025846 C226.215302,128.025846 226.921112,128.732979 226.921112,129.605706" id="Fill-143" fill="#333366" mask="url(#mask-2)"></path>
                <path d="M211.969885,140.853594 C211.969885,142.160448 210.913404,143.218909 209.608995,143.218909 C208.304586,143.218909 207.246988,142.160448 207.246988,140.853594 C207.246988,139.546741 208.304586,138.48828 209.608995,138.48828 C210.913404,138.48828 211.969885,139.546741 211.969885,140.853594" id="Fill-144" fill="#333366" mask="url(#mask-2)"></path>
                <path d="M211.969885,149.910601 C212.744936,151.977175 214.828864,153.458573 217.283564,153.458573 C219.738265,153.458573 221.821075,151.977175 222.597243,149.910601" id="Stroke-145" stroke="#333366" stroke-width="1.747" stroke-linecap="round" mask="url(#mask-2)"></path>
                <path d="M226.323407,140.945343 C226.323407,142.303664 225.224488,143.403524 223.869823,143.403524 C222.514042,143.403524 221.415123,142.303664 221.415123,140.945343 C221.415123,139.58814 222.514042,138.48828 223.869823,138.48828 C225.224488,138.48828 226.323407,139.58814 226.323407,140.945343" id="Fill-146" fill="#333366" mask="url(#mask-2)"></path>
                <polyline id="Stroke-147" stroke="#333366" stroke-width="2" stroke-linecap="round" stroke-linejoin="round" mask="url(#mask-2)" points="230.422467 129.45007 234.844949 129.45007 234.844949 158.540979 199.356766 158.540979 199.356766 129.45007 221.415569 129.45007"></polyline>
                <path d="M136.257891,71.6086154 L136.816285,71.6086154" id="Stroke-148" stroke="#333366" stroke-width="0.5" stroke-linecap="round" mask="url(#mask-2)"></path>
                <path d="M141.283439,71.6086154 L306.56811,71.6086154" id="Stroke-149" stroke="#333366" stroke-width="0.5" stroke-linecap="round" stroke-dasharray="1,4" mask="url(#mask-2)"></path>
                <path d="M308.801687,71.6086154 L309.360081,71.6086154" id="Stroke-150" stroke="#333366" stroke-width="0.5" stroke-linecap="round" mask="url(#mask-2)"></path>
                <path d="M137.37468,99.5806434 L137.933074,99.5806434" id="Stroke-151" stroke="#333366" stroke-width="0.5" stroke-linecap="round" mask="url(#mask-2)"></path>
                <path d="M142.400227,99.5806434 L307.684899,99.5806434" id="Stroke-152" stroke="#333366" stroke-width="0.5" stroke-linecap="round" stroke-dasharray="1,4" mask="url(#mask-2)"></path>
                <path d="M309.918475,99.5806434 L310.476869,99.5806434" id="Stroke-153" stroke="#333366" stroke-width="0.5" stroke-linecap="round" mask="url(#mask-2)"></path>
                <path d="M465.333642,146.949483 C465.333642,147.774098 464.665802,148.444308 463.842729,148.444308 C463.018539,148.444308 462.3507,147.774098 462.3507,146.949483 C462.3507,146.123748 463.018539,145.454657 463.842729,145.454657 C464.665802,145.454657 465.333642,146.123748 465.333642,146.949483" id="Fill-154" fill="#6AD7E5" mask="url(#mask-2)"></path>
                <path d="M498.837291,135.760671 C498.837291,136.585287 498.169452,137.255497 497.346379,137.255497 C496.522189,137.255497 495.85435,136.585287 495.85435,135.760671 C495.85435,134.934937 496.522189,134.265846 497.346379,134.265846 C498.169452,134.265846 498.837291,134.934937 498.837291,135.760671" id="Fill-155" fill="#5F609E" mask="url(#mask-2)"></path>
                <path d="M454.165758,1.49493706 C454.165758,2.31955245 453.497919,2.98864336 452.674846,2.98864336 C451.850656,2.98864336 451.182817,2.31955245 451.182817,1.49493706 C451.182817,0.669202797 451.850656,0.000111888112 452.674846,0.000111888112 C453.497919,0.000111888112 454.165758,0.669202797 454.165758,1.49493706" id="Fill-156" fill="#5F609E" mask="url(#mask-2)"></path>
                <path d="M521.173058,35.0613706 C521.173058,35.885986 520.505218,36.5550769 519.682145,36.5550769 C518.857955,36.5550769 518.190116,35.885986 518.190116,35.0613706 C518.190116,34.2356364 518.857955,33.5665455 519.682145,33.5665455 C520.505218,33.5665455 521.173058,34.2356364 521.173058,35.0613706" id="Fill-157" fill="#6AD7E5" mask="url(#mask-2)"></path>
                <path d="M119.129262,102.194238 C119.129262,103.018853 118.461423,103.687944 117.63835,103.687944 C116.81416,103.687944 116.14632,103.018853 116.14632,102.194238 C116.14632,101.368503 116.81416,100.699413 117.63835,100.699413 C118.461423,100.699413 119.129262,101.368503 119.129262,102.194238" id="Fill-158" fill="#6AD7E5" mask="url(#mask-2)"></path>
                <path d="M107.961379,46.2501818 C107.961379,47.0747972 107.293539,47.7438881 106.470466,47.7438881 C105.646277,47.7438881 104.978437,47.0747972 104.978437,46.2501818 C104.978437,45.4244476 105.646277,44.7553566 106.470466,44.7553566 C107.293539,44.7553566 107.961379,45.4244476 107.961379,46.2501818" id="Fill-159" fill="#FFECBC" mask="url(#mask-2)"></path>
            </g>
            <g id="Page-1" transform="translate(77.000000, 526.000000)">
                <g id="Group-9">
                    <path d="M196,98 C196,152.123119 152.124352,196 98,196 C43.8756478,196 0,152.123119 0,98 C0,43.8768805 43.8756478,0 98,0 C152.124352,0 196,43.8768805 196,98" id="Fill-1" fill="#F0F1F9"></path>
                    <path d="M51.5810365,67.6060704 C51.5810365,76.5629006 44.3204075,83.8235296 35.3635774,83.8235296 C26.4067472,83.8235296 19.1461182,76.5629006 19.1461182,67.6060704 C19.1461182,58.6492403 26.4067472,51.3886113 35.3635774,51.3886113 C44.3204075,51.3886113 51.5810365,58.6492403 51.5810365,67.6060704" id="Fill-3" fill="#A5D3FF"></path>
                    <path d="M46.6561358,55.8953786 C49.8217208,59.1201333 51.7730918,63.5393786 51.7730918,68.4147245 C51.7730918,78.2862214 43.7716075,86.2889384 33.898878,86.2889384 C24.0273811,86.2889384 16.0246642,78.2862214 16.0246642,68.4147245 C16.0246642,58.5432277 24.0273811,50.5405107 33.898878,50.5405107 C35.1328151,50.5405107 36.3384,50.6662465 37.502073,50.9041585" id="Stroke-5" stroke="#333366" stroke-width="1.184" stroke-linecap="round"></path>
                    <path d="M43.961444,53.4203547 C43.961444,54.3288579 43.2242868,55.0672478 42.3157836,55.0672478 C41.4060478,55.0672478 40.6688906,54.3288579 40.6688906,53.4203547 C40.6688906,52.5106189 41.4060478,51.7734616 42.3157836,51.7734616 C43.2242868,51.7734616 43.961444,52.5106189 43.961444,53.4203547" id="Fill-7" fill="#333366"></path>
                </g>
                <text id="$" font-family="ProximaNova-Bold, Proxima Nova" font-size="21" font-weight="bold" fill="#333366">
                    <tspan x="28.039834" y="71.9020104">$</tspan>
                </text>
                <g id="Group-54" transform="translate(35.515723, 49.308176)">
                    <path d="M118.408624,34.295439 C108.908171,37.8135774 103.882435,32.4759673 103.882435,32.4759673 C103.882435,32.4759673 111.842008,11.038005 124.902511,4.85352704 C135.941379,-0.371906918 142.007517,5.87174088 142.007517,5.87174088 C142.007517,5.87174088 129.650888,30.1325962 118.408624,34.295439" id="Fill-10" fill="#A5D3FF"></path>
                    <path d="M117.294506,34.6397333 C106.242078,37.8422994 99.8394113,31.4827774 99.8394113,31.4827774 C99.8394113,31.4827774 107.672015,8.11686541 122.76155,2.20851321 C135.513877,-2.78393962 143.226908,4.66899119 143.226908,4.66899119 C143.226908,4.66899119 130.372267,30.8528654 117.294506,34.6397333 Z" id="Stroke-12" stroke="#333366" stroke-width="1.323"></path>
                    <path d="M109.129072,35.4642893 C109.129072,35.4642893 116.961675,12.0983774 132.05121,6.19002516" id="Stroke-14" stroke="#333366" stroke-width="1.323" stroke-linecap="round"></path>
                    <path d="M111.47158,29.5222843 C111.47158,29.5222843 109.691555,20.2991899 113.892611,15.6050516" id="Stroke-16" stroke="#333366" stroke-width="1.323" stroke-linecap="round"></path>
                    <path d="M130.734435,13.9028101 C130.734435,13.9028101 124.257806,20.7073384 117.996901,20.0096277" id="Stroke-18" stroke="#333366" stroke-width="1.323" stroke-linecap="round"></path>
                    <path d="M79.9925006,61.6352201 L91.2618843,61.6352201 C91.2618843,61.6352201 93.1220352,70.5106918 85.2204,79.4601258 C80.0861862,85.2760252 65.2197711,83.5662642 55.6342616,83.6562516 C50.9142365,83.6993962 47.075595,79.367673 47.075595,74.021434 L47.075595,61.6352201 L72.6369535,61.6352201" id="Fill-20" fill="#1E90FF"></path>
                    <path d="M41.049766,79.4914365 C38.2848101,83.3892478 35.0933384,82.5053987 35.0933384,82.5053987 C35.0933384,82.5053987 33.7238038,71.0067321 36.4443824,65.7615748 C39.1427723,60.560795 43.1872755,61.7528201 43.1872755,61.7528201 C43.1872755,61.7528201 44.3213635,74.8786566 41.049766,79.4914365" id="Fill-22" fill="#1E90FF"></path>
                    <path d="M32.2830189,83.8238994 L32.2830189,104.517308 C32.2830189,117.597535 45.5284277,128.201258 61.8679245,128.201258 C78.2074214,128.201258 91.4528302,117.597535 91.4528302,104.517308 L91.1015094,73.9622642" id="Stroke-24" stroke="#333366" stroke-width="1.886" stroke-linecap="round"></path>
                    <path d="M40.163205,80.1389761 C36.3455195,84.447278 31.9386013,83.4709761 31.9386013,83.4709761 C31.9386013,83.4709761 29.0035321,71.4964855 33.803683,64.9643849 C37.8617459,59.4431019 43.1155321,60.5328126 43.1155321,60.5328126 C43.1155321,60.5328126 44.679834,75.0405107 40.163205,80.1389761 Z" id="Stroke-26" stroke="#333366" stroke-width="1.998"></path>
                    <path d="M80.8959497,60.4711774 L93.7407296,60.4711774 C93.7407296,60.4711774 95.661283,69.0310767 86.8548428,79.5534415 C81.3520503,86.1299195 64.0584403,83.9517308 53.1329811,84.0466491 C47.7522264,84.0934918 43.3773585,79.4548252 43.3773585,73.7313786 L43.3773585,60.4711774 L71.7295597,60.4711774" id="Stroke-28" stroke="#333366" stroke-width="1.939" stroke-linecap="round"></path>
                    <path d="M77.4771673,60.8165811 C77.4771673,61.7250843 76.7400101,62.4634742 75.8315069,62.4634742 C74.9217711,62.4634742 74.1846138,61.7250843 74.1846138,60.8165811 C74.1846138,59.9068453 74.9217711,59.1696881 75.8315069,59.1696881 C76.7400101,59.1696881 77.4771673,59.9068453 77.4771673,60.8165811" id="Fill-30" fill="#333366"></path>
                    <path d="M52.198961,102.121794 C52.198961,104.270397 50.4571497,106.012209 48.3085459,106.012209 C46.1599421,106.012209 44.4181308,104.270397 44.4181308,102.121794 C44.4181308,99.9731899 46.1599421,98.2313786 48.3085459,98.2313786 C50.4571497,98.2313786 52.198961,99.9731899 52.198961,102.121794" id="Fill-32" fill="#333366"></path>
                    <path d="M52.198961,102.121794 C52.198961,104.270397 50.4571497,106.012209 48.3085459,106.012209 C46.1599421,106.012209 44.4181308,104.270397 44.4181308,102.121794 C44.4181308,99.9731899 46.1599421,98.2313786 48.3085459,98.2313786 C50.4571497,98.2313786 52.198961,99.9731899 52.198961,102.121794 Z" id="Stroke-34" stroke="#FFFFFF" stroke-width="0.478" stroke-linecap="round"></path>
                    <path d="M54.3566868,115.257862 C55.5425484,117.411396 58.7290893,118.955975 62.4839069,118.955975 C66.2399572,118.955975 69.4264981,117.411396 70.6123597,115.257862" id="Stroke-36" stroke="#333366" stroke-width="2" stroke-linecap="round"></path>
                    <path d="M31.0503145,90.0187321 C28.2927547,90.2381535 26.1194969,92.6271346 26.1194969,95.5498767 C26.1194969,98.4726189 28.2927547,100.862833 31.0503145,101.082254" id="Stroke-38" stroke="#333366" stroke-width="2.309" stroke-linecap="round"></path>
                    <path d="M92.6855346,101.081761 C95.4430943,100.86234 97.6163522,98.4733585 97.6163522,95.5506164 C97.6163522,92.6278742 95.4430943,90.2376604 92.6855346,90.018239" id="Stroke-40" stroke="#333366" stroke-width="2.309" stroke-linecap="round"></path>
                    <path d="M24.470878,133.546141 C24.470878,134.454644 23.7337208,135.193034 22.8252176,135.193034 C21.9154818,135.193034 21.1783245,134.454644 21.1783245,133.546141 C21.1783245,132.636405 21.9154818,131.899248 22.8252176,131.899248 C23.7337208,131.899248 24.470878,132.636405 24.470878,133.546141" id="Fill-42" fill="#FFECBC"></path>
                    <path d="M29.4016956,50.9549459 C29.4016956,51.8634491 28.6645384,52.601839 27.7560352,52.601839 C26.8462994,52.601839 26.1091421,51.8634491 26.1091421,50.9549459 C26.1091421,50.0452101 26.8462994,49.3080528 27.7560352,49.3080528 C28.6645384,49.3080528 29.4016956,50.0452101 29.4016956,50.9549459" id="Fill-44" fill="#5F609E"></path>
                    <path d="M3.51490314,87.936078 C3.51490314,88.8445811 2.77774591,89.5829711 1.86924277,89.5829711 C0.959506918,89.5829711 0.222349686,88.8445811 0.222349686,87.936078 C0.222349686,87.0263421 0.959506918,86.2891849 1.86924277,86.2891849 C2.77774591,86.2891849 3.51490314,87.0263421 3.51490314,87.936078" id="Fill-46" fill="#6AD7E5"></path>
                    <path d="M105.829369,116.288279 C105.829369,117.196782 105.092211,117.935172 104.183708,117.935172 C103.273972,117.935172 102.536815,117.196782 102.536815,116.288279 C102.536815,115.378543 103.273972,114.641386 104.183708,114.641386 C105.092211,114.641386 105.829369,115.378543 105.829369,116.288279" id="Fill-48" fill="#6AD7E5"></path>
                    <path d="M105.829369,66.9801031 C105.829369,67.8886063 105.092211,68.6269962 104.183708,68.6269962 C103.273972,68.6269962 102.536815,67.8886063 102.536815,66.9801031 C102.536815,66.0703673 103.273972,65.3332101 104.183708,65.3332101 C105.092211,65.3332101 105.829369,66.0703673 105.829369,66.9801031" id="Fill-50" fill="#FFECBC"></path>
                    <polyline id="Stroke-52" stroke="#333366" stroke-width="2" stroke-linecap="round" stroke-linejoin="round" points="74.9816805 97.4980428 70.0952403 102.274772 76.6766491 104.117665"></polyline>
                </g>
            </g>
            <g id="Page-1" transform="translate(837.000000, 946.000000)">
                <g id="Group-29" transform="translate(78.333333, 68.691602)">
                    <path d="M153.261336,76.9202246 C153.261336,118.977888 119.12727,153.070464 77.0235072,153.070464 C34.919744,153.070464 0.785678571,118.977888 0.785678571,76.9202246 C0.785678571,34.8625611 34.919744,0.769985352 77.0235072,0.769985352 C119.12727,0.769985352 153.261336,34.8625611 153.261336,76.9202246" id="Fill-1" fill="#F0F1F9"></path>
                    <path d="M106.83892,50.4651465 L118.100804,50.4651465 C118.100804,50.4651465 119.959717,59.3245215 112.063341,68.2577246 C106.932543,74.0630762 92.0760217,72.356416 82.4968913,72.4462402 C77.7800072,72.4893066 73.9439203,68.1654395 73.9439203,62.8288965 L73.9439203,50.4651465 L99.4882681,50.4651465" id="Fill-3" fill="#1E90FF"></path>
                    <path d="M67.9221014,68.2888555 C65.1589855,72.1795977 61.9696377,71.2973516 61.9696377,71.2973516 C61.9696377,71.2973516 60.6010145,59.8195391 63.3197826,54.5838945 C66.0163768,49.3925469 70.0581884,50.5824102 70.0581884,50.5824102 C70.0581884,50.5824102 71.1915217,63.6844414 67.9221014,68.2888555" id="Fill-5" fill="#1E90FF"></path>
                    <path d="M59.1611884,72.613584 L59.1611884,93.2694629 C59.1611884,106.325967 72.3977826,116.910459 88.7264058,116.910459 C105.055029,116.910459 118.291623,106.325967 118.291623,93.2694629 L117.940536,62.769834" id="Stroke-7" stroke="#333366" stroke-width="1.886" stroke-linecap="round"></path>
                    <path d="M67.0361304,68.9353437 C63.2209855,73.235832 58.817,72.2613008 58.817,72.2613008 C58.817,72.2613008 55.8838841,60.3085273 60.6808406,53.7882734 C64.7362029,48.2770039 69.9864928,49.3647383 69.9864928,49.3647383 C69.9864928,49.3647383 71.5497536,63.846125 67.0361304,68.9353437 Z" id="Stroke-9" stroke="#333366" stroke-width="1.998"></path>
                    <path d="M107.741768,49.3030918 L120.578,49.3030918 C120.578,49.3030918 122.497275,57.8474668 113.696696,68.350748 C108.197565,74.9152988 90.9154638,72.7410605 79.9972754,72.8358066 C74.6201014,72.8825645 70.2481449,68.2523105 70.2481449,62.5392441 L70.2481449,49.3030918 L98.5814783,49.3030918" id="Stroke-11" stroke="#333366" stroke-width="1.939" stroke-linecap="round"></path>
                    <path d="M104.325261,49.6479922 C104.325261,50.5548477 103.588594,51.2918984 102.680696,51.2918984 C101.771565,51.2918984 101.034899,50.5548477 101.034899,49.6479922 C101.034899,48.7399062 101.771565,48.0040859 102.680696,48.0040859 C103.588594,48.0040859 104.325261,48.7399062 104.325261,49.6479922" id="Fill-13" fill="#333366"></path>
                    <path d="M79.0637536,90.878293 C79.0637536,93.023 77.3231014,94.7616523 75.1759275,94.7616523 C73.0287536,94.7616523 71.2881014,93.023 71.2881014,90.878293 C71.2881014,88.7335859 73.0287536,86.9949336 75.1759275,86.9949336 C77.3231014,86.9949336 79.0637536,88.7335859 79.0637536,90.878293" id="Fill-15" fill="#333366"></path>
                    <path d="M79.0637536,90.878293 C79.0637536,93.023 77.3231014,94.7616523 75.1759275,94.7616523 C73.0287536,94.7616523 71.2881014,93.023 71.2881014,90.878293 C71.2881014,88.7335859 73.0287536,86.9949336 75.1759275,86.9949336 C77.3231014,86.9949336 79.0637536,88.7335859 79.0637536,90.878293 Z" id="Stroke-17" stroke="#FFFFFF" stroke-width="0.478" stroke-linecap="round"></path>
                    <path d="M106.260797,90.9745156 C106.260797,93.1192227 104.520145,94.857875 102.372971,94.857875 C100.225797,94.857875 98.4851449,93.1192227 98.4851449,90.9745156 C98.4851449,88.8298086 100.225797,87.0911563 102.372971,87.0911563 C104.520145,87.0911563 106.260797,88.8298086 106.260797,90.9745156" id="Fill-19" fill="#333366"></path>
                    <path d="M106.260797,90.9745156 C106.260797,93.1192227 104.520145,94.857875 102.372971,94.857875 C100.225797,94.857875 98.4851449,93.1192227 98.4851449,90.9745156 C98.4851449,88.8298086 100.225797,87.0911563 102.372971,87.0911563 C104.520145,87.0911563 106.260797,88.8298086 106.260797,90.9745156 Z" id="Stroke-21" stroke="#FFFFFF" stroke-width="0.478" stroke-linecap="round"></path>
                    <path d="M57.9293043,78.7971816 C55.1735797,79.0162051 53.0017681,81.4008535 53.0017681,84.3182949 C53.0017681,87.2357363 55.1735797,89.6216152 57.9293043,89.8406387" id="Stroke-23" stroke="#333366" stroke-width="2.309" stroke-linecap="round"></path>
                    <path d="M119.523507,89.8401465 C122.279232,89.621123 124.451043,87.2364746 124.451043,84.3190332 C124.451043,81.4015918 122.279232,79.0157129 119.523507,78.7966895" id="Stroke-25" stroke="#333366" stroke-width="2.309" stroke-linecap="round"></path>
                    <path d="M80.1278551,101.57648 C80.1192319,101.719215 80.1032174,101.858258 80.1032174,102.003453 C80.1032174,106.472516 84.2398841,110.096246 89.3423478,110.096246 C94.4448116,110.096246 98.5814783,106.472516 98.5814783,102.003453 C98.5814783,101.858258 98.5654638,101.719215 98.5568406,101.57648 L80.1278551,101.57648 Z" id="Stroke-27" stroke="#333366" stroke-width="2" stroke-linecap="round" stroke-linejoin="round"></path>
                </g>
                <g id="Group-32" transform="translate(120.724638, 61.855664)">
                    <mask id="mask-4" fill="white">
                        <use xlink:href="#path-3"></use>
                    </mask>
                    <g id="Clip-31"></g>
                    <polygon id="Stroke-30" stroke="#A5D3FF" mask="url(#mask-4)" points="-4.75802899 21.0358477 -0.758101449 -3.32497266 23.6011739 0.6654375 19.6012464 25.0262578"></polygon>
                </g>
                <path d="M130.856268,65.4944062 C132.115254,67.2502852 131.994529,69.5586445 130.739239,71.1865547 L137.231268,80.2329609 C137.669819,80.8445039 137.529384,81.6972187 136.91837,82.1377266 C136.306123,82.5770039 135.454891,82.4379609 135.015109,81.8251875 L128.52308,72.7787812 C126.582862,73.4481562 124.360543,72.8255391 123.101558,71.0708906 C122.346413,70.0200703 122.111123,68.7686836 122.290978,67.5825117 C123.405833,69.0393867 125.477862,69.363 126.979529,68.2838789 C128.479964,67.2047578 128.835978,65.1363398 127.813514,63.6130195 C128.993659,63.8209687 130.102355,64.4435859 130.856268,65.4944062 Z M125.357138,62.3887031 C125.674964,62.7812227 126.059312,63.4099922 126.65308,64.3180781 C127.351558,65.2913789 127.15692,66.4750898 126.184964,67.1739961 C125.210543,67.8753633 124.027935,67.6809492 123.329457,66.706418 C122.685181,65.8106367 121.909094,64.8324141 121.902935,64.8447187 C120.502283,66.9155977 120.451775,69.7198359 121.992862,71.8682344 C123.39721,73.8259102 125.739022,74.7007734 127.963804,74.3390156 L133.907645,82.6225312 C134.785978,83.8468477 136.489674,84.1261641 137.712935,83.2463789 C138.937428,82.3653633 139.217065,80.6599336 138.338732,79.4356172 L132.396123,71.1545625 C133.450616,69.1575117 133.369312,66.6559687 131.963732,64.6995234 C130.425109,62.5523555 127.761775,61.72425 125.357138,62.3887031 Z" id="Stroke-33" stroke="#A5D3FF"></path>
                <g id="Group-37" transform="translate(227.898551, 111.074414)">
                    <mask id="mask-6" fill="white">
                        <use xlink:href="#path-5"></use>
                    </mask>
                    <g id="Clip-36"></g>
                    <polygon id="Stroke-35" stroke="#A5D3FF" mask="url(#mask-6)" points="6.82155797 -3.16858008 25.4168478 7.67061914 14.566413 26.2433145 -4.02887681 15.4053457"></polygon>
                </g>
                <g id="Group-40" transform="translate(227.898551, 111.074414)">
                    <mask id="mask-8" fill="white">
                        <use xlink:href="#path-7"></use>
                    </mask>
                    <g id="Clip-39"></g>
                    <polygon id="Stroke-38" stroke="#A5D3FF" mask="url(#mask-8)" points="-1336.96007 768.829359 -932.819565 1272.05909 327.049203 262.586215 -77.0913043 -240.642281"></polygon>
                </g>
                <g id="Group-139" transform="translate(19.710145, 6.484570)">
                    <path d="M222.906464,124.01673 C222.610812,124.523684 222.035522,124.528605 221.449145,124.399406 C221.449145,124.399406 218.539435,123.635285 215.590304,122.817023 L222.294217,111.340441 L228.160449,112.91298 C228.667986,113.208293 228.840449,113.859211 228.543565,114.367395 L222.906464,124.01673 Z M214.665159,122.291613 C212.546319,120.151828 210.409,117.964055 210.409,117.964055 C209.970449,117.516164 209.729,117.016594 210.025884,116.50841 L215.662986,106.860305 C215.958638,106.353352 216.612768,106.181086 217.120304,106.476398 L221.375232,110.805187 L214.665159,122.291613 Z M228.697551,111.99382 C228.697551,111.99382 225.606754,111.173098 222.809145,110.407746 C222.49871,110.244094 222.200594,110.053371 221.896319,109.877414 C219.952406,107.914816 217.656174,105.557238 217.656174,105.557238 C216.641101,104.966613 215.335304,105.308684 214.742768,106.32382 L209.105667,115.973156 C208.51313,116.988293 209.083493,117.999738 209.871899,118.883215 C209.871899,118.883215 211.950087,121.018078 214.112043,123.20216 L215.043348,123.744797 C218.031899,124.563059 220.913275,125.318566 220.913275,125.318566 C221.999797,125.624953 223.234145,125.568352 223.826681,124.553215 L229.463783,114.903879 C230.056319,113.888742 229.713855,112.585676 228.697551,111.99382 Z" id="Stroke-41" stroke="#A5D3FF"></path>
                    <path d="M262.954152,216.055547 C262.954152,222.59918 257.642268,227.904961 251.092341,227.904961 C244.539949,227.904961 239.229297,222.59918 239.229297,216.055547 C239.229297,209.511914 244.539949,204.206133 251.092341,204.206133 C257.642268,204.206133 262.954152,209.511914 262.954152,216.055547" id="Fill-43" fill="#F0F1F9"></path>
                    <path d="M258.450138,207.499975 C260.764848,209.855092 262.193833,213.085072 262.193833,216.647279 C262.193833,223.859057 256.33992,229.706244 249.119848,229.706244 C241.898543,229.706244 236.045862,223.859057 236.045862,216.647279 C236.045862,209.434271 241.898543,203.587084 249.119848,203.587084 C250.021587,203.587084 250.903616,203.679369 251.753616,203.852865" id="Stroke-45" stroke="#333366" stroke-width="1.464" stroke-linecap="round"></path>
                    <path d="M256.479493,205.691555 C256.479493,206.356008 255.939928,206.894953 255.27471,206.894953 C254.609493,206.894953 254.069928,206.356008 254.069928,205.691555 C254.069928,205.027102 254.609493,204.488156 255.27471,204.488156 C255.939928,204.488156 256.479493,205.027102 256.479493,205.691555" id="Fill-47" fill="#333366"></path>
                    <path d="M245.061775,214.254264 C245.061775,215.249713 244.254891,216.05567 243.258297,216.05567 C242.262935,216.05567 241.454819,215.249713 241.454819,214.254264 C241.454819,213.258814 242.262935,212.452857 243.258297,212.452857 C244.254891,212.452857 245.061775,213.258814 245.061775,214.254264" id="Fill-49" fill="#333366"></path>
                    <path d="M245.061775,221.150426 C245.65308,222.722965 247.244674,223.851305 249.119601,223.851305 C250.994529,223.851305 252.584891,222.722965 253.176196,221.150426" id="Stroke-51" stroke="#333366" stroke-width="1.209" stroke-linecap="round"></path>
                    <path d="M256.022464,214.325262 C256.022464,215.358855 255.183551,216.196805 254.148768,216.196805 C253.113986,216.196805 252.275072,215.358855 252.275072,214.325262 C252.275072,213.290437 253.113986,212.453719 254.148768,212.453719 C255.183551,212.453719 256.022464,213.290437 256.022464,214.325262" id="Fill-53" fill="#333366"></path>
                    <path d="M163.171543,259.121953 C163.171543,265.665586 157.859659,270.971367 151.309732,270.971367 C144.757341,270.971367 139.446688,265.665586 139.446688,259.121953 C139.446688,252.57832 144.757341,247.272539 151.309732,247.272539 C157.859659,247.272539 163.171543,252.57832 163.171543,259.121953" id="Fill-55" fill="#F0F1F9"></path>
                    <path d="M158.667529,250.566381 C160.982239,252.921498 162.411225,256.151479 162.411225,259.713686 C162.411225,266.925463 156.557312,272.77265 149.337239,272.77265 C142.115935,272.77265 136.263254,266.925463 136.263254,259.713686 C136.263254,252.500678 142.115935,246.65349 149.337239,246.65349 C150.238978,246.65349 151.121007,246.745775 151.971007,246.919271" id="Stroke-57" stroke="#333366" stroke-width="1.464" stroke-linecap="round"></path>
                    <path d="M156.696884,248.757961 C156.696884,249.422414 156.157319,249.961359 155.492101,249.961359 C154.826884,249.961359 154.287319,249.422414 154.287319,248.757961 C154.287319,248.093508 154.826884,247.554562 155.492101,247.554562 C156.157319,247.554562 156.696884,248.093508 156.696884,248.757961" id="Fill-59" fill="#333366"></path>
                    <path d="M145.279167,257.32067 C145.279167,258.316119 144.472283,259.122076 143.475688,259.122076 C142.480326,259.122076 141.67221,258.316119 141.67221,257.32067 C141.67221,256.325221 142.480326,255.519264 143.475688,255.519264 C144.472283,255.519264 145.279167,256.325221 145.279167,257.32067" id="Fill-61" fill="#333366"></path>
                    <path d="M145.279167,264.216832 C145.870471,265.789371 147.462065,266.917711 149.336993,266.917711 C151.21192,266.917711 152.802283,265.789371 153.393587,264.216832" id="Stroke-63" stroke="#333366" stroke-width="1.209" stroke-linecap="round"></path>
                    <path d="M156.239855,257.391668 C156.239855,258.425262 155.400942,259.263211 154.366159,259.263211 C153.331377,259.263211 152.492464,258.425262 152.492464,257.391668 C152.492464,256.356844 153.331377,255.520125 154.366159,255.520125 C155.400942,255.520125 156.239855,256.356844 156.239855,257.391668" id="Fill-65" fill="#333366"></path>
                    <path d="M67.0847101,219.746953 C67.0847101,226.290586 61.7728261,231.596367 55.2228986,231.596367 C48.6705072,231.596367 43.3598551,226.290586 43.3598551,219.746953 C43.3598551,213.20332 48.6705072,207.897539 55.2228986,207.897539 C61.7728261,207.897539 67.0847101,213.20332 67.0847101,219.746953" id="Fill-67" fill="#F0F1F9"></path>
                    <path d="M62.5805725,211.191381 C64.8952826,213.546498 66.3242681,216.776479 66.3242681,220.338686 C66.3242681,227.550463 60.4703551,233.39765 53.2502826,233.39765 C46.0289783,233.39765 40.1762971,227.550463 40.1762971,220.338686 C40.1762971,213.125678 46.0289783,207.27849 53.2502826,207.27849 C54.1520217,207.27849 55.0340507,207.370775 55.8840507,207.544271" id="Stroke-69" stroke="#333366" stroke-width="1.464" stroke-linecap="round"></path>
                    <path d="M60.6100507,209.382961 C60.6100507,210.047414 60.0704855,210.586359 59.4052681,210.586359 C58.7400507,210.586359 58.2004855,210.047414 58.2004855,209.382961 C58.2004855,208.718508 58.7400507,208.179562 59.4052681,208.179562 C60.0704855,208.179562 60.6100507,208.718508 60.6100507,209.382961" id="Fill-71" fill="#333366"></path>
                    <path d="M49.1923333,217.94567 C49.1923333,218.941119 48.3854493,219.747076 47.3888551,219.747076 C46.3934928,219.747076 45.5853768,218.941119 45.5853768,217.94567 C45.5853768,216.950221 46.3934928,216.144264 47.3888551,216.144264 C48.3854493,216.144264 49.1923333,216.950221 49.1923333,217.94567" id="Fill-73" fill="#333366"></path>
                    <path d="M49.1923333,224.841832 C49.7836377,226.414371 51.3752319,227.542711 53.2501594,227.542711 C55.125087,227.542711 56.7154493,226.414371 57.3067536,224.841832" id="Stroke-75" stroke="#333366" stroke-width="1.209" stroke-linecap="round"></path>
                    <path d="M60.1528986,218.016668 C60.1528986,219.050262 59.3139855,219.888211 58.2792029,219.888211 C57.2444203,219.888211 56.4055072,219.050262 56.4055072,218.016668 C56.4055072,216.981844 57.2444203,216.145125 58.2792029,216.145125 C59.3139855,216.145125 60.1528986,216.981844 60.1528986,218.016668" id="Fill-77" fill="#333366"></path>
                    <path d="M27.6644203,150.840703 C27.6644203,157.384336 22.3525362,162.690117 15.8026087,162.690117 C9.25021739,162.690117 3.93956522,157.384336 3.93956522,150.840703 C3.93956522,144.29707 9.25021739,138.991289 15.8026087,138.991289 C22.3525362,138.991289 27.6644203,144.29707 27.6644203,150.840703" id="Fill-79" fill="#F0F1F9"></path>
                    <path d="M23.1602826,142.285131 C25.4749928,144.640248 26.9039783,147.870229 26.9039783,151.432436 C26.9039783,158.644213 21.0500652,164.4914 13.8299928,164.4914 C6.60868841,164.4914 0.756007246,158.644213 0.756007246,151.432436 C0.756007246,144.219428 6.60868841,138.37224 13.8299928,138.37224 C14.7317319,138.37224 15.6137609,138.464525 16.4637609,138.638021" id="Stroke-81" stroke="#333366" stroke-width="1.464" stroke-linecap="round"></path>
                    <path d="M21.1897609,140.476711 C21.1897609,141.141164 20.6501957,141.680109 19.9849783,141.680109 C19.3197609,141.680109 18.7801957,141.141164 18.7801957,140.476711 C18.7801957,139.812258 19.3197609,139.273312 19.9849783,139.273312 C20.6501957,139.273312 21.1897609,139.812258 21.1897609,140.476711" id="Fill-83" fill="#333366"></path>
                    <path d="M9.77204348,149.03942 C9.77204348,150.034869 8.96515942,150.840826 7.96856522,150.840826 C6.9732029,150.840826 6.16508696,150.034869 6.16508696,149.03942 C6.16508696,148.043971 6.9732029,147.238014 7.96856522,147.238014 C8.96515942,147.238014 9.77204348,148.043971 9.77204348,149.03942" id="Fill-85" fill="#333366"></path>
                    <path d="M9.77204348,155.935582 C10.3633478,157.508121 11.954942,158.636461 13.8298696,158.636461 C15.7047971,158.636461 17.2951594,157.508121 17.8864638,155.935582" id="Stroke-87" stroke="#333366" stroke-width="1.209" stroke-linecap="round"></path>
                    <path d="M20.7326087,149.110418 C20.7326087,150.144012 19.8936957,150.981961 18.858913,150.981961 C17.8241304,150.981961 16.9852174,150.144012 16.9852174,149.110418 C16.9852174,148.075594 17.8241304,147.238875 18.858913,147.238875 C19.8936957,147.238875 20.7326087,148.075594 20.7326087,149.110418" id="Fill-89" fill="#333366"></path>
                    <path d="M64.620942,64.7078906 C64.620942,71.2515234 59.309058,76.5573047 52.7591304,76.5573047 C46.2067391,76.5573047 40.896087,71.2515234 40.896087,64.7078906 C40.896087,58.1642578 46.2067391,52.8584766 52.7591304,52.8584766 C59.309058,52.8584766 64.620942,58.1642578 64.620942,64.7078906" id="Fill-91" fill="#F0F1F9"></path>
                    <path d="M60.1168043,56.1523184 C62.4315145,58.5074355 63.8605,61.737416 63.8605,65.299623 C63.8605,72.5114004 58.006587,78.3585879 50.7865145,78.3585879 C43.5652101,78.3585879 37.712529,72.5114004 37.712529,65.299623 C37.712529,58.0866152 43.5652101,52.2394277 50.7865145,52.2394277 C51.6882536,52.2394277 52.5702826,52.3317129 53.4202826,52.505209" id="Stroke-93" stroke="#333366" stroke-width="1.464" stroke-linecap="round"></path>
                    <path d="M58.1462826,54.3438984 C58.1462826,55.0083516 57.6067174,55.5472969 56.9415,55.5472969 C56.2762826,55.5472969 55.7367174,55.0083516 55.7367174,54.3438984 C55.7367174,53.6794453 56.2762826,53.1405 56.9415,53.1405 C57.6067174,53.1405 58.1462826,53.6794453 58.1462826,54.3438984" id="Fill-95" fill="#333366"></path>
                    <path d="M46.7285652,62.9066074 C46.7285652,63.9020566 45.9216812,64.7080137 44.925087,64.7080137 C43.9297246,64.7080137 43.1216087,63.9020566 43.1216087,62.9066074 C43.1216087,61.9111582 43.9297246,61.1052012 44.925087,61.1052012 C45.9216812,61.1052012 46.7285652,61.9111582 46.7285652,62.9066074" id="Fill-97" fill="#333366"></path>
                    <path d="M46.7285652,69.8027695 C47.3198696,71.3753086 48.9114638,72.5036484 50.7863913,72.5036484 C52.6613188,72.5036484 54.2516812,71.3753086 54.8429855,69.8027695" id="Stroke-99" stroke="#333366" stroke-width="1.209" stroke-linecap="round"></path>
                    <path d="M57.6891304,62.9776055 C57.6891304,64.0111992 56.8502174,64.8491484 55.8154348,64.8491484 C54.7806522,64.8491484 53.9417391,64.0111992 53.9417391,62.9776055 C53.9417391,61.9427812 54.7806522,61.1060625 55.8154348,61.1060625 C56.8502174,61.1060625 57.6891304,61.9427812 57.6891304,62.9776055" id="Fill-101" fill="#333366"></path>
                    <path d="M161.939659,13.0282031 C161.939659,19.5718359 156.627775,24.8776172 150.077848,24.8776172 C143.525457,24.8776172 138.214804,19.5718359 138.214804,13.0282031 C138.214804,6.48457031 143.525457,1.17878906 150.077848,1.17878906 C156.627775,1.17878906 161.939659,6.48457031 161.939659,13.0282031" id="Fill-103" fill="#F0F1F9"></path>
                    <path d="M157.435645,4.47263086 C159.750355,6.82774805 161.179341,10.0577285 161.179341,13.6199355 C161.179341,20.8317129 155.325428,26.6789004 148.105355,26.6789004 C140.884051,26.6789004 135.03137,20.8317129 135.03137,13.6199355 C135.03137,6.40692773 140.884051,0.559740234 148.105355,0.559740234 C149.007094,0.559740234 149.889123,0.652025391 150.739123,0.825521484" id="Stroke-105" stroke="#333366" stroke-width="1.464" stroke-linecap="round"></path>
                    <path d="M155.465,2.66421094 C155.465,3.32866406 154.925435,3.86760937 154.260217,3.86760937 C153.595,3.86760937 153.055435,3.32866406 153.055435,2.66421094 C153.055435,1.99975781 153.595,1.4608125 154.260217,1.4608125 C154.925435,1.4608125 155.465,1.99975781 155.465,2.66421094" id="Fill-107" fill="#333366"></path>
                    <path d="M144.047283,11.2269199 C144.047283,12.2223691 143.240399,13.0283262 142.243804,13.0283262 C141.248442,13.0283262 140.440326,12.2223691 140.440326,11.2269199 C140.440326,10.2314707 141.248442,9.42551367 142.243804,9.42551367 C143.240399,9.42551367 144.047283,10.2314707 144.047283,11.2269199" id="Fill-109" fill="#333366"></path>
                    <path d="M144.047283,18.123082 C144.638587,19.6956211 146.230181,20.8239609 148.105109,20.8239609 C149.980036,20.8239609 151.570399,19.6956211 152.161703,18.123082" id="Stroke-111" stroke="#333366" stroke-width="1.209" stroke-linecap="round"></path>
                    <path d="M155.007971,11.297918 C155.007971,12.3315117 154.169058,13.1694609 153.134275,13.1694609 C152.099493,13.1694609 151.26058,12.3315117 151.26058,11.297918 C151.26058,10.2630937 152.099493,9.426375 153.134275,9.426375 C154.169058,9.426375 155.007971,10.2630937 155.007971,11.297918" id="Fill-113" fill="#333366"></path>
                    <path d="M293.751254,147.149297 C293.751254,153.69293 288.43937,158.998711 281.88821,158.998711 C275.337051,158.998711 270.026399,153.69293 270.026399,147.149297 C270.026399,140.605664 275.337051,135.299883 281.88821,135.299883 C288.43937,135.299883 293.751254,140.605664 293.751254,147.149297" id="Fill-115" fill="#F0F1F9"></path>
                    <path d="M289.247239,138.593725 C291.563181,140.948842 292.990935,144.178822 292.990935,147.741029 C292.990935,154.952807 287.137022,160.799994 279.916949,160.799994 C272.695645,160.799994 266.842964,154.952807 266.842964,147.741029 C266.842964,140.528021 272.695645,134.680834 279.916949,134.680834 C280.818688,134.680834 281.700717,134.773119 282.550717,134.946615" id="Stroke-117" stroke="#333366" stroke-width="1.464" stroke-linecap="round"></path>
                    <path d="M287.276594,136.785305 C287.276594,137.449758 286.738261,137.988703 286.071812,137.988703 C285.406594,137.988703 284.868261,137.449758 284.868261,136.785305 C284.868261,136.120852 285.406594,135.581906 286.071812,135.581906 C286.738261,135.581906 287.276594,136.120852 287.276594,136.785305" id="Fill-119" fill="#333366"></path>
                    <path d="M275.858877,145.348014 C275.858877,146.343463 275.051993,147.14942 274.055399,147.14942 C273.060036,147.14942 272.25192,146.343463 272.25192,145.348014 C272.25192,144.352564 273.060036,143.546607 274.055399,143.546607 C275.051993,143.546607 275.858877,144.352564 275.858877,145.348014" id="Fill-121" fill="#333366"></path>
                    <path d="M275.858877,152.244176 C276.450181,153.816715 278.040543,154.945055 279.916703,154.945055 C281.790399,154.945055 283.380761,153.816715 283.974529,152.244176" id="Stroke-123" stroke="#333366" stroke-width="1.209" stroke-linecap="round"></path>
                    <path d="M286.819565,145.419012 C286.819565,146.452605 285.980652,147.290555 284.94587,147.290555 C283.911087,147.290555 283.072174,146.452605 283.072174,145.419012 C283.072174,144.384187 283.911087,143.547469 284.94587,143.547469 C285.980652,143.547469 286.819565,144.384187 286.819565,145.419012" id="Fill-125" fill="#333366"></path>
                    <path d="M260.490384,65.9383594 C260.490384,72.4819922 255.1785,77.7877734 248.628572,77.7877734 C242.076181,77.7877734 236.765529,72.4819922 236.765529,65.9383594 C236.765529,59.3947266 242.076181,54.0889453 248.628572,54.0889453 C255.1785,54.0889453 260.490384,59.3947266 260.490384,65.9383594" id="Fill-127" fill="#F0F1F9"></path>
                    <path d="M255.98637,57.3827871 C258.30108,59.7379043 259.730065,62.9678848 259.730065,66.5300918 C259.730065,73.7418691 253.876152,79.5890566 246.65608,79.5890566 C239.434775,79.5890566 233.582094,73.7418691 233.582094,66.5300918 C233.582094,59.317084 239.434775,53.4698965 246.65608,53.4698965 C247.557819,53.4698965 248.439848,53.5621816 249.289848,53.7356777" id="Stroke-129" stroke="#333366" stroke-width="1.464" stroke-linecap="round"></path>
                    <path d="M254.015725,55.5743672 C254.015725,56.2388203 253.476159,56.7777656 252.810942,56.7777656 C252.145725,56.7777656 251.606159,56.2388203 251.606159,55.5743672 C251.606159,54.9099141 252.145725,54.3709687 252.810942,54.3709687 C253.476159,54.3709687 254.015725,54.9099141 254.015725,55.5743672" id="Fill-131" fill="#333366"></path>
                    <path d="M242.598007,64.1370762 C242.598007,65.1325254 241.791123,65.9384824 240.794529,65.9384824 C239.799167,65.9384824 238.991051,65.1325254 238.991051,64.1370762 C238.991051,63.141627 239.799167,62.3356699 240.794529,62.3356699 C241.791123,62.3356699 242.598007,63.141627 242.598007,64.1370762" id="Fill-133" fill="#333366"></path>
                    <path d="M242.598007,71.0332383 C243.189312,72.6057773 244.780906,73.7341172 246.655833,73.7341172 C248.530761,73.7341172 250.121123,72.6057773 250.712428,71.0332383" id="Stroke-135" stroke="#333366" stroke-width="1.209" stroke-linecap="round"></path>
                    <path d="M253.558696,64.2080742 C253.558696,65.241668 252.719783,66.0796172 251.685,66.0796172 C250.650217,66.0796172 249.811304,65.241668 249.811304,64.2080742 C249.811304,63.17325 250.650217,62.3365312 251.685,62.3365312 C252.719783,62.3365312 253.558696,63.17325 253.558696,64.2080742" id="Fill-137" fill="#333366"></path>
                </g>
                <g id="Group-142" transform="translate(178.623188, 214.433789)">
                    <mask id="mask-10" fill="white">
                        <use xlink:href="#path-9"></use>
                    </mask>
                    <g id="Clip-141"></g>
                    <polygon id="Stroke-140" stroke="#A5D3FF" mask="url(#mask-10)" points="-1.98086957 17.8516406 19.5056522 17.8516406 19.5056522 -1.49132812 -1.98086957 -1.49132812"></polygon>
                </g>
                <g id="Group-145" transform="translate(178.623188, 214.433789)">
                    <mask id="mask-12" fill="white">
                        <use xlink:href="#path-11"></use>
                    </mask>
                    <g id="Clip-144"></g>
                    <polygon id="Stroke-143" stroke="#A5D3FF" mask="url(#mask-12)" points="-543.749928 1489.48242 87.6916667 1489.48242 87.6916667 -87.748418 -543.749928 -87.748418"></polygon>
                </g>
                <path d="M194.726007,217.063055 L187.945717,223.750652 L187.199196,223.013602 L193.980717,216.326004 C194.186442,216.122977 194.520283,216.122977 194.726007,216.326004 C194.931732,216.529031 194.931732,216.858797 194.726007,217.063055 Z M186.079413,225.590203 C186.010428,225.522527 185.332891,224.854383 185.332891,224.854383 L186.452674,223.750652 L187.199196,224.485242 L186.079413,225.590203 Z M184.95963,228.165574 C184.434848,228.65407 182.084413,229.740574 180.701007,228.686062 C180.701007,228.686062 181.182674,228.312 181.547312,227.557723 C182.417022,225.248133 184.587601,225.590203 184.587601,225.590203 L185.332891,226.326023 C185.340283,226.333406 185.890935,227.304246 184.95963,228.165574 Z M195.472529,215.590184 C194.854123,214.981102 193.852601,214.981102 193.234196,215.590184 L184.052964,224.643973 C182.929486,224.619363 181.372384,225.016805 180.701007,227.214422 C180.187312,228.377215 178.834703,228.318152 178.834703,228.318152 C181.642167,231.430008 184.951007,229.666746 185.706152,228.902625 C186.370138,228.230789 186.466225,227.408836 186.394775,226.750535 L195.472529,217.798875 C196.090935,217.189793 196.090935,216.200496 195.472529,215.590184 Z" id="Stroke-146" stroke="#A5D3FF"></path>
                <g id="Group-150" transform="translate(85.000000, 177.519727)">
                    <mask id="mask-14" fill="white">
                        <use xlink:href="#path-13"></use>
                    </mask>
                    <g id="Clip-149"></g>
                    <polygon id="Stroke-148" stroke="#A5D3FF" mask="url(#mask-14)" points="-5.63500725 8.04025195 11.0459348 -5.85420117 24.9563696 10.8075762 8.27542754 24.7020293"></polygon>
                </g>
                <g id="Group-153" transform="translate(85.000000, 177.519727)">
                    <mask id="mask-16" fill="white">
                        <use xlink:href="#path-15"></use>
                    </mask>
                    <g id="Clip-152"></g>
                    <polygon id="Stroke-151" stroke="#A5D3FF" mask="url(#mask-16)" points="985.627355 744.891697 1187.41612 274.088514 8.72728261 -229.945939 -193.061486 240.857244"></polygon>
                </g>
                <g id="Group-186" transform="translate(0.000000, 0.332227)">
                    <path d="M103.669449,185.011436 C104.071043,185.492549 104.005754,186.208682 103.524087,186.608584 L103.112638,186.950654 C102.76771,186.011807 102.245391,185.07665 101.525971,184.215322 C100.946986,183.521338 100.296551,182.94917 99.6165507,182.482822 L99.890029,182.255186 C100.371696,181.855283 101.08742,181.919268 101.489014,182.400381 L103.669449,185.011436 Z M102.161623,187.744307 L101.780971,188.061768 C101.300536,188.46167 100.584812,188.396455 100.183217,187.915342 L98.0015507,185.304287 C97.6011884,184.824404 97.6652464,184.108271 98.146913,183.707139 L98.6951014,183.250635 C99.4022029,183.68499 100.072348,184.242393 100.653797,184.940068 C101.381841,185.81001 101.873362,186.775928 102.161623,187.744307 Z M89.7048116,190.739268 C90.0411159,191.491084 90.487058,192.233057 91.0660435,192.927041 C91.7866957,193.7896 92.6145217,194.470049 93.4768406,194.978232 L93.0653913,195.320303 C92.5837246,195.721436 91.8667681,195.656221 91.4664058,195.176338 L89.285971,192.564053 C88.8843768,192.082939 88.9496667,191.368037 89.4301014,190.968135 L89.7048116,190.739268 Z M90.6262609,189.971455 L91.1732174,189.514951 C91.6548841,189.115049 92.3718406,189.180264 92.7722029,189.660146 L94.9526377,192.271201 C95.3542319,192.752314 95.288942,193.468447 94.8085072,193.86835 L94.4278551,194.185811 C93.5261159,193.729307 92.6637971,193.071006 91.9382174,192.201064 C91.3543043,191.502158 90.9268406,190.744189 90.6262609,189.971455 Z M100.198,180.907822 C100.08713,180.750322 99.9787246,180.591592 99.8530725,180.441475 C97.1441594,177.194268 92.2153913,176.838662 88.8461884,179.646592 C85.4757536,182.453291 84.9411159,187.35917 87.650029,190.605146 C87.7756812,190.755264 87.9136522,190.889385 88.0491594,191.027197 C87.7633623,191.76917 87.8680725,192.63542 88.4137971,193.29126 L90.5942319,195.902314 C91.3974203,196.864541 92.8288696,196.99251 93.790971,196.191475 C93.790971,196.191475 95.5390145,194.740752 95.534087,194.739521 C96.4272029,193.926182 96.6058261,192.480381 95.8248116,191.546455 L93.6443768,188.93417 C92.8411884,187.971943 91.4097391,187.842744 90.4476377,188.64501 L88.7045217,190.096963 C86.2826377,187.195518 86.6842319,182.92333 89.573,180.517764 C92.4617681,178.110967 96.5713333,178.279541 99.1632174,181.385244 L97.4201014,182.835967 C96.458,183.639463 96.3286522,185.068037 97.1306087,186.030264 L99.3110435,188.641318 C100.092058,189.577705 101.546913,189.661377 102.507783,188.931709 C102.509014,188.9354 103.379957,188.205732 103.379957,188.205732 L104.470174,189.51126 C104.670971,189.752432 105.028217,189.784424 105.269667,189.583857 C105.509884,189.383291 105.543145,189.026455 105.341116,188.785283 L104.25213,187.479756 C105.214232,186.67749 105.34358,185.247686 104.541623,184.285459 L102.361188,181.674404 C101.815464,181.019795 100.979014,180.761396 100.198,180.907822 Z" id="Stroke-154" stroke="#A5D3FF"></path>
                    <path d="M22.3133623,104.426561 C22.3133623,105.531521 21.4153188,106.428533 20.309087,106.428533 C19.2016232,106.428533 18.3048116,105.531521 18.3048116,104.426561 C18.3048116,103.3216 19.2016232,102.424588 20.309087,102.424588 C21.4153188,102.424588 22.3133623,103.3216 22.3133623,104.426561" id="Fill-156" fill="#5F609E"></path>
                    <path d="M199.788188,37.0054863 C198.746014,36.6314238 198.203986,35.4858574 198.578478,34.4448809 C198.951739,33.4039043 200.099855,32.862498 201.142029,33.2365605 C202.184203,33.6093926 202.725,34.7561895 202.351739,35.797166 C201.978478,36.8369121 200.830362,37.3795488 199.788188,37.0054863" id="Fill-158" fill="#FFECBC"></path>
                    <path d="M269.372268,26.5441641 C268.330094,26.1701016 267.788065,25.0245352 268.162558,23.9835586 C268.535819,22.9413516 269.682703,22.4011758 270.726109,22.7752383 C271.767051,23.1468398 272.30908,24.2936367 271.935819,25.3358438 C271.561326,26.3755898 270.414442,26.9169961 269.372268,26.5441641" id="Fill-160" fill="#6AD7E5"></path>
                    <path d="M322.799203,174.582475 C323.303043,173.5981 324.51029,173.208041 325.495797,173.712533 C326.481304,174.215795 326.871812,175.421654 326.366739,176.406029 C325.862899,177.390404 324.655652,177.780463 323.670145,177.275971 C322.684638,176.772709 322.29413,175.56685 322.799203,174.582475" id="Fill-162" fill="#FFECBC"></path>
                    <path d="M333.893304,208.874654 C334.397145,207.890279 335.605623,207.500221 336.589899,208.003482 C337.575406,208.506744 337.967145,209.713834 337.460841,210.698209 C336.957,211.682584 335.749754,212.072643 334.764246,211.56815 C333.778739,211.064889 333.389464,209.859029 333.893304,208.874654" id="Fill-164" fill="#6AD7E5"></path>
                    <path d="M170.452841,308.74565 C171.519652,309.042193 172.142986,310.147154 171.84487,311.21151 C171.547986,312.277096 170.442986,312.899713 169.376174,312.60317 C168.309362,312.305396 167.686029,311.200436 167.984145,310.13608 C168.281029,309.071725 169.386029,308.447877 170.452841,308.74565" id="Fill-166" fill="#FFECBC"></path>
                    <path d="M73.8967826,263.134266 C74.9635942,263.430809 75.5869275,264.53577 75.2888116,265.601355 C74.9919275,266.665711 73.8869275,267.288328 72.8201159,266.991785 C71.7533043,266.695242 71.129971,265.590281 71.428087,264.525926 C71.724971,263.46034 72.829971,262.837723 73.8967826,263.134266" id="Fill-168" fill="#5F609E"></path>
                    <path d="M121.779007,253.848041 C122.845819,254.144584 123.469152,255.249545 123.171036,256.315131 C122.874152,257.379486 121.76792,258.002104 120.702341,257.705561 C119.635529,257.409018 119.012196,256.304057 119.310312,255.238471 C119.607196,254.174115 120.712196,253.551498 121.779007,253.848041" id="Fill-170" fill="#6AD7E5"></path>
                    <path d="M278.694428,277.8001 C279.607254,277.173791 280.85392,277.40635 281.480949,278.318127 C282.107978,279.228674 281.876384,280.475139 280.963558,281.101447 C280.051964,281.726525 278.802833,281.496428 278.177036,280.58465 C277.550007,279.672873 277.781601,278.426408 278.694428,277.8001" id="Fill-172" fill="#FFECBC"></path>
                    <path d="M217.079159,282.160758 C217.991986,281.534449 219.239884,281.767008 219.866913,282.677555 C220.49271,283.589332 220.261116,284.835797 219.34829,285.462105 C218.436696,286.087184 217.188797,285.855855 216.561768,284.945309 C215.934739,284.032301 216.166333,282.787066 217.079159,282.160758" id="Fill-174" fill="#5F609E"></path>
                    <path d="M29.9802391,242.478141 C30.4816159,243.463746 30.0886449,244.668375 29.1019058,245.170406 C28.1151667,245.671207 26.9079203,245.278688 26.4065435,244.293082 C25.9039348,243.307477 26.2981377,242.101617 27.2848768,241.600816 C28.2716159,241.100016 29.4776304,241.491305 29.9802391,242.478141" id="Fill-176" fill="#FFECBC"></path>
                    <path d="M4.29828986,177.174457 C4.79966667,178.160062 4.40669565,179.364691 3.41995652,179.866723 C2.43321739,180.368754 1.22597101,179.975004 0.724594203,178.989398 C0.223217391,178.003793 0.616188406,176.797934 1.60292754,176.297133 C2.58966667,175.796332 3.79568116,176.188852 4.29828986,177.174457" id="Fill-178" fill="#6AD7E5"></path>
                    <path d="M36.4631522,61.0777617 C35.8016304,61.9649297 34.5463406,62.1482695 33.6581522,61.4887383 C32.7699638,60.829207 32.586413,59.5741289 33.2467029,58.6881914 C33.9069928,57.799793 35.1635145,57.6164531 36.0517029,58.2772148 C36.9398913,58.9367461 37.123442,60.1905938 36.4631522,61.0777617" id="Fill-180" fill="#FFECBC"></path>
                    <path d="M124.848493,3.27341602 C124.186971,4.16058398 122.931681,4.34392383 122.043493,3.68439258 C121.155304,3.02486133 120.971754,1.7697832 121.632043,0.882615234 C122.292333,-0.00455273437 123.548855,-0.187892578 124.437043,0.471638672 C125.325232,1.13240039 125.508783,2.38624805 124.848493,3.27341602" id="Fill-182" fill="#6AD7E5"></path>
                    <path d="M336.437761,128.731887 C335.653051,127.95177 335.650587,126.684387 336.432833,125.900578 C337.213848,125.11677 338.482688,125.115539 339.267399,125.895656 C340.052109,126.675773 340.054572,127.943156 339.273558,128.726965 C338.491312,129.510773 337.222471,129.513234 336.437761,128.731887" id="Fill-184" fill="#5F609E"></path>
                </g>
            </g>
            <g id="Page-1" transform="translate(69.000000, 1467.000000)">
                <path d="M86.2012195,43.1264368 C86.2012195,66.9451034 66.9037256,86.2528736 43.1006098,86.2528736 C19.2974939,86.2528736 0,66.9451034 0,43.1264368 C0,19.3077701 19.2974939,0 43.1006098,0 C66.9037256,0 86.2012195,19.3077701 86.2012195,43.1264368" id="Fill-1" fill="#F0F1F9"></path>
                <path d="M74.239964,15.4482759 L86.0019274,15.4482759 C86.0019274,15.4482759 87.9433848,24.7172414 79.6963726,34.0634483 C74.3377445,40.1371954 58.821525,38.3516322 48.8170372,38.4456092 C43.8907018,38.4906667 39.884275,33.9668966 39.884275,28.3836322 L39.884275,15.4482759 L66.5629091,15.4482759" id="Fill-3" fill="#1E90FF"></path>
                <path d="M33.5950598,34.0961471 C30.7092488,38.1667678 27.3782793,37.2437333 27.3782793,37.2437333 C27.3782793,37.2437333 25.9488829,25.2352736 28.7883768,19.7575724 C31.6047122,14.3262161 35.8259988,15.5710897 35.8259988,15.5710897 C35.8259988,15.5710897 37.0096573,29.2788598 33.5950598,34.0961471" id="Fill-5" fill="#1E90FF"></path>
                <path d="M24.445122,38.6206897 L24.445122,60.2315402 C24.445122,73.8916782 38.2694817,84.9655172 55.3231707,84.9655172 C72.3768598,84.9655172 86.2012195,73.8916782 86.2012195,60.2315402 L85.8345427,28.3218391" id="Stroke-7" stroke="#333366" stroke-width="1.886" stroke-linecap="round"></path>
                <path d="M32.6697476,34.7723954 C28.6851927,39.2717057 24.08565,38.2521195 24.08565,38.2521195 C24.08565,38.2521195 21.0222902,25.7467402 26.0322537,18.9250391 C30.2676927,13.1589701 35.7511195,14.2969931 35.7511195,14.2969931 C35.7511195,14.2969931 37.3837963,29.4478897 32.6697476,34.7723954 Z" id="Stroke-9" stroke="#333366" stroke-width="1.998"></path>
                <path d="M75.1829024,14.2326253 L88.589122,14.2326253 C88.589122,14.2326253 90.593622,23.1720276 81.4022561,34.1609011 C75.658939,41.0289471 57.6094329,38.7541885 46.2064268,38.8533149 C40.5904817,38.9022345 36.0243902,34.0579126 36.0243902,28.0807172 L36.0243902,14.2326253 L65.6158537,14.2326253" id="Stroke-11" stroke="#333366" stroke-width="1.939" stroke-linecap="round"></path>
                <path d="M71.6146866,14.5933425 C71.6146866,15.5421241 70.8453085,16.3132506 69.8970951,16.3132506 C68.9475951,16.3132506 68.1782171,15.5421241 68.1782171,14.5933425 C68.1782171,13.6432736 68.9475951,12.8734345 69.8970951,12.8734345 C70.8453085,12.8734345 71.6146866,13.6432736 71.6146866,14.5933425" id="Fill-13" fill="#333366"></path>
                <path d="M45.2315811,57.7299494 C45.2315811,59.9738115 43.413636,61.792846 41.1711177,61.792846 C38.9285994,61.792846 37.1106543,59.9738115 37.1106543,57.7299494 C37.1106543,55.4860874 38.9285994,53.6670529 41.1711177,53.6670529 C43.413636,53.6670529 45.2315811,55.4860874 45.2315811,57.7299494" id="Fill-15" fill="#333366"></path>
                <path d="M45.2315811,57.7299494 C45.2315811,59.9738115 43.413636,61.792846 41.1711177,61.792846 C38.9285994,61.792846 37.1106543,59.9738115 37.1106543,57.7299494 C37.1106543,55.4860874 38.9285994,53.6670529 41.1711177,53.6670529 C43.413636,53.6670529 45.2315811,55.4860874 45.2315811,57.7299494 Z" id="Stroke-17" stroke="#FFFFFF" stroke-width="0.478" stroke-linecap="round"></path>
                <path d="M47.4836201,71.4482759 C48.7213152,73.6972874 52.0471384,75.3103448 55.9660774,75.3103448 C59.886303,75.3103448 63.2121262,73.6972874 64.4498213,71.4482759" id="Stroke-19" stroke="#333366" stroke-width="2" stroke-linecap="round"></path>
                <path d="M73.6362982,57.830492 C73.6362982,60.074354 71.818353,61.8933885 69.5758348,61.8933885 C67.3333165,61.8933885 65.5153713,60.074354 65.5153713,57.830492 C65.5153713,55.5866299 67.3333165,53.7675954 69.5758348,53.7675954 C71.818353,53.7675954 73.6362982,55.5866299 73.6362982,57.830492" id="Fill-21" fill="#333366"></path>
                <path d="M73.6362982,57.830492 C73.6362982,60.074354 71.818353,61.8933885 69.5758348,61.8933885 C67.3333165,61.8933885 65.5153713,60.074354 65.5153713,57.830492 C65.5153713,55.5866299 67.3333165,53.7675954 69.5758348,53.7675954 C71.818353,53.7675954 73.6362982,55.5866299 73.6362982,57.830492 Z" id="Stroke-23" stroke="#FFFFFF" stroke-width="0.478" stroke-linecap="round"></path>
                <path d="M23.1585366,45.0901701 C20.2804451,45.3193195 18.0121951,47.8142161 18.0121951,50.8665379 C18.0121951,53.9188598 20.2804451,56.4150437 23.1585366,56.6441931" id="Stroke-25" stroke="#333366" stroke-width="2.309" stroke-linecap="round"></path>
                <path d="M87.4878049,56.6436782 C90.3658963,56.4145287 92.6341463,53.9196322 92.6341463,50.8673103 C92.6341463,47.8149885 90.3658963,45.3188046 87.4878049,45.0896552" id="Stroke-27" stroke="#333366" stroke-width="2.309" stroke-linecap="round"></path>
                <path d="M211,180.229885 C211,204.048552 191.702506,223.356322 167.89939,223.356322 C144.096274,223.356322 124.79878,204.048552 124.79878,180.229885 C124.79878,156.411218 144.096274,137.103448 167.89939,137.103448 C191.702506,137.103448 211,156.411218 211,180.229885" id="Fill-29" fill="#F0F1F9"></path>
                <path d="M169.447281,147.402299 L181.209245,147.402299 C181.209245,147.402299 183.150702,156.671264 174.90369,166.017471 C169.545062,172.091218 154.028842,170.305655 144.024354,170.399632 C139.098019,170.44469 135.091592,165.92092 135.091592,160.337655 L135.091592,147.402299 L161.770226,147.402299" id="Fill-31" fill="#1E90FF"></path>
                <path d="M128.802377,166.05017 C125.916566,170.120791 122.585596,169.197756 122.585596,169.197756 C122.585596,169.197756 121.1562,157.189297 123.995694,151.711595 C126.812029,146.280239 131.033316,147.525113 131.033316,147.525113 C131.033316,147.525113 132.216974,161.232883 128.802377,166.05017" id="Fill-33" fill="#1E90FF"></path>
                <path d="M119.652439,170.574713 L119.652439,192.185563 C119.652439,205.845701 133.476799,216.91954 150.530488,216.91954 C167.584177,216.91954 181.408537,205.845701 181.408537,192.185563 L181.04186,160.275862" id="Stroke-35" stroke="#333366" stroke-width="1.886" stroke-linecap="round"></path>
                <path d="M127.877065,166.726418 C123.89251,171.225729 119.292967,170.206143 119.292967,170.206143 C119.292967,170.206143 116.229607,157.700763 121.239571,150.879062 C125.47501,145.112993 130.958437,146.251016 130.958437,146.251016 C130.958437,146.251016 132.591113,161.401913 127.877065,166.726418 Z" id="Stroke-37" stroke="#333366" stroke-width="1.998"></path>
                <path d="M170.39022,146.186648 L183.796439,146.186648 C183.796439,146.186648 185.800939,155.126051 176.609573,166.114924 C170.866256,172.98297 152.81675,170.708211 141.413744,170.807338 C135.797799,170.856257 131.231707,166.011936 131.231707,160.03474 L131.231707,146.186648 L160.823171,146.186648" id="Stroke-39" stroke="#333366" stroke-width="1.939" stroke-linecap="round"></path>
                <path d="M166.822004,146.547366 C166.822004,147.496147 166.052626,148.267274 165.104412,148.267274 C164.154912,148.267274 163.385534,147.496147 163.385534,146.547366 C163.385534,145.597297 164.154912,144.827457 165.104412,144.827457 C166.052626,144.827457 166.822004,145.597297 166.822004,146.547366" id="Fill-41" fill="#333366"></path>
                <path d="M140.438898,189.683844 C140.438898,191.927706 138.620953,193.74674 136.378435,193.74674 C134.135916,193.74674 132.317971,191.927706 132.317971,189.683844 C132.317971,187.439982 134.135916,185.620947 136.378435,185.620947 C138.620953,185.620947 140.438898,187.439982 140.438898,189.683844" id="Fill-43" fill="#333366"></path>
                <path d="M140.438898,189.683844 C140.438898,191.927706 138.620953,193.74674 136.378435,193.74674 C134.135916,193.74674 132.317971,191.927706 132.317971,189.683844 C132.317971,187.439982 134.135916,185.620947 136.378435,185.620947 C138.620953,185.620947 140.438898,187.439982 140.438898,189.683844 Z" id="Stroke-45" stroke="#FFFFFF" stroke-width="0.478" stroke-linecap="round"></path>
                <path d="M142.690937,203.402299 C143.928632,205.65131 147.254455,207.264368 151.173395,207.264368 C155.09362,207.264368 158.419443,205.65131 159.657138,203.402299" id="Stroke-47" stroke="#333366" stroke-width="2" stroke-linecap="round"></path>
                <path d="M118.365854,177.044193 C115.487762,177.273343 113.219512,179.768239 113.219512,182.820561 C113.219512,185.872883 115.487762,188.369067 118.365854,188.598216" id="Stroke-49" stroke="#333366" stroke-width="2.309" stroke-linecap="round"></path>
                <path d="M182.695122,188.597701 C185.573213,188.368552 187.841463,185.873655 187.841463,182.821333 C187.841463,179.769011 185.573213,177.272828 182.695122,177.043678" id="Stroke-51" stroke="#333366" stroke-width="2.309" stroke-linecap="round"></path>
                <polyline id="Stroke-53" stroke="#333366" stroke-width="2" stroke-linecap="round" stroke-linejoin="round" points="164.21744 184.855099 159.117416 189.843605 165.986495 191.768202"></polyline>
                <path d="M178.549487,99.7613609 C180.826743,104.774326 182.693578,110.057637 184.103676,115.55851" id="Stroke-55" stroke="#333366" stroke-width="3" stroke-linecap="round"></path>
                <path d="M119.480294,51.8651402 C145.327794,56.2576 167.104538,74.5638069 178.550001,99.7612322" id="Stroke-57" stroke="#333366" stroke-width="3" stroke-linecap="round"></path>
                <path d="M107.429878,50.8505747 C111.526366,50.8505747 115.550805,51.1968736 119.480037,51.8650115" id="Stroke-59" stroke="#333366" stroke-width="3" stroke-linecap="round"></path>
                <path d="M30.6418317,115.566621 C28.3658622,110.554943 26.4977402,105.271632 25.0889293,99.7694713" id="Stroke-61" stroke="#A5D3FF" stroke-width="3" stroke-linecap="round"></path>
                <path d="M101.762084,164.478566 C75.1567848,164.478566 51.5942604,149.868359 37.1021628,127.413002" id="Stroke-63" stroke="#A5D3FF" stroke-width="3" stroke-linecap="round"></path>
                <path d="M36.0243902,121.011494 C36.0243902,122.432736 34.8716098,123.586207 33.4512195,123.586207 C32.0308293,123.586207 30.8780488,122.432736 30.8780488,121.011494 C30.8780488,119.590253 32.0308293,118.436782 33.4512195,118.436782 C34.8716098,118.436782 36.0243902,119.590253 36.0243902,121.011494" id="Fill-65" fill="#A5D3FF"></path>
            </g>
        </g>
    </g>
</svg>