<?xml version="1.0" encoding="UTF-8"?>
<svg width="276px" height="255px" viewBox="0 0 276 255" version="1.1" xmlns="http://www.w3.org/2000/svg" xmlns:xlink="http://www.w3.org/1999/xlink">
    <!-- Generator: Sketch 43.2 (39069) - http://www.bohemiancoding.com/sketch -->
    <title>Page 1</title>
    <desc>Created with Sketch.</desc>
    <defs>
        <path d="M3.761,0.433 C4.202,0.311 4.653,0.251 5.102,0.251 C6.642,0.251 8.156,0.96 9.124,2.311 C10.264,3.902 10.331,5.934 9.474,7.557 L14.298,14.287 C15.012,15.282 14.784,16.668 13.791,17.384 C12.798,18.098 11.415,17.873 10.702,16.877 L5.877,10.146 C4.071,10.439 2.17,9.728 1.03,8.137 C-0.221,6.391 -0.18,4.112 0.957,2.429 C0.962,2.42 1.592,3.214 2.115,3.942 C2.682,4.734 3.641,4.892 4.432,4.322 C5.222,3.754 5.379,2.792 4.813,2.001 C4.331,1.263 4.019,0.752 3.761,0.433 Z M5.078,5.224 C4.59,5.575 4.029,5.743 3.472,5.743 C2.638,5.743 1.815,5.364 1.272,4.654 C1.125,5.618 1.317,6.635 1.929,7.489 C2.951,8.915 4.756,9.422 6.331,8.877 L11.6,16.23 C11.957,16.727 12.649,16.84 13.145,16.484 C13.642,16.126 13.756,15.432 13.399,14.935 L8.13,7.583 C9.148,6.26 9.247,4.384 8.224,2.957 C7.612,2.103 6.713,1.597 5.755,1.428 C6.585,2.666 6.295,4.346 5.078,5.224 Z" id="path-1"></path>
        <path d="M5.321,1.409 C5.642,0.859 6.221,0.551 6.816,0.551 C7.112,0.551 7.412,0.627 7.686,0.786 C7.686,0.786 9.549,2.703 11.128,4.297 C11.375,4.441 11.617,4.595 11.869,4.729 C14.139,5.35 16.648,6.016 16.648,6.016 C17.474,6.498 17.752,7.557 17.27,8.382 L12.695,16.224 C12.213,17.049 11.212,17.094 10.33,16.846 C10.33,16.846 7.99,16.232 5.565,15.567 L4.808,15.126 C3.054,13.351 1.367,11.616 1.367,11.616 C0.727,10.899 0.263,10.076 0.745,9.251 L5.321,1.409 Z M1.803,10.869 C1.803,10.869 3.537,12.648 5.257,14.385 L10.704,5.051 L7.251,1.534 C6.839,1.293 6.308,1.433 6.068,1.845 L1.492,9.687 C1.25,10.099 1.446,10.505 1.803,10.869 Z M10.765,16.099 C10.923,16.134 11.079,16.157 11.227,16.157 C11.525,16.157 11.787,16.064 11.948,15.789 L16.523,7.946 C16.765,7.534 16.625,7.004 16.213,6.763 L11.451,5.486 L6.009,14.814 C8.402,15.479 10.765,16.099 10.765,16.099 Z" id="path-3"></path>
        <path d="M5.321,1.409 C5.642,0.858 6.221,0.551 6.816,0.551 C7.112,0.551 7.412,0.627 7.686,0.786 C7.686,0.786 9.549,2.703 11.128,4.297 C11.375,4.441 11.617,4.595 11.869,4.729 C14.139,5.35 16.648,6.016 16.648,6.016 C17.474,6.498 17.752,7.557 17.27,8.382 L12.695,16.224 C12.213,17.049 11.212,17.094 10.33,16.846 C10.33,16.846 7.99,16.232 5.565,15.567 L4.808,15.126 C3.054,13.351 1.367,11.616 1.367,11.616 C0.727,10.899 0.263,10.076 0.745,9.251 L5.321,1.409 Z M1.803,10.869 C1.803,10.869 3.537,12.648 5.257,14.385 L10.704,5.051 L7.251,1.534 C6.839,1.293 6.308,1.433 6.068,1.845 L1.492,9.687 C1.25,10.099 1.446,10.505 1.803,10.869 Z M10.765,16.099 C10.922,16.134 11.079,16.157 11.227,16.157 C11.525,16.157 11.787,16.064 11.948,15.789 L16.523,7.946 C16.765,7.534 16.625,7.004 16.213,6.763 L11.451,5.486 L6.009,14.814 C8.402,15.479 10.765,16.099 10.765,16.099 Z" id="path-5"></path>
        <path d="M11.86,0.939 C12.111,0.692 12.44,0.568 12.769,0.568 C13.097,0.568 13.427,0.692 13.678,0.939 C14.18,1.436 14.18,2.24 13.678,2.735 L6.309,10.01 C6.366,10.545 6.289,11.213 5.75,11.759 C5.137,12.38 2.451,13.813 0.172,11.285 C0.172,11.285 1.27,11.332 1.686,10.386 C2.232,8.601 3.495,8.278 4.408,8.298 L11.86,0.939 Z M6.961,6.973 L7.567,7.571 L13.071,2.137 C13.239,1.971 13.239,1.703 13.071,1.539 C12.905,1.373 12.634,1.373 12.467,1.539 L6.961,6.973 Z M5.447,8.469 C5.447,8.469 5.996,9.012 6.053,9.066 L6.961,8.169 L6.356,7.571 L5.447,8.469 Z M1.686,11.583 C2.03,11.845 2.448,11.944 2.873,11.944 C3.838,11.944 4.847,11.435 5.144,11.161 C5.899,10.46 5.453,9.671 5.447,9.666 L4.841,9.066 C4.841,9.066 3.08,8.789 2.373,10.666 C2.078,11.278 1.686,11.583 1.686,11.583 Z" id="path-7"></path>
        <path d="M11.86,0.939 C12.111,0.692 12.44,0.568 12.769,0.568 C13.098,0.568 13.427,0.692 13.678,0.939 C14.18,1.436 14.18,2.24 13.678,2.735 L6.309,10.01 C6.366,10.545 6.289,11.213 5.75,11.759 C5.137,12.38 2.451,13.813 0.172,11.285 C0.172,11.285 1.27,11.332 1.686,10.386 C2.232,8.601 3.495,8.278 4.408,8.298 L11.86,0.939 Z M6.961,6.973 L7.567,7.571 L13.071,2.137 C13.239,1.971 13.239,1.703 13.071,1.539 C12.905,1.373 12.634,1.373 12.467,1.539 L6.961,6.973 Z M5.447,8.469 C5.447,8.469 5.996,9.012 6.053,9.066 L6.961,8.169 L6.356,7.571 L5.447,8.469 Z M1.686,11.583 C2.03,11.845 2.447,11.945 2.873,11.945 C3.838,11.945 4.848,11.435 5.144,11.161 C5.899,10.46 5.453,9.671 5.447,9.666 L4.841,9.066 C4.841,9.066 3.08,8.789 2.373,10.666 C2.078,11.278 1.686,11.583 1.686,11.583 Z" id="path-9"></path>
        <path d="M3.122,1.998 C4.36,0.966 5.857,0.46 7.329,0.46 C9.109,0.46 10.853,1.201 12.057,2.645 C12.159,2.766 12.247,2.896 12.336,3.024 C12.972,2.904 13.65,3.115 14.092,3.647 L15.863,5.769 C16.514,6.551 16.409,7.712 15.628,8.365 L16.513,9.426 C16.675,9.621 16.649,9.912 16.454,10.075 C16.258,10.237 15.968,10.211 15.805,10.016 L14.92,8.954 C14.92,8.954 14.213,9.548 14.212,9.544 C13.433,10.138 12.251,10.069 11.617,9.309 L9.847,7.186 C9.195,6.404 9.301,5.243 10.082,4.591 L11.498,3.411 C9.393,0.888 6.057,0.75 3.712,2.706 C1.367,4.661 1.041,8.134 3.007,10.491 L4.422,9.311 C5.203,8.66 6.365,8.765 7.017,9.546 L8.787,11.669 C9.42,12.429 9.276,13.603 8.552,14.265 C8.555,14.266 7.136,15.445 7.136,15.445 C6.355,16.096 5.193,15.991 4.542,15.209 L2.771,13.087 C2.328,12.555 2.244,11.851 2.475,11.247 C2.365,11.136 2.253,11.027 2.151,10.904 C-0.047,8.266 0.386,4.279 3.122,1.998 Z M13.415,5.711 C14,6.411 14.424,7.172 14.703,7.934 L15.037,7.656 C15.428,7.331 15.481,6.749 15.155,6.358 L13.385,4.236 C13.059,3.846 12.478,3.793 12.087,4.118 L11.865,4.304 C12.417,4.683 12.945,5.148 13.415,5.711 Z M12.325,8.719 C12.507,8.938 12.769,9.05 13.033,9.05 C13.241,9.05 13.451,8.98 13.623,8.837 L13.931,8.58 C13.697,7.792 13.298,7.008 12.707,6.301 C12.235,5.734 11.691,5.28 11.118,4.928 L10.672,5.299 C10.282,5.624 10.229,6.206 10.555,6.597 L12.325,8.719 Z M5.631,12.201 C6.222,12.909 6.921,13.443 7.653,13.815 L7.962,13.557 C8.352,13.232 8.405,12.649 8.079,12.259 L6.309,10.137 C5.983,9.746 5.402,9.694 5.011,10.019 L4.567,10.39 C4.811,11.018 5.159,11.634 5.631,12.201 Z M5.249,14.62 C5.431,14.838 5.693,14.951 5.956,14.951 C6.165,14.951 6.375,14.88 6.547,14.737 L6.881,14.458 C6.181,14.045 5.509,13.493 4.924,12.792 C4.454,12.227 4.092,11.624 3.819,11.014 L3.597,11.2 C3.206,11.524 3.153,12.106 3.479,12.496 L5.249,14.62 Z" id="path-11"></path>
        <path d="M3.122,1.998 C4.36,0.966 5.857,0.46 7.329,0.46 C9.109,0.46 10.853,1.2 12.057,2.645 C12.159,2.766 12.247,2.896 12.336,3.024 C12.972,2.904 13.65,3.115 14.092,3.647 L15.863,5.769 C16.514,6.551 16.409,7.712 15.628,8.365 L16.513,9.426 C16.675,9.621 16.649,9.912 16.454,10.075 C16.258,10.237 15.968,10.211 15.805,10.016 L14.92,8.954 C14.92,8.954 14.213,9.548 14.212,9.544 C13.433,10.138 12.251,10.069 11.617,9.309 L9.847,7.186 C9.195,6.404 9.301,5.243 10.082,4.591 L11.498,3.411 C9.393,0.888 6.057,0.75 3.712,2.706 C1.367,4.661 1.041,8.134 3.007,10.491 L4.422,9.311 C5.203,8.66 6.365,8.765 7.017,9.546 L8.787,11.669 C9.42,12.429 9.276,13.603 8.552,14.265 C8.555,14.266 7.136,15.445 7.136,15.445 C6.355,16.096 5.193,15.991 4.542,15.209 L2.771,13.087 C2.328,12.555 2.244,11.851 2.475,11.247 C2.365,11.136 2.253,11.027 2.151,10.904 C-0.047,8.266 0.386,4.279 3.122,1.998 Z M13.415,5.711 C14,6.411 14.424,7.172 14.703,7.934 L15.037,7.656 C15.428,7.331 15.481,6.749 15.155,6.358 L13.385,4.236 C13.059,3.846 12.478,3.793 12.087,4.118 L11.865,4.304 C12.417,4.683 12.945,5.148 13.415,5.711 Z M12.325,8.719 C12.507,8.938 12.769,9.05 13.033,9.05 C13.241,9.05 13.45,8.98 13.623,8.837 L13.931,8.58 C13.697,7.792 13.298,7.008 12.707,6.301 C12.235,5.734 11.691,5.28 11.118,4.928 L10.672,5.299 C10.282,5.624 10.229,6.206 10.555,6.597 L12.325,8.719 Z M5.631,12.201 C6.222,12.909 6.921,13.443 7.653,13.815 L7.962,13.557 C8.352,13.232 8.405,12.649 8.079,12.259 L6.309,10.137 C5.983,9.746 5.402,9.694 5.011,10.019 L4.567,10.39 C4.811,11.018 5.159,11.634 5.631,12.201 Z M5.249,14.62 C5.431,14.838 5.693,14.95 5.957,14.95 C6.165,14.95 6.375,14.88 6.547,14.737 L6.881,14.458 C6.181,14.045 5.509,13.493 4.924,12.792 C4.454,12.227 4.092,11.624 3.819,11.014 L3.597,11.2 C3.206,11.524 3.153,12.106 3.479,12.496 L5.249,14.62 Z" id="path-13"></path>
    </defs>
    <g id="Page-1" stroke="none" stroke-width="1" fill="none" fill-rule="evenodd">
        <g id="Desktop-HD-Copy-6" transform="translate(-637.000000, -2711.000000)">
            <g id="Page-1" transform="translate(637.000000, 2711.000000)">
                <g id="Group-29" transform="translate(92.000000, 84.270000)">
                    <path d="M67.6132,34.0685 C67.6132,52.5705 52.6142,67.5685 34.1132,67.5685 C15.6122,67.5685 0.6132,52.5705 0.6132,34.0685 C0.6132,15.5665 15.6122,0.5685 34.1132,0.5685 C52.6142,0.5685 67.6132,15.5665 67.6132,34.0685" id="Fill-1" fill="#F0F1F9"></path>
                    <path d="M58.3163,12.5685 L67.4583,12.5685 C67.4583,12.5685 68.9673,19.7685 62.5573,27.0285 C58.3923,31.7465 46.3323,30.3595 38.5563,30.4325 C34.7273,30.4675 31.6133,26.9535 31.6133,22.6165 L31.6133,12.5685 L52.3493,12.5685" id="Fill-3" fill="#1E90FF"></path>
                    <path d="M26.725,27.0538 C24.482,30.2158 21.893,29.4988 21.893,29.4988 C21.893,29.4988 20.782,20.1708 22.989,15.9158 C25.178,11.6968 28.459,12.6638 28.459,12.6638 C28.459,12.6638 29.379,23.3118 26.725,27.0538" id="Fill-5" fill="#1E90FF"></path>
                    <path d="M19.6132,30.5685 L19.6132,47.3555 C19.6132,57.9665 30.3582,66.5685 43.6132,66.5685 C56.8682,66.5685 67.6132,57.9665 67.6132,47.3555 L67.3282,22.5685" id="Stroke-7" stroke="#333366" stroke-width="1.886" stroke-linecap="round"></path>
                    <path d="M26.0058,27.5792 C22.9088,31.0742 19.3338,30.2822 19.3338,30.2822 C19.3338,30.2822 16.9528,20.5682 20.8468,15.2692 C24.1388,10.7902 28.4008,11.6742 28.4008,11.6742 C28.4008,11.6742 29.6698,23.4432 26.0058,27.5792 Z" id="Stroke-9" stroke="#333366" stroke-width="1.998"></path>
                    <path d="M59.0492,11.6241 L69.4692,11.6241 C69.4692,11.6241 71.0272,18.5681 63.8832,27.1041 C59.4192,32.4391 45.3902,30.6721 36.5272,30.7491 C32.1622,30.7871 28.6132,27.0241 28.6132,22.3811 L28.6132,11.6241 L51.6132,11.6241" id="Stroke-11" stroke="#333366" stroke-width="1.939" stroke-linecap="round"></path>
                    <path d="M56.2758,11.9044 C56.2758,12.6414 55.6778,13.2404 54.9408,13.2404 C54.2028,13.2404 53.6048,12.6414 53.6048,11.9044 C53.6048,11.1664 54.2028,10.5684 54.9408,10.5684 C55.6778,10.5684 56.2758,11.1664 56.2758,11.9044" id="Fill-13" fill="#333366"></path>
                    <path d="M35.7694,45.4122 C35.7694,47.1552 34.3564,48.5682 32.6134,48.5682 C30.8704,48.5682 29.4574,47.1552 29.4574,45.4122 C29.4574,43.6692 30.8704,42.2562 32.6134,42.2562 C34.3564,42.2562 35.7694,43.6692 35.7694,45.4122" id="Fill-15" fill="#333366"></path>
                    <path d="M35.7694,45.4122 C35.7694,47.1552 34.3564,48.5682 32.6134,48.5682 C30.8704,48.5682 29.4574,47.1552 29.4574,45.4122 C29.4574,43.6692 30.8704,42.2562 32.6134,42.2562 C34.3564,42.2562 35.7694,43.6692 35.7694,45.4122 Z" id="Stroke-17" stroke="#FFFFFF" stroke-width="0.478" stroke-linecap="round"></path>
                    <path d="M57.847,45.4904 C57.847,47.2334 56.434,48.6464 54.691,48.6464 C52.948,48.6464 51.535,47.2334 51.535,45.4904 C51.535,43.7474 52.948,42.3344 54.691,42.3344 C56.434,42.3344 57.847,43.7474 57.847,45.4904" id="Fill-19" fill="#333366"></path>
                    <path d="M57.847,45.4904 C57.847,47.2334 56.434,48.6464 54.691,48.6464 C52.948,48.6464 51.535,47.2334 51.535,45.4904 C51.535,43.7474 52.948,42.3344 54.691,42.3344 C56.434,42.3344 57.847,43.7474 57.847,45.4904 Z" id="Stroke-21" stroke="#FFFFFF" stroke-width="0.478" stroke-linecap="round"></path>
                    <path d="M18.6132,35.5939 C16.3762,35.7719 14.6132,37.7099 14.6132,40.0809 C14.6132,42.4519 16.3762,44.3909 18.6132,44.5689" id="Stroke-23" stroke="#333366" stroke-width="2.309" stroke-linecap="round"></path>
                    <path d="M68.6132,44.5685 C70.8502,44.3905 72.6132,42.4525 72.6132,40.0815 C72.6132,37.7105 70.8502,35.7715 68.6132,35.5935" id="Stroke-25" stroke="#333366" stroke-width="2.309" stroke-linecap="round"></path>
                    <path d="M36.6332,54.1066 C36.6262,54.2226 36.6132,54.3356 36.6132,54.4536 C36.6132,58.0856 39.9712,61.0306 44.1132,61.0306 C48.2552,61.0306 51.6132,58.0856 51.6132,54.4536 C51.6132,54.3356 51.6002,54.2226 51.5932,54.1066 L36.6332,54.1066 Z" id="Stroke-27" stroke="#333366" stroke-width="2" stroke-linecap="round" stroke-linejoin="round"></path>
                </g>
                <g id="Group-32" transform="translate(98.000000, 50.270000)">
                    <mask id="mask-2" fill="white">
                        <use xlink:href="#path-1"></use>
                    </mask>
                    <g id="Clip-31"></g>
                    <polygon id="Stroke-30" stroke="#A5D3FF" mask="url(#mask-2)" points="-3.8624 17.0958 -0.6154 -2.7022 19.1586 0.5408 15.9116 20.3388"></polygon>
                </g>
                <path d="M106.2245,53.2272 C107.2465,54.6542 107.1485,56.5302 106.1295,57.8532 L111.3995,65.2052 C111.7555,65.7022 111.6415,66.3952 111.1455,66.7532 C110.6485,67.1102 109.9575,66.9972 109.6005,66.4992 L104.3305,59.1472 C102.7555,59.6912 100.9515,59.1852 99.9295,57.7592 C99.3165,56.9052 99.1255,55.8882 99.2715,54.9242 C100.1765,56.1082 101.8585,56.3712 103.0775,55.4942 C104.2955,54.6172 104.5845,52.9362 103.7545,51.6982 C104.7125,51.8672 105.6125,52.3732 106.2245,53.2272 Z M101.7605,50.7032 C102.0185,51.0222 102.3305,51.5332 102.8125,52.2712 C103.3795,53.0622 103.2215,54.0242 102.4325,54.5922 C101.6415,55.1622 100.6815,55.0042 100.1145,54.2122 C99.5915,53.4842 98.9615,52.6892 98.9565,52.6992 C97.8195,54.3822 97.7785,56.6612 99.0295,58.4072 C100.1695,59.9982 102.0705,60.7092 103.8765,60.4152 L108.7015,67.1472 C109.4145,68.1422 110.7975,68.3692 111.7905,67.6542 C112.7845,66.9382 113.0115,65.5522 112.2985,64.5572 L107.4745,57.8272 C108.3305,56.2042 108.2645,54.1712 107.1235,52.5812 C105.8745,50.8362 103.7125,50.1632 101.7605,50.7032 Z" id="Stroke-33" stroke="#A5D3FF"></path>
                <g id="Group-37" transform="translate(185.000000, 90.270000)">
                    <mask id="mask-4" fill="white">
                        <use xlink:href="#path-3"></use>
                    </mask>
                    <g id="Clip-36"></g>
                    <polygon id="Stroke-35" stroke="#A5D3FF" mask="url(#mask-4)" points="5.5375 -2.5751 20.6325 6.2339 11.8245 21.3279 -3.2705 12.5199"></polygon>
                </g>
                <g id="Group-40" transform="translate(185.000000, 90.270000)">
                    <mask id="mask-6" fill="white">
                        <use xlink:href="#path-5"></use>
                    </mask>
                    <g id="Clip-39"></g>
                    <polygon id="Stroke-38" stroke="#A5D3FF" mask="url(#mask-6)" points="-1085.297 624.8264 -757.23 1033.8004 265.487 213.4034 -62.58 -195.5696"></polygon>
                </g>
                <g id="Group-139" transform="translate(16.000000, 5.270000)">
                    <path d="M180.9476,100.7882 C180.7076,101.2002 180.2406,101.2042 179.7646,101.0992 C179.7646,101.0992 177.4026,100.4782 175.0086,99.8132 L180.4506,90.4862 L185.2126,91.7642 C185.6246,92.0042 185.7646,92.5332 185.5236,92.9462 L180.9476,100.7882 Z M174.2576,99.3862 C172.5376,97.6472 170.8026,95.8692 170.8026,95.8692 C170.4466,95.5052 170.2506,95.0992 170.4916,94.6862 L175.0676,86.8452 C175.3076,86.4332 175.8386,86.2932 176.2506,86.5332 L179.7046,90.0512 L174.2576,99.3862 Z M185.6486,91.0172 C185.6486,91.0172 183.1396,90.3502 180.8686,89.7282 C180.6166,89.5952 180.3746,89.4402 180.1276,89.2972 C178.5496,87.7022 176.6856,85.7862 176.6856,85.7862 C175.8616,85.3062 174.8016,85.5842 174.3206,86.4092 L169.7446,94.2512 C169.2636,95.0762 169.7266,95.8982 170.3666,96.6162 C170.3666,96.6162 172.0536,98.3512 173.8086,100.1262 L174.5646,100.5672 C176.9906,101.2322 179.3296,101.8462 179.3296,101.8462 C180.2116,102.0952 181.2136,102.0492 181.6946,101.2242 L186.2706,93.3822 C186.7516,92.5572 186.4736,91.4982 185.6486,91.0172 Z" id="Stroke-41" stroke="#A5D3FF"></path>
                    <path d="M213.4569,175.588 C213.4569,180.906 209.1449,185.218 203.8279,185.218 C198.5089,185.218 194.1979,180.906 194.1979,175.588 C194.1979,170.27 198.5089,165.958 203.8279,165.958 C209.1449,165.958 213.4569,170.27 213.4569,175.588" id="Fill-43" fill="#F0F1F9"></path>
                    <path d="M209.8007,168.6349 C211.6797,170.5489 212.8397,173.1739 212.8397,176.0689 C212.8397,181.9299 208.0877,186.6819 202.2267,186.6819 C196.3647,186.6819 191.6137,181.9299 191.6137,176.0689 C191.6137,170.2069 196.3647,165.4549 202.2267,165.4549 C202.9587,165.4549 203.6747,165.5299 204.3647,165.6709" id="Stroke-45" stroke="#333366" stroke-width="1.464" stroke-linecap="round"></path>
                    <path d="M208.201,167.1652 C208.201,167.7052 207.763,168.1432 207.223,168.1432 C206.683,168.1432 206.245,167.7052 206.245,167.1652 C206.245,166.6252 206.683,166.1872 207.223,166.1872 C207.763,166.1872 208.201,166.6252 208.201,167.1652" id="Fill-47" fill="#333366"></path>
                    <path d="M198.9325,174.1241 C198.9325,174.9331 198.2775,175.5881 197.4685,175.5881 C196.6605,175.5881 196.0045,174.9331 196.0045,174.1241 C196.0045,173.3151 196.6605,172.6601 197.4685,172.6601 C198.2775,172.6601 198.9325,173.3151 198.9325,174.1241" id="Fill-49" fill="#333366"></path>
                    <path d="M198.9325,179.7286 C199.4125,181.0066 200.7045,181.9236 202.2265,181.9236 C203.7485,181.9236 205.0395,181.0066 205.5195,179.7286" id="Stroke-51" stroke="#333366" stroke-width="1.209" stroke-linecap="round"></path>
                    <path d="M207.83,174.1818 C207.83,175.0218 207.149,175.7028 206.309,175.7028 C205.469,175.7028 204.788,175.0218 204.788,174.1818 C204.788,173.3408 205.469,172.6608 206.309,172.6608 C207.149,172.6608 207.83,173.3408 207.83,174.1818" id="Fill-53" fill="#333366"></path>
                    <path d="M132.4569,210.588 C132.4569,215.906 128.1449,220.218 122.8279,220.218 C117.5089,220.218 113.1979,215.906 113.1979,210.588 C113.1979,205.27 117.5089,200.958 122.8279,200.958 C128.1449,200.958 132.4569,205.27 132.4569,210.588" id="Fill-55" fill="#F0F1F9"></path>
                    <path d="M128.8007,203.6349 C130.6797,205.5489 131.8397,208.1739 131.8397,211.0689 C131.8397,216.9299 127.0877,221.6819 121.2267,221.6819 C115.3647,221.6819 110.6137,216.9299 110.6137,211.0689 C110.6137,205.2069 115.3647,200.4549 121.2267,200.4549 C121.9587,200.4549 122.6747,200.5299 123.3647,200.6709" id="Stroke-57" stroke="#333366" stroke-width="1.464" stroke-linecap="round"></path>
                    <path d="M127.201,202.1652 C127.201,202.7052 126.763,203.1432 126.223,203.1432 C125.683,203.1432 125.245,202.7052 125.245,202.1652 C125.245,201.6252 125.683,201.1872 126.223,201.1872 C126.763,201.1872 127.201,201.6252 127.201,202.1652" id="Fill-59" fill="#333366"></path>
                    <path d="M117.9325,209.1241 C117.9325,209.9331 117.2775,210.5881 116.4685,210.5881 C115.6605,210.5881 115.0045,209.9331 115.0045,209.1241 C115.0045,208.3151 115.6605,207.6601 116.4685,207.6601 C117.2775,207.6601 117.9325,208.3151 117.9325,209.1241" id="Fill-61" fill="#333366"></path>
                    <path d="M117.9325,214.7286 C118.4125,216.0066 119.7045,216.9236 121.2265,216.9236 C122.7485,216.9236 124.0395,216.0066 124.5195,214.7286" id="Stroke-63" stroke="#333366" stroke-width="1.209" stroke-linecap="round"></path>
                    <path d="M126.83,209.1818 C126.83,210.0218 126.149,210.7028 125.309,210.7028 C124.469,210.7028 123.788,210.0218 123.788,209.1818 C123.788,208.3408 124.469,207.6608 125.309,207.6608 C126.149,207.6608 126.83,208.3408 126.83,209.1818" id="Fill-65" fill="#333366"></path>
                    <path d="M54.457,178.588 C54.457,183.906 50.145,188.218 44.828,188.218 C39.509,188.218 35.198,183.906 35.198,178.588 C35.198,173.27 39.509,168.958 44.828,168.958 C50.145,168.958 54.457,173.27 54.457,178.588" id="Fill-67" fill="#F0F1F9"></path>
                    <path d="M50.8007,171.6349 C52.6797,173.5489 53.8397,176.1739 53.8397,179.0689 C53.8397,184.9299 49.0877,189.6819 43.2267,189.6819 C37.3647,189.6819 32.6137,184.9299 32.6137,179.0689 C32.6137,173.2069 37.3647,168.4549 43.2267,168.4549 C43.9587,168.4549 44.6747,168.5299 45.3647,168.6709" id="Stroke-69" stroke="#333366" stroke-width="1.464" stroke-linecap="round"></path>
                    <path d="M49.2011,170.1652 C49.2011,170.7052 48.7631,171.1432 48.2231,171.1432 C47.6831,171.1432 47.2451,170.7052 47.2451,170.1652 C47.2451,169.6252 47.6831,169.1872 48.2231,169.1872 C48.7631,169.1872 49.2011,169.6252 49.2011,170.1652" id="Fill-71" fill="#333366"></path>
                    <path d="M39.9326,177.1241 C39.9326,177.9331 39.2776,178.5881 38.4686,178.5881 C37.6606,178.5881 37.0046,177.9331 37.0046,177.1241 C37.0046,176.3151 37.6606,175.6601 38.4686,175.6601 C39.2776,175.6601 39.9326,176.3151 39.9326,177.1241" id="Fill-73" fill="#333366"></path>
                    <path d="M39.9326,182.7286 C40.4126,184.0066 41.7046,184.9236 43.2266,184.9236 C44.7486,184.9236 46.0396,184.0066 46.5196,182.7286" id="Stroke-75" stroke="#333366" stroke-width="1.209" stroke-linecap="round"></path>
                    <path d="M48.83,177.1818 C48.83,178.0218 48.149,178.7028 47.309,178.7028 C46.469,178.7028 45.788,178.0218 45.788,177.1818 C45.788,176.3408 46.469,175.6608 47.309,175.6608 C48.149,175.6608 48.83,176.3408 48.83,177.1818" id="Fill-77" fill="#333366"></path>
                    <path d="M22.457,122.588 C22.457,127.906 18.145,132.218 12.828,132.218 C7.509,132.218 3.198,127.906 3.198,122.588 C3.198,117.27 7.509,112.958 12.828,112.958 C18.145,112.958 22.457,117.27 22.457,122.588" id="Fill-79" fill="#F0F1F9"></path>
                    <path d="M18.8007,115.6349 C20.6797,117.5489 21.8397,120.1739 21.8397,123.0689 C21.8397,128.9299 17.0877,133.6819 11.2267,133.6819 C5.3647,133.6819 0.6137,128.9299 0.6137,123.0689 C0.6137,117.2069 5.3647,112.4549 11.2267,112.4549 C11.9587,112.4549 12.6747,112.5299 13.3647,112.6709" id="Stroke-81" stroke="#333366" stroke-width="1.464" stroke-linecap="round"></path>
                    <path d="M17.2011,114.1652 C17.2011,114.7052 16.7631,115.1432 16.2231,115.1432 C15.6831,115.1432 15.2451,114.7052 15.2451,114.1652 C15.2451,113.6252 15.6831,113.1872 16.2231,113.1872 C16.7631,113.1872 17.2011,113.6252 17.2011,114.1652" id="Fill-83" fill="#333366"></path>
                    <path d="M7.9326,121.1241 C7.9326,121.9331 7.2776,122.5881 6.4686,122.5881 C5.6606,122.5881 5.0046,121.9331 5.0046,121.1241 C5.0046,120.3151 5.6606,119.6601 6.4686,119.6601 C7.2776,119.6601 7.9326,120.3151 7.9326,121.1241" id="Fill-85" fill="#333366"></path>
                    <path d="M7.9326,126.7286 C8.4126,128.0066 9.7046,128.9236 11.2266,128.9236 C12.7486,128.9236 14.0396,128.0066 14.5196,126.7286" id="Stroke-87" stroke="#333366" stroke-width="1.209" stroke-linecap="round"></path>
                    <path d="M16.83,121.1818 C16.83,122.0218 16.149,122.7028 15.309,122.7028 C14.469,122.7028 13.788,122.0218 13.788,121.1818 C13.788,120.3408 14.469,119.6608 15.309,119.6608 C16.149,119.6608 16.83,120.3408 16.83,121.1818" id="Fill-89" fill="#333366"></path>
                    <path d="M52.457,52.588 C52.457,57.906 48.145,62.218 42.828,62.218 C37.509,62.218 33.198,57.906 33.198,52.588 C33.198,47.27 37.509,42.958 42.828,42.958 C48.145,42.958 52.457,47.27 52.457,52.588" id="Fill-91" fill="#F0F1F9"></path>
                    <path d="M48.8007,45.6349 C50.6797,47.5489 51.8397,50.1739 51.8397,53.0689 C51.8397,58.9299 47.0877,63.6819 41.2267,63.6819 C35.3647,63.6819 30.6137,58.9299 30.6137,53.0689 C30.6137,47.2069 35.3647,42.4549 41.2267,42.4549 C41.9587,42.4549 42.6747,42.5299 43.3647,42.6709" id="Stroke-93" stroke="#333366" stroke-width="1.464" stroke-linecap="round"></path>
                    <path d="M47.2011,44.1652 C47.2011,44.7052 46.7631,45.1432 46.2231,45.1432 C45.6831,45.1432 45.2451,44.7052 45.2451,44.1652 C45.2451,43.6252 45.6831,43.1872 46.2231,43.1872 C46.7631,43.1872 47.2011,43.6252 47.2011,44.1652" id="Fill-95" fill="#333366"></path>
                    <path d="M37.9326,51.1241 C37.9326,51.9331 37.2776,52.5881 36.4686,52.5881 C35.6606,52.5881 35.0046,51.9331 35.0046,51.1241 C35.0046,50.3151 35.6606,49.6601 36.4686,49.6601 C37.2776,49.6601 37.9326,50.3151 37.9326,51.1241" id="Fill-97" fill="#333366"></path>
                    <path d="M37.9326,56.7286 C38.4126,58.0066 39.7046,58.9236 41.2266,58.9236 C42.7486,58.9236 44.0396,58.0066 44.5196,56.7286" id="Stroke-99" stroke="#333366" stroke-width="1.209" stroke-linecap="round"></path>
                    <path d="M46.83,51.1818 C46.83,52.0218 46.149,52.7028 45.309,52.7028 C44.469,52.7028 43.788,52.0218 43.788,51.1818 C43.788,50.3408 44.469,49.6608 45.309,49.6608 C46.149,49.6608 46.83,50.3408 46.83,51.1818" id="Fill-101" fill="#333366"></path>
                    <path d="M131.4569,10.588 C131.4569,15.906 127.1449,20.218 121.8279,20.218 C116.5089,20.218 112.1979,15.906 112.1979,10.588 C112.1979,5.27 116.5089,0.958 121.8279,0.958 C127.1449,0.958 131.4569,5.27 131.4569,10.588" id="Fill-103" fill="#F0F1F9"></path>
                    <path d="M127.8007,3.6349 C129.6797,5.5489 130.8397,8.1739 130.8397,11.0689 C130.8397,16.9299 126.0877,21.6819 120.2267,21.6819 C114.3647,21.6819 109.6137,16.9299 109.6137,11.0689 C109.6137,5.2069 114.3647,0.4549 120.2267,0.4549 C120.9587,0.4549 121.6747,0.5299 122.3647,0.6709" id="Stroke-105" stroke="#333366" stroke-width="1.464" stroke-linecap="round"></path>
                    <path d="M126.201,2.1652 C126.201,2.7052 125.763,3.1432 125.223,3.1432 C124.683,3.1432 124.245,2.7052 124.245,2.1652 C124.245,1.6252 124.683,1.1872 125.223,1.1872 C125.763,1.1872 126.201,1.6252 126.201,2.1652" id="Fill-107" fill="#333366"></path>
                    <path d="M116.9325,9.1241 C116.9325,9.9331 116.2775,10.5881 115.4685,10.5881 C114.6605,10.5881 114.0045,9.9331 114.0045,9.1241 C114.0045,8.3151 114.6605,7.6601 115.4685,7.6601 C116.2775,7.6601 116.9325,8.3151 116.9325,9.1241" id="Fill-109" fill="#333366"></path>
                    <path d="M116.9325,14.7286 C117.4125,16.0066 118.7045,16.9236 120.2265,16.9236 C121.7485,16.9236 123.0395,16.0066 123.5195,14.7286" id="Stroke-111" stroke="#333366" stroke-width="1.209" stroke-linecap="round"></path>
                    <path d="M125.83,9.1818 C125.83,10.0218 125.149,10.7028 124.309,10.7028 C123.469,10.7028 122.788,10.0218 122.788,9.1818 C122.788,8.3408 123.469,7.6608 124.309,7.6608 C125.149,7.6608 125.83,8.3408 125.83,9.1818" id="Fill-113" fill="#333366"></path>
                    <path d="M238.4569,119.588 C238.4569,124.906 234.1449,129.218 228.8269,129.218 C223.5089,129.218 219.1979,124.906 219.1979,119.588 C219.1979,114.27 223.5089,109.958 228.8269,109.958 C234.1449,109.958 238.4569,114.27 238.4569,119.588" id="Fill-115" fill="#F0F1F9"></path>
                    <path d="M234.8007,112.6349 C236.6807,114.5489 237.8397,117.1739 237.8397,120.0689 C237.8397,125.9299 233.0877,130.6819 227.2267,130.6819 C221.3647,130.6819 216.6137,125.9299 216.6137,120.0689 C216.6137,114.2069 221.3647,109.4549 227.2267,109.4549 C227.9587,109.4549 228.6747,109.5299 229.3647,109.6709" id="Stroke-117" stroke="#333366" stroke-width="1.464" stroke-linecap="round"></path>
                    <path d="M233.201,111.1652 C233.201,111.7052 232.764,112.1432 232.223,112.1432 C231.683,112.1432 231.246,111.7052 231.246,111.1652 C231.246,110.6252 231.683,110.1872 232.223,110.1872 C232.764,110.1872 233.201,110.6252 233.201,111.1652" id="Fill-119" fill="#333366"></path>
                    <path d="M223.9325,118.1241 C223.9325,118.9331 223.2775,119.5881 222.4685,119.5881 C221.6605,119.5881 221.0045,118.9331 221.0045,118.1241 C221.0045,117.3151 221.6605,116.6601 222.4685,116.6601 C223.2775,116.6601 223.9325,117.3151 223.9325,118.1241" id="Fill-121" fill="#333366"></path>
                    <path d="M223.9325,123.7286 C224.4125,125.0066 225.7035,125.9236 227.2265,125.9236 C228.7475,125.9236 230.0385,125.0066 230.5205,123.7286" id="Stroke-123" stroke="#333366" stroke-width="1.209" stroke-linecap="round"></path>
                    <path d="M232.83,118.1818 C232.83,119.0218 232.149,119.7028 231.309,119.7028 C230.469,119.7028 229.788,119.0218 229.788,118.1818 C229.788,117.3408 230.469,116.6608 231.309,116.6608 C232.149,116.6608 232.83,117.3408 232.83,118.1818" id="Fill-125" fill="#333366"></path>
                    <path d="M211.4569,53.588 C211.4569,58.906 207.1449,63.218 201.8279,63.218 C196.5089,63.218 192.1979,58.906 192.1979,53.588 C192.1979,48.27 196.5089,43.958 201.8279,43.958 C207.1449,43.958 211.4569,48.27 211.4569,53.588" id="Fill-127" fill="#F0F1F9"></path>
                    <path d="M207.8007,46.6349 C209.6797,48.5489 210.8397,51.1739 210.8397,54.0689 C210.8397,59.9299 206.0877,64.6819 200.2267,64.6819 C194.3647,64.6819 189.6137,59.9299 189.6137,54.0689 C189.6137,48.2069 194.3647,43.4549 200.2267,43.4549 C200.9587,43.4549 201.6747,43.5299 202.3647,43.6709" id="Stroke-129" stroke="#333366" stroke-width="1.464" stroke-linecap="round"></path>
                    <path d="M206.201,45.1652 C206.201,45.7052 205.763,46.1432 205.223,46.1432 C204.683,46.1432 204.245,45.7052 204.245,45.1652 C204.245,44.6252 204.683,44.1872 205.223,44.1872 C205.763,44.1872 206.201,44.6252 206.201,45.1652" id="Fill-131" fill="#333366"></path>
                    <path d="M196.9325,52.1241 C196.9325,52.9331 196.2775,53.5881 195.4685,53.5881 C194.6605,53.5881 194.0045,52.9331 194.0045,52.1241 C194.0045,51.3151 194.6605,50.6601 195.4685,50.6601 C196.2775,50.6601 196.9325,51.3151 196.9325,52.1241" id="Fill-133" fill="#333366"></path>
                    <path d="M196.9325,57.7286 C197.4125,59.0066 198.7045,59.9236 200.2265,59.9236 C201.7485,59.9236 203.0395,59.0066 203.5195,57.7286" id="Stroke-135" stroke="#333366" stroke-width="1.209" stroke-linecap="round"></path>
                    <path d="M205.83,52.1818 C205.83,53.0218 205.149,53.7028 204.309,53.7028 C203.469,53.7028 202.788,53.0218 202.788,52.1818 C202.788,51.3408 203.469,50.6608 204.309,50.6608 C205.149,50.6608 205.83,51.3408 205.83,52.1818" id="Fill-137" fill="#333366"></path>
                </g>
                <g id="Group-142" transform="translate(145.000000, 174.270000)">
                    <mask id="mask-8" fill="white">
                        <use xlink:href="#path-7"></use>
                    </mask>
                    <g id="Clip-141"></g>
                    <polygon id="Stroke-140" stroke="#A5D3FF" mask="url(#mask-8)" points="-1.608 14.508 15.834 14.508 15.834 -1.212 -1.608 -1.212"></polygon>
                </g>
                <g id="Group-145" transform="translate(145.000000, 174.270000)">
                    <mask id="mask-10" fill="white">
                        <use xlink:href="#path-9"></use>
                    </mask>
                    <g id="Clip-144"></g>
                    <polygon id="Stroke-143" stroke="#A5D3FF" mask="url(#mask-10)" points="-441.397 1210.5 71.185 1210.5 71.185 -71.313 -441.397 -71.313"></polygon>
                </g>
                <path d="M158.0717,176.4068 L152.5677,181.8418 L151.9617,181.2428 L157.4667,175.8078 C157.6337,175.6428 157.9047,175.6428 158.0717,175.8078 C158.2387,175.9728 158.2387,176.2408 158.0717,176.4068 Z M151.0527,183.3368 C150.9967,183.2818 150.4467,182.7388 150.4467,182.7388 L151.3557,181.8418 L151.9617,182.4388 L151.0527,183.3368 Z M150.1437,185.4298 C149.7177,185.8268 147.8097,186.7098 146.6867,185.8528 C146.6867,185.8528 147.0777,185.5488 147.3737,184.9358 C148.0797,183.0588 149.8417,183.3368 149.8417,183.3368 L150.4467,183.9348 C150.4527,183.9408 150.8997,184.7298 150.1437,185.4298 Z M158.6777,175.2098 C158.1757,174.7148 157.3627,174.7148 156.8607,175.2098 L149.4077,182.5678 C148.4957,182.5478 147.2317,182.8708 146.6867,184.6568 C146.2697,185.6018 145.1717,185.5538 145.1717,185.5538 C147.4507,188.0828 150.1367,186.6498 150.7497,186.0288 C151.2887,185.4828 151.3667,184.8148 151.3087,184.2798 L158.6777,177.0048 C159.1797,176.5098 159.1797,175.7058 158.6777,175.2098 Z" id="Stroke-146" stroke="#A5D3FF"></path>
                <g id="Group-150" transform="translate(69.000000, 144.270000)">
                    <mask id="mask-12" fill="white">
                        <use xlink:href="#path-11"></use>
                    </mask>
                    <g id="Clip-149"></g>
                    <polygon id="Stroke-148" stroke="#A5D3FF" mask="url(#mask-12)" points="-4.5743 6.5343 8.9667 -4.7577 20.2587 8.7833 6.7177 20.0753"></polygon>
                </g>
                <g id="Group-153" transform="translate(69.000000, 144.270000)">
                    <mask id="mask-14" fill="white">
                        <use xlink:href="#path-13"></use>
                    </mask>
                    <g id="Clip-152"></g>
                    <polygon id="Stroke-151" stroke="#A5D3FF" mask="url(#mask-14)" points="800.0975 605.3723 963.9025 222.7513 7.0845 -186.8767 -156.7205 195.7443"></polygon>
                </g>
                <g id="Group-186" transform="translate(0.000000, 0.270000)">
                    <path d="M84.1552,150.3585 C84.4812,150.7495 84.4282,151.3315 84.0372,151.6565 L83.7032,151.9345 C83.4232,151.1715 82.9992,150.4115 82.4152,149.7115 C81.9452,149.1475 81.4172,148.6825 80.8652,148.3035 L81.0872,148.1185 C81.4782,147.7935 82.0592,147.8455 82.3852,148.2365 L84.1552,150.3585 Z M82.9312,152.5795 L82.6222,152.8375 C82.2322,153.1625 81.6512,153.1095 81.3252,152.7185 L79.5542,150.5965 C79.2292,150.2065 79.2812,149.6245 79.6722,149.2985 L80.1172,148.9275 C80.6912,149.2805 81.2352,149.7335 81.7072,150.3005 C82.2982,151.0075 82.6972,151.7925 82.9312,152.5795 Z M72.8192,155.0135 C73.0922,155.6245 73.4542,156.2275 73.9242,156.7915 C74.5092,157.4925 75.1812,158.0455 75.8812,158.4585 L75.5472,158.7365 C75.1562,159.0625 74.5742,159.0095 74.2492,158.6195 L72.4792,156.4965 C72.1532,156.1055 72.2062,155.5245 72.5962,155.1995 L72.8192,155.0135 Z M73.5672,154.3895 L74.0112,154.0185 C74.4022,153.6935 74.9842,153.7465 75.3092,154.1365 L77.0792,156.2585 C77.4052,156.6495 77.3522,157.2315 76.9622,157.5565 L76.6532,157.8145 C75.9212,157.4435 75.2212,156.9085 74.6322,156.2015 C74.1582,155.6335 73.8112,155.0175 73.5672,154.3895 Z M81.3372,147.0235 C81.2472,146.8955 81.1592,146.7665 81.0572,146.6445 C78.8582,144.0055 74.8572,143.7165 72.1222,145.9985 C69.3862,148.2795 68.9522,152.2665 71.1512,154.9045 C71.2532,155.0265 71.3652,155.1355 71.4752,155.2475 C71.2432,155.8505 71.3282,156.5545 71.7712,157.0875 L73.5412,159.2095 C74.1932,159.9915 75.3552,160.0955 76.1362,159.4445 C76.1362,159.4445 77.5552,158.2655 77.5512,158.2645 C78.2762,157.6035 78.4212,156.4285 77.7872,155.6695 L76.0172,153.5465 C75.3652,152.7645 74.2032,152.6595 73.4222,153.3115 L72.0072,154.4915 C70.0412,152.1335 70.3672,148.6615 72.7122,146.7065 C75.0572,144.7505 78.3932,144.8875 80.4972,147.4115 L79.0822,148.5905 C78.3012,149.2435 78.1962,150.4045 78.8472,151.1865 L80.6172,153.3085 C81.2512,154.0695 82.4322,154.1375 83.2122,153.5445 C83.2132,153.5475 83.9202,152.9545 83.9202,152.9545 L84.8052,154.0155 C84.9682,154.2115 85.2582,154.2375 85.4542,154.0745 C85.6492,153.9115 85.6762,153.6215 85.5122,153.4255 L84.6282,152.3645 C85.4092,151.7125 85.5142,150.5505 84.8632,149.7685 L83.0932,147.6465 C82.6502,147.1145 81.9712,146.9045 81.3372,147.0235 Z" id="Stroke-154" stroke="#A5D3FF"></path>
                    <path d="M18.1132,84.8673 C18.1132,85.7653 17.3842,86.4943 16.4862,86.4943 C15.5872,86.4943 14.8592,85.7653 14.8592,84.8673 C14.8592,83.9693 15.5872,83.2403 16.4862,83.2403 C17.3842,83.2403 18.1132,83.9693 18.1132,84.8673" id="Fill-156" fill="#5F609E"></path>
                    <path d="M162.181,30.0743 C161.335,29.7703 160.895,28.8393 161.199,27.9933 C161.502,27.1473 162.434,26.7073 163.28,27.0113 C164.126,27.3143 164.565,28.2463 164.262,29.0923 C163.959,29.9373 163.027,30.3783 162.181,30.0743" id="Fill-158" fill="#FFECBC"></path>
                    <path d="M218.6669,21.5724 C217.8209,21.2684 217.3809,20.3374 217.6849,19.4914 C217.9879,18.6444 218.9189,18.2054 219.7659,18.5094 C220.6109,18.8114 221.0509,19.7434 220.7479,20.5904 C220.4439,21.4354 219.5129,21.8754 218.6669,21.5724" id="Fill-160" fill="#6AD7E5"></path>
                    <path d="M262.037,141.8829 C262.446,141.0829 263.426,140.7659 264.226,141.1759 C265.026,141.5849 265.343,142.5649 264.933,143.3649 C264.524,144.1649 263.544,144.4819 262.744,144.0719 C261.944,143.6629 261.627,142.6829 262.037,141.8829" id="Fill-162" fill="#FFECBC"></path>
                    <path d="M271.0428,169.7521 C271.4518,168.9521 272.4328,168.6351 273.2318,169.0441 C274.0318,169.4531 274.3498,170.4341 273.9388,171.2341 C273.5298,172.0341 272.5498,172.3511 271.7498,171.9411 C270.9498,171.5321 270.6338,170.5521 271.0428,169.7521" id="Fill-164" fill="#6AD7E5"></path>
                    <path d="M138.3676,250.9171 C139.2336,251.1581 139.7396,252.0561 139.4976,252.9211 C139.2566,253.7871 138.3596,254.2931 137.4936,254.0521 C136.6276,253.8101 136.1216,252.9121 136.3636,252.0471 C136.6046,251.1821 137.5016,250.6751 138.3676,250.9171" id="Fill-166" fill="#FFECBC"></path>
                    <path d="M59.9868,213.8488 C60.8528,214.0898 61.3588,214.9878 61.1168,215.8538 C60.8758,216.7188 59.9788,217.2248 59.1128,216.9838 C58.2468,216.7428 57.7408,215.8448 57.9828,214.9798 C58.2238,214.1138 59.1208,213.6078 59.9868,213.8488" id="Fill-168" fill="#5F609E"></path>
                    <path d="M98.8559,206.3019 C99.7219,206.5429 100.2279,207.4409 99.9859,208.3069 C99.7449,209.1719 98.8469,209.6779 97.9819,209.4369 C97.1159,209.1959 96.6099,208.2979 96.8519,207.4319 C97.0929,206.5669 97.9899,206.0609 98.8559,206.3019" id="Fill-170" fill="#6AD7E5"></path>
                    <path d="M226.2343,225.7677 C226.9753,225.2587 227.9873,225.4477 228.4963,226.1887 C229.0053,226.9287 228.8173,227.9417 228.0763,228.4507 C227.3363,228.9587 226.3223,228.7717 225.8143,228.0307 C225.3053,227.2897 225.4933,226.2767 226.2343,225.7677" id="Fill-172" fill="#FFECBC"></path>
                    <path d="M176.2172,229.3116 C176.9582,228.8026 177.9712,228.9916 178.4802,229.7316 C178.9882,230.4726 178.8002,231.4856 178.0592,231.9946 C177.3192,232.5026 176.3062,232.3146 175.7972,231.5746 C175.2882,230.8326 175.4762,229.8206 176.2172,229.3116" id="Fill-174" fill="#5F609E"></path>
                    <path d="M24.3369,197.0616 C24.7439,197.8626 24.4249,198.8416 23.6239,199.2496 C22.8229,199.6566 21.8429,199.3376 21.4359,198.5366 C21.0279,197.7356 21.3479,196.7556 22.1489,196.3486 C22.9499,195.9416 23.9289,196.2596 24.3369,197.0616" id="Fill-176" fill="#FFECBC"></path>
                    <path d="M3.4892,143.9894 C3.8962,144.7904 3.5772,145.7694 2.7762,146.1774 C1.9752,146.5854 0.9952,146.2654 0.5882,145.4644 C0.1812,144.6634 0.5002,143.6834 1.3012,143.2764 C2.1022,142.8694 3.0812,143.1884 3.4892,143.9894" id="Fill-178" fill="#6AD7E5"></path>
                    <path d="M29.5995,49.6378 C29.0625,50.3588 28.0435,50.5078 27.3225,49.9718 C26.6015,49.4358 26.4525,48.4158 26.9885,47.6958 C27.5245,46.9738 28.5445,46.8248 29.2655,47.3618 C29.9865,47.8978 30.1355,48.9168 29.5995,49.6378" id="Fill-180" fill="#FFECBC"></path>
                    <path d="M101.3476,2.6603 C100.8106,3.3813 99.7916,3.5303 99.0706,2.9943 C98.3496,2.4583 98.2006,1.4383 98.7366,0.7173 C99.2726,-0.0037 100.2926,-0.1527 101.0136,0.3833 C101.7346,0.9203 101.8836,1.9393 101.3476,2.6603" id="Fill-182" fill="#6AD7E5"></path>
                    <path d="M273.1083,104.6202 C272.4713,103.9862 272.4693,102.9562 273.1043,102.3192 C273.7383,101.6822 274.7683,101.6812 275.4053,102.3152 C276.0423,102.9492 276.0443,103.9792 275.4103,104.6162 C274.7753,105.2532 273.7453,105.2552 273.1083,104.6202" id="Fill-184" fill="#5F609E"></path>
                </g>
            </g>
        </g>
    </g>
</svg>