<?xml version="1.0" encoding="UTF-8"?>
<svg width="547px" height="143px" viewBox="0 0 547 143" version="1.1" xmlns="http://www.w3.org/2000/svg" xmlns:xlink="http://www.w3.org/1999/xlink">
    <!-- Generator: Sketch 43.2 (39069) - http://www.bohemiancoding.com/sketch -->
    <title>Page 1</title>
    <desc>Created with Sketch.</desc>
    <defs>
        <polygon id="path-1" points="0 142.696 547.009 142.696 547.009 0 0 0"></polygon>
    </defs>
    <g id="Page-1" stroke="none" stroke-width="1" fill="none" fill-rule="evenodd">
        <g id="Desktop-HD-Copy-6" transform="translate(-799.000000, -1031.000000)">
            <g id="Page-1" transform="translate(799.000000, 1031.000000)">
                <path d="M90.0087,74.5002 C90.0087,93.0012 75.0097,108.0002 56.5087,108.0002 C38.0077,108.0002 23.0087,93.0012 23.0087,74.5002 C23.0087,55.9992 38.0077,41.0002 56.5087,41.0002 C75.0097,41.0002 90.0087,55.9992 90.0087,74.5002 Z" id="Fill-1" fill="#F0F1F9"></path>
                <path d="M80.7118,53.0002 L89.8538,53.0002 C89.8538,53.0002 91.3628,60.2002 84.9528,67.4602 C80.7878,72.1782 68.7278,70.7922 60.9518,70.8642 C57.1228,70.8992 54.0088,67.3852 54.0088,63.0482 L54.0088,53.0002 L74.7448,53.0002" id="Fill-3" fill="#1E90FF"></path>
                <path d="M49.1205,67.485 C46.8775,70.647 44.2885,69.93 44.2885,69.93 C44.2885,69.93 43.1775,60.603 45.3845,56.348 C47.5735,52.128 50.8545,53.096 50.8545,53.096 C50.8545,53.096 51.7745,63.743 49.1205,67.485" id="Fill-5" fill="#1E90FF"></path>
                <path d="M42.0087,71.0002 L42.0087,87.7872 C42.0087,98.3982 52.7537,107.0002 66.0087,107.0002 C79.2637,107.0002 90.0087,98.3982 90.0087,87.7872 L89.7237,63.0002" id="Stroke-7" stroke="#333366" stroke-width="1.886" stroke-linecap="round"></path>
                <path d="M48.4012,68.0109 C45.3042,71.5059 41.7292,70.7139 41.7292,70.7139 C41.7292,70.7139 39.3482,60.9999 43.2422,55.7009 C46.5342,51.2219 50.7962,52.1059 50.7962,52.1059 C50.7962,52.1059 52.0652,63.8749 48.4012,68.0109 Z" id="Stroke-9" stroke="#333366" stroke-width="1.998"></path>
                <path d="M81.4447,52.0554 L91.8647,52.0554 C91.8647,52.0554 93.4227,59.0004 86.2787,67.5364 C81.8147,72.8714 67.7857,71.1034 58.9227,71.1804 C54.5577,71.2194 51.0087,67.4564 51.0087,62.8134 L51.0087,52.0554 L74.0087,52.0554" id="Stroke-11" stroke="#333366" stroke-width="1.939" stroke-linecap="round"></path>
                <path d="M78.6713,52.3361 C78.6713,53.0731 78.0733,53.6711 77.3363,53.6711 C76.5983,53.6711 76.0003,53.0731 76.0003,52.3361 C76.0003,51.5981 76.5983,51.0001 77.3363,51.0001 C78.0733,51.0001 78.6713,51.5981 78.6713,52.3361" id="Fill-13" fill="#333366"></path>
                <path d="M58.1649,85.8439 C58.1649,87.5869 56.7519,88.9999 55.0089,88.9999 C53.2659,88.9999 51.8529,87.5869 51.8529,85.8439 C51.8529,84.1009 53.2659,82.6879 55.0089,82.6879 C56.7519,82.6879 58.1649,84.1009 58.1649,85.8439" id="Fill-15" fill="#333366"></path>
                <path d="M58.1649,85.8439 C58.1649,87.5869 56.7519,88.9999 55.0089,88.9999 C53.2659,88.9999 51.8529,87.5869 51.8529,85.8439 C51.8529,84.1009 53.2659,82.6879 55.0089,82.6879 C56.7519,82.6879 58.1649,84.1009 58.1649,85.8439 Z" id="Stroke-17" stroke="#FFFFFF" stroke-width="0.478" stroke-linecap="round"></path>
                <path d="M59.9154,96.5002 C60.8774,98.2472 63.4624,99.5002 66.5084,99.5002 C69.5554,99.5002 72.1404,98.2472 73.1024,96.5002" id="Stroke-19" stroke="#333366" stroke-width="2" stroke-linecap="round"></path>
                <path d="M80.2426,85.9221 C80.2426,87.6651 78.8296,89.0781 77.0866,89.0781 C75.3436,89.0781 73.9306,87.6651 73.9306,85.9221 C73.9306,84.1791 75.3436,82.7661 77.0866,82.7661 C78.8296,82.7661 80.2426,84.1791 80.2426,85.9221" id="Fill-21" fill="#333366"></path>
                <path d="M80.2426,85.9221 C80.2426,87.6651 78.8296,89.0781 77.0866,89.0781 C75.3436,89.0781 73.9306,87.6651 73.9306,85.9221 C73.9306,84.1791 75.3436,82.7661 77.0866,82.7661 C78.8296,82.7661 80.2426,84.1791 80.2426,85.9221 Z" id="Stroke-23" stroke="#FFFFFF" stroke-width="0.478" stroke-linecap="round"></path>
                <path d="M41.0087,76.0256 C38.7717,76.2026 37.0087,78.1416 37.0087,80.5126 C37.0087,82.8836 38.7717,84.8226 41.0087,85.0006" id="Stroke-25" stroke="#333366" stroke-width="2.309" stroke-linecap="round"></path>
                <path d="M91.0087,85.0002 C93.2457,84.8222 95.0087,82.8842 95.0087,80.5132 C95.0087,78.1422 93.2457,76.2032 91.0087,76.0252" id="Stroke-27" stroke="#333366" stroke-width="2.309" stroke-linecap="round"></path>
                <path d="M389.6713,20.3361 C389.6713,21.0731 389.0733,21.6711 388.3363,21.6711 C387.5983,21.6711 387.0003,21.0731 387.0003,20.3361 C387.0003,19.5981 387.5983,19.0001 388.3363,19.0001 C389.0733,19.0001 389.6713,19.5981 389.6713,20.3361" id="Fill-29" fill="#FFECBC"></path>
                <path d="M19.6713,98.3361 C19.6713,99.0731 19.0733,99.6711 18.3363,99.6711 C17.5983,99.6711 17.0003,99.0731 17.0003,98.3361 C17.0003,97.5981 17.5983,97.0001 18.3363,97.0001 C19.0733,97.0001 19.6713,97.5981 19.6713,98.3361" id="Fill-31" fill="#FFECBC"></path>
                <path d="M390.6713,125.3361 C390.6713,126.0731 390.0733,126.6721 389.3363,126.6721 C388.5983,126.6721 388.0003,126.0731 388.0003,125.3361 C388.0003,124.5981 388.5983,124.0001 389.3363,124.0001 C390.0733,124.0001 390.6713,124.5981 390.6713,125.3361" id="Fill-33" fill="#FFECBC"></path>
                <path d="M13.6713,61.3361 C13.6713,62.0731 13.0733,62.6711 12.3363,62.6711 C11.5983,62.6711 11.0003,62.0731 11.0003,61.3361 C11.0003,60.5981 11.5983,60.0001 12.3363,60.0001 C13.0733,60.0001 13.6713,60.5981 13.6713,61.3361" id="Fill-35" fill="#5F609E"></path>
                <path d="M2.6713,81.3361 C2.6713,82.0731 2.0733,82.6711 1.3363,82.6711 C0.5983,82.6711 0.0003,82.0731 0.0003,81.3361 C0.0003,80.5981 0.5983,80.0001 1.3363,80.0001 C2.0733,80.0001 2.6713,80.5981 2.6713,81.3361" id="Fill-37" fill="#6AD7E5"></path>
                <path d="M364.8524,34.0197 C364.8524,39.3377 360.5404,43.6497 355.2234,43.6497 C349.9044,43.6497 345.5934,39.3377 345.5934,34.0197 C345.5934,28.7017 349.9044,24.3907 355.2234,24.3907 C360.5404,24.3907 364.8524,28.7017 364.8524,34.0197" id="Fill-39" fill="#F0F1F9"></path>
                <path d="M361.1962,27.0661 C363.0752,28.9811 364.2352,31.6051 364.2352,34.5001 C364.2352,40.3611 359.4832,45.1131 353.6222,45.1131 C347.7602,45.1131 343.0092,40.3611 343.0092,34.5001 C343.0092,28.6391 347.7602,23.8871 353.6222,23.8871 C354.3542,23.8871 355.0702,23.9611 355.7602,24.1031" id="Stroke-41" stroke="#333366" stroke-width="1.464" stroke-linecap="round"></path>
                <path d="M359.5966,25.5969 C359.5966,26.1369 359.1586,26.5749 358.6186,26.5749 C358.0786,26.5749 357.6406,26.1369 357.6406,25.5969 C357.6406,25.0569 358.0786,24.6189 358.6186,24.6189 C359.1586,24.6189 359.5966,25.0569 359.5966,25.5969" id="Fill-43" fill="#333366"></path>
                <path d="M350.328,32.5558 C350.328,33.3648 349.673,34.0198 348.864,34.0198 C348.056,34.0198 347.4,33.3648 347.4,32.5558 C347.4,31.7478 348.056,31.0918 348.864,31.0918 C349.673,31.0918 350.328,31.7478 350.328,32.5558" id="Fill-45" fill="#333366"></path>
                <path d="M350.328,38.1599 C350.808,39.4379 352.1,40.3559 353.622,40.3559 C355.144,40.3559 356.435,39.4379 356.915,38.1599" id="Stroke-47" stroke="#333366" stroke-width="1.209" stroke-linecap="round"></path>
                <path d="M359.2255,32.613 C359.2255,33.453 358.5445,34.134 357.7045,34.134 C356.8645,34.134 356.1835,33.453 356.1835,32.613 C356.1835,31.773 356.8645,31.092 357.7045,31.092 C358.5445,31.092 359.2255,31.773 359.2255,32.613" id="Fill-49" fill="#333366"></path>
                <path d="M420.8524,41.0197 C420.8524,46.3377 416.5404,50.6497 411.2234,50.6497 C405.9044,50.6497 401.5934,46.3377 401.5934,41.0197 C401.5934,35.7017 405.9044,31.3907 411.2234,31.3907 C416.5404,31.3907 420.8524,35.7017 420.8524,41.0197" id="Fill-51" fill="#78BCFF"></path>
                <path d="M417.1962,34.0661 C419.0752,35.9811 420.2352,38.6051 420.2352,41.5001 C420.2352,47.3611 415.4832,52.1131 409.6222,52.1131 C403.7602,52.1131 399.0092,47.3611 399.0092,41.5001 C399.0092,35.6391 403.7602,30.8871 409.6222,30.8871 C410.3542,30.8871 411.0702,30.9611 411.7602,31.1031" id="Stroke-53" stroke="#333366" stroke-width="1.464" stroke-linecap="round"></path>
                <path d="M415.5966,32.5969 C415.5966,33.1369 415.1586,33.5749 414.6186,33.5749 C414.0786,33.5749 413.6406,33.1369 413.6406,32.5969 C413.6406,32.0569 414.0786,31.6189 414.6186,31.6189 C415.1586,31.6189 415.5966,32.0569 415.5966,32.5969" id="Fill-55" fill="#333366"></path>
                <path d="M406.328,39.5558 C406.328,40.3648 405.673,41.0198 404.864,41.0198 C404.056,41.0198 403.4,40.3648 403.4,39.5558 C403.4,38.7478 404.056,38.0918 404.864,38.0918 C405.673,38.0918 406.328,38.7478 406.328,39.5558" id="Fill-57" fill="#333366"></path>
                <path d="M406.328,45.1599 C406.808,46.4379 408.1,47.3559 409.622,47.3559 C411.144,47.3559 412.435,46.4379 412.915,45.1599" id="Stroke-59" stroke="#333366" stroke-width="1.209" stroke-linecap="round"></path>
                <path d="M415.2255,39.613 C415.2255,40.453 414.5445,41.134 413.7045,41.134 C412.8645,41.134 412.1835,40.453 412.1835,39.613 C412.1835,38.773 412.8645,38.092 413.7045,38.092 C414.5445,38.092 415.2255,38.773 415.2255,39.613" id="Fill-61" fill="#333366"></path>
                <path d="M389.6195,45.2062 C389.6195,48.4632 386.9795,51.1032 383.7225,51.1032 C380.4645,51.1032 377.8245,48.4632 377.8245,45.2062 C377.8245,41.9492 380.4645,39.3082 383.7225,39.3082 C386.9795,39.3082 389.6195,41.9492 389.6195,45.2062" id="Fill-63" fill="#F0F1F9"></path>
                <path d="M387.3807,40.9474 C388.5317,42.1194 389.2417,43.7274 389.2417,45.5004 C389.2417,49.0904 386.3317,52.0004 382.7417,52.0004 C379.1517,52.0004 376.2417,49.0904 376.2417,45.5004 C376.2417,41.9104 379.1517,39.0004 382.7417,39.0004 C383.1907,39.0004 383.6287,39.0454 384.0517,39.1324" id="Stroke-65" stroke="#333366" stroke-width="0.897" stroke-linecap="round"></path>
                <path d="M386.4008,40.0471 C386.4008,40.3781 386.1328,40.6461 385.8018,40.6461 C385.4708,40.6461 385.2028,40.3781 385.2028,40.0471 C385.2028,39.7161 385.4708,39.4481 385.8018,39.4481 C386.1328,39.4481 386.4008,39.7161 386.4008,40.0471" id="Fill-67" fill="#333366"></path>
                <path d="M380.724,44.3093 C380.724,44.8043 380.323,45.2063 379.828,45.2063 C379.332,45.2063 378.931,44.8043 378.931,44.3093 C378.931,43.8143 379.332,43.4133 379.828,43.4133 C380.323,43.4133 380.724,43.8143 380.724,44.3093" id="Fill-69" fill="#333366"></path>
                <path d="M380.724,47.7414 C381.018,48.5244 381.809,49.0864 382.742,49.0864 C383.674,49.0864 384.464,48.5244 384.759,47.7414" id="Stroke-71" stroke="#333366" stroke-width="0.741" stroke-linecap="round"></path>
                <path d="M386.1737,44.3444 C386.1737,44.8594 385.7567,45.2764 385.2417,45.2764 C384.7277,45.2764 384.3107,44.8594 384.3107,44.3444 C384.3107,43.8294 384.7277,43.4124 385.2417,43.4124 C385.7567,43.4124 386.1737,43.8294 386.1737,44.3444" id="Fill-73" fill="#333366"></path>
                <path d="M450.6776,46.1154 C450.6776,50.3744 447.2246,53.8274 442.9656,53.8274 C438.7066,53.8274 435.2536,50.3744 435.2536,46.1154 C435.2536,41.8564 438.7066,38.4034 442.9656,38.4034 C447.2246,38.4034 450.6776,41.8564 450.6776,46.1154" id="Fill-75" fill="#F0F1F9"></path>
                <path d="M447.7499,40.5466 C449.2549,42.0796 450.1839,44.1816 450.1839,46.5006 C450.1839,51.1946 446.3779,55.0006 441.6839,55.0006 C436.9889,55.0006 433.1839,51.1946 433.1839,46.5006 C433.1839,41.8056 436.9889,38.0006 441.6839,38.0006 C442.2699,38.0006 442.8429,38.0596 443.3959,38.1726" id="Stroke-77" stroke="#333366" stroke-width="1.172" stroke-linecap="round"></path>
                <path d="M446.4681,39.3693 C446.4681,39.8023 446.1171,40.1523 445.6851,40.1523 C445.2531,40.1523 444.9021,39.8023 444.9021,39.3693 C444.9021,38.9373 445.2531,38.5863 445.6851,38.5863 C446.1171,38.5863 446.4681,38.9373 446.4681,39.3693" id="Fill-79" fill="#333366"></path>
                <path d="M439.0453,44.9431 C439.0453,45.5901 438.5203,46.1151 437.8733,46.1151 C437.2253,46.1151 436.7003,45.5901 436.7003,44.9431 C436.7003,44.2961 437.2253,43.7711 437.8733,43.7711 C438.5203,43.7711 439.0453,44.2961 439.0453,44.9431" id="Fill-81" fill="#333366"></path>
                <path d="M439.0453,49.4313 C439.4303,50.4553 440.4643,51.1893 441.6833,51.1893 C442.9023,51.1893 443.9363,50.4553 444.3213,49.4313" id="Stroke-83" stroke="#333366" stroke-width="0.969" stroke-linecap="round"></path>
                <path d="M446.1713,44.989 C446.1713,45.662 445.6263,46.207 444.9533,46.207 C444.2803,46.207 443.7343,45.662 443.7343,44.989 C443.7343,44.316 444.2803,43.771 444.9533,43.771 C445.6263,43.771 446.1713,44.316 446.1713,44.989" id="Fill-85" fill="#333366"></path>
                <path d="M476.0087,50.1447 C476.0087,54.0787 472.8197,57.2677 468.8867,57.2677 C464.9527,57.2677 461.7637,54.0787 461.7637,50.1447 C461.7637,46.2117 464.9527,43.0227 468.8867,43.0227 C472.8197,43.0227 476.0087,46.2117 476.0087,50.1447" id="Fill-87" fill="#F0F1F9"></path>
                <path d="M473.3046,45.0016 C474.6946,46.4186 475.5526,48.3586 475.5526,50.5006 C475.5526,54.8356 472.0376,58.3496 467.7016,58.3496 C463.3666,58.3496 459.8526,54.8356 459.8526,50.5006 C459.8526,46.1646 463.3666,42.6506 467.7016,42.6506 C468.2436,42.6506 468.7736,42.7056 469.2836,42.8096" id="Stroke-89" stroke="#333366" stroke-width="1.083" stroke-linecap="round"></path>
                <path d="M472.121,43.9147 C472.121,44.3137 471.797,44.6377 471.398,44.6377 C470.999,44.6377 470.675,44.3137 470.675,43.9147 C470.675,43.5157 470.999,43.1917 471.398,43.1917 C471.797,43.1917 472.121,43.5157 472.121,43.9147" id="Fill-91" fill="#333366"></path>
                <path d="M465.266,49.0622 C465.266,49.6602 464.781,50.1452 464.183,50.1452 C463.585,50.1452 463.1,49.6602 463.1,49.0622 C463.1,48.4642 463.585,47.9792 464.183,47.9792 C464.781,47.9792 465.266,48.4642 465.266,49.0622" id="Fill-93" fill="#333366"></path>
                <path d="M465.266,53.2072 C465.621,54.1522 466.577,54.8312 467.702,54.8312 C468.828,54.8312 469.783,54.1522 470.138,53.2072" id="Stroke-95" stroke="#333366" stroke-width="0.895" stroke-linecap="round"></path>
                <path d="M471.847,49.1047 C471.847,49.7257 471.343,50.2297 470.722,50.2297 C470.1,50.2297 469.597,49.7257 469.597,49.1047 C469.597,48.4827 470.1,47.9797 470.722,47.9797 C471.343,47.9797 471.847,48.4827 471.847,49.1047" id="Fill-97" fill="#333366"></path>
                <path d="M547.0087,86.0002 C547.0087,94.8362 489.9257,102.0002 419.5087,102.0002 C349.0917,102.0002 292.0087,94.8362 292.0087,86.0002 C292.0087,77.1642 349.0917,70.0002 419.5087,70.0002 C489.9257,70.0002 547.0087,77.1642 547.0087,86.0002" id="Fill-99" fill="#F0F1F9"></path>
                <path d="M209.9061,16.3967 C209.9061,21.5867 205.6991,25.7937 200.5091,25.7937 C195.3201,25.7937 191.1131,21.5867 191.1131,16.3967 C191.1131,11.2077 195.3201,7.0007 200.5091,7.0007 C205.6991,7.0007 209.9061,11.2077 209.9061,16.3967" id="Fill-101" fill="#A5D3FF"></path>
                <path d="M205.8617,6.904 C208.3917,8.951 210.0087,12.082 210.0087,15.59 C210.0087,21.758 205.0077,26.758 198.8407,26.758 C192.6717,26.758 187.6717,21.758 187.6717,15.59 C187.6717,9.422 192.6717,4.421 198.8407,4.421" id="Stroke-103" stroke="#333366" stroke-width="2" stroke-linecap="round"></path>
                <path d="M190.2992,23.4733 L181.1012,31.3573" id="Stroke-105" stroke="#333366" stroke-width="2"></path>
                <path d="M172.3207,39.9431 L172.1677,39.7771 C171.5107,39.0651 171.5557,37.9441 172.2677,37.2871 L178.8507,31.2121 C179.5627,30.5541 180.6837,30.6001 181.3417,31.3121 L181.4937,31.4781 C182.1517,32.1901 182.1067,33.3111 181.3947,33.9681 L174.8117,40.0431 C174.0997,40.7011 172.9787,40.6551 172.3207,39.9431 Z" id="Stroke-107" stroke="#333366" stroke-width="2"></path>
                <path d="M203.6752,5.2985 C203.6752,6.0365 203.0772,6.6335 202.3402,6.6335 C201.6022,6.6335 201.0042,6.0365 201.0042,5.2985 C201.0042,4.5615 201.6022,3.9635 202.3402,3.9635 C203.0772,3.9635 203.6752,4.5615 203.6752,5.2985" id="Fill-109" fill="#333366"></path>
                <path d="M353.0087,48.0002 L353.0087,49.5002" id="Stroke-111" stroke="#E6E6E6" stroke-width="2" stroke-linecap="round"></path>
                <path d="M353.0087,57.0187 L353.0087,74.7407" id="Stroke-113" stroke="#E6E6E6" stroke-width="2" stroke-linecap="round" stroke-dasharray="3.222,7.519"></path>
                <path d="M353.0087,78.5002 L353.0087,80.0002" id="Stroke-115" stroke="#E6E6E6" stroke-width="2" stroke-linecap="round"></path>
                <path d="M383.0087,55.0002 L383.0087,56.5002" id="Stroke-117" stroke="#E6E6E6" stroke-width="2" stroke-linecap="round"></path>
                <path d="M383.0087,62.6765 L383.0087,68.4115" id="Stroke-119" stroke="#E6E6E6" stroke-width="2" stroke-linecap="round" stroke-dasharray="2.647,6.176"></path>
                <path d="M383.0087,71.5002 L383.0087,73.0002" id="Stroke-121" stroke="#E6E6E6" stroke-width="2" stroke-linecap="round"></path>
                <path d="M410.0087,55.0002 L410.0087,56.5002" id="Stroke-123" stroke="#333366" stroke-width="2" stroke-linecap="round"></path>
                <path d="M410.0087,62.9328 L410.0087,87.2838" id="Stroke-125" stroke="#333366" stroke-width="2" stroke-linecap="round" stroke-dasharray="2.757,6.432"></path>
                <path d="M410.0087,90.5002 L410.0087,92.0002" id="Stroke-127" stroke="#333366" stroke-width="2" stroke-linecap="round"></path>
                <path d="M468.0087,61.0002 L468.0087,62.5002" id="Stroke-129" stroke="#E6E6E6" stroke-width="2" stroke-linecap="round"></path>
                <path d="M468.0087,66.6179 L468.0087,70.4419" id="Stroke-131" stroke="#E6E6E6" stroke-width="2" stroke-linecap="round" stroke-dasharray="1.765,4.118"></path>
                <path d="M468.0087,72.5002 L468.0087,74.0002" id="Stroke-133" stroke="#E6E6E6" stroke-width="2" stroke-linecap="round"></path>
                <path d="M442.0087,59.0002 L442.0087,60.5002" id="Stroke-135" stroke="#E6E6E6" stroke-width="2" stroke-linecap="round"></path>
                <path d="M442.0087,66.9816 L442.0087,82.2596" id="Stroke-137" stroke="#E6E6E6" stroke-width="2" stroke-linecap="round" stroke-dasharray="2.778,6.481"></path>
                <path d="M442.0087,85.5002 L442.0087,87.0002" id="Stroke-139" stroke="#E6E6E6" stroke-width="2" stroke-linecap="round"></path>
                <mask id="mask-2" fill="white">
                    <use xlink:href="#path-1"></use>
                </mask>
                <g id="Clip-142"></g>
                <polygon id="Fill-141" fill="#A5D3FF" mask="url(#mask-2)" points="183.484 140.974 211.009 140.974 211.009 115.696 183.484 115.696"></polygon>
                <path d="M203.1908,115.8351 C203.1908,116.6151 202.5588,117.2481 201.7788,117.2481 C200.9988,117.2481 200.3668,116.6151 200.3668,115.8351 C200.3668,115.0551 200.9988,114.4231 201.7788,114.4231 C202.5588,114.4231 203.1908,115.0551 203.1908,115.8351" id="Fill-143" fill="#333366" mask="url(#mask-2)"></path>
                <path d="M189.8031,125.8879 C189.8031,127.0559 188.8571,128.0019 187.6891,128.0019 C186.5211,128.0019 185.5741,127.0559 185.5741,125.8879 C185.5741,124.7199 186.5211,123.7739 187.6891,123.7739 C188.8571,123.7739 189.8031,124.7199 189.8031,125.8879" id="Fill-144" fill="#333366" mask="url(#mask-2)"></path>
                <path d="M189.8031,133.9826 C190.4971,135.8296 192.3631,137.1536 194.5611,137.1536 C196.7591,137.1536 198.6241,135.8296 199.3191,133.9826" id="Stroke-145" stroke="#333366" stroke-width="1.747" stroke-linecap="round" mask="url(#mask-2)"></path>
                <path d="M202.6556,125.9699 C202.6556,127.1839 201.6716,128.1669 200.4586,128.1669 C199.2446,128.1669 198.2606,127.1839 198.2606,125.9699 C198.2606,124.7569 199.2446,123.7739 200.4586,123.7739 C201.6716,123.7739 202.6556,124.7569 202.6556,125.9699" id="Fill-146" fill="#333366" mask="url(#mask-2)"></path>
                <polyline id="Stroke-147" stroke="#333366" stroke-width="2" stroke-linecap="round" stroke-linejoin="round" mask="url(#mask-2)" points="206.326 115.696 210.286 115.696 210.286 141.696 178.509 141.696 178.509 115.696 198.261 115.696"></polyline>
                <path d="M122.0087,64.0002 L122.5087,64.0002" id="Stroke-148" stroke="#333366" stroke-width="0.5" stroke-linecap="round" mask="url(#mask-2)"></path>
                <path d="M126.5087,64.0002 L274.5087,64.0002" id="Stroke-149" stroke="#333366" stroke-width="0.5" stroke-linecap="round" stroke-dasharray="1,4" mask="url(#mask-2)"></path>
                <path d="M276.5087,64.0002 L277.0087,64.0002" id="Stroke-150" stroke="#333366" stroke-width="0.5" stroke-linecap="round" mask="url(#mask-2)"></path>
                <path d="M123.0087,89.0002 L123.5087,89.0002" id="Stroke-151" stroke="#333366" stroke-width="0.5" stroke-linecap="round" mask="url(#mask-2)"></path>
                <path d="M127.5087,89.0002 L275.5087,89.0002" id="Stroke-152" stroke="#333366" stroke-width="0.5" stroke-linecap="round" stroke-dasharray="1,4" mask="url(#mask-2)"></path>
                <path d="M277.5087,89.0002 L278.0087,89.0002" id="Stroke-153" stroke="#333366" stroke-width="0.5" stroke-linecap="round" mask="url(#mask-2)"></path>
                <path d="M416.6713,131.3361 C416.6713,132.0731 416.0733,132.6721 415.3363,132.6721 C414.5983,132.6721 414.0003,132.0731 414.0003,131.3361 C414.0003,130.5981 414.5983,130.0001 415.3363,130.0001 C416.0733,130.0001 416.6713,130.5981 416.6713,131.3361" id="Fill-154" fill="#6AD7E5" mask="url(#mask-2)"></path>
                <path d="M446.6713,121.3361 C446.6713,122.0731 446.0733,122.6721 445.3363,122.6721 C444.5983,122.6721 444.0003,122.0731 444.0003,121.3361 C444.0003,120.5981 444.5983,120.0001 445.3363,120.0001 C446.0733,120.0001 446.6713,120.5981 446.6713,121.3361" id="Fill-155" fill="#5F609E" mask="url(#mask-2)"></path>
                <path d="M406.6713,1.3361 C406.6713,2.0731 406.0733,2.6711 405.3363,2.6711 C404.5983,2.6711 404.0003,2.0731 404.0003,1.3361 C404.0003,0.5981 404.5983,0.0001 405.3363,0.0001 C406.0733,0.0001 406.6713,0.5981 406.6713,1.3361" id="Fill-156" fill="#5F609E" mask="url(#mask-2)"></path>
                <path d="M466.6713,31.3361 C466.6713,32.0731 466.0733,32.6711 465.3363,32.6711 C464.5983,32.6711 464.0003,32.0731 464.0003,31.3361 C464.0003,30.5981 464.5983,30.0001 465.3363,30.0001 C466.0733,30.0001 466.6713,30.5981 466.6713,31.3361" id="Fill-157" fill="#6AD7E5" mask="url(#mask-2)"></path>
                <path d="M106.6713,91.3361 C106.6713,92.0731 106.0733,92.6711 105.3363,92.6711 C104.5983,92.6711 104.0003,92.0731 104.0003,91.3361 C104.0003,90.5981 104.5983,90.0001 105.3363,90.0001 C106.0733,90.0001 106.6713,90.5981 106.6713,91.3361" id="Fill-158" fill="#6AD7E5" mask="url(#mask-2)"></path>
                <path d="M96.6713,41.3361 C96.6713,42.0731 96.0733,42.6711 95.3363,42.6711 C94.5983,42.6711 94.0003,42.0731 94.0003,41.3361 C94.0003,40.5981 94.5983,40.0001 95.3363,40.0001 C96.0733,40.0001 96.6713,40.5981 96.6713,41.3361" id="Fill-159" fill="#FFECBC" mask="url(#mask-2)"></path>
            </g>
        </g>
    </g>
</svg>